AwamiNastaliq-Black.ufo
<glyph name="exclam" format="2">
  <advance width="778"/>
  <unicode hex="0021"/>
  <outline>
    <contour>
      <point x="504" y="1208" type="curve" smooth="yes" name="hr02"/>
      <point x="504" y="1306"/>
      <point x="468" y="1414"/>
      <point x="341" y="1414" type="curve" smooth="yes"/>
      <point x="215" y="1414"/>
      <point x="176" y="1306"/>
      <point x="176" y="1208" type="curve" smooth="yes"/>
      <point x="176" y="1087"/>
      <point x="204" y="959"/>
      <point x="233" y="806" type="curve" smooth="yes"/>
      <point x="259" y="664"/>
      <point x="284" y="639"/>
      <point x="284" y="305" type="curve" smooth="yes" name="hr01"/>
      <point x="284" y="291"/>
      <point x="312" y="282"/>
      <point x="344" y="282" type="curve" smooth="yes"/>
      <point x="374" y="282"/>
      <point x="397" y="290"/>
      <point x="397" y="305" type="curve" smooth="yes"/>
      <point x="397" y="639"/>
      <point x="425" y="661"/>
      <point x="452" y="808" type="curve" smooth="yes"/>
      <point x="479" y="959"/>
      <point x="504" y="1092"/>
    </contour>
    <contour>
      <point x="496" y="63" type="curve" smooth="yes"/>
      <point x="496" y="148"/>
      <point x="427" y="217"/>
      <point x="342" y="217" type="curve" smooth="yes"/>
      <point x="256" y="217"/>
      <point x="187" y="148"/>
      <point x="187" y="63" type="curve" smooth="yes"/>
      <point x="187" y="-20"/>
      <point x="256" y="-90"/>
      <point x="342" y="-90" type="curve" smooth="yes"/>
      <point x="427" y="-90"/>
      <point x="496" y="-20"/>
    </contour>
  </outline>
</glyph>
<glyph name="quotedbl" format="2">
  <advance width="1126"/>
  <unicode hex="0022"/>
  <outline>
    <contour>
      <point x="950" y="1232" type="curve" smooth="yes"/>
      <point x="950" y="1313"/>
      <point x="884" y="1378"/>
      <point x="803" y="1378" type="curve" smooth="yes"/>
      <point x="719" y="1378"/>
      <point x="654" y="1313"/>
      <point x="654" y="1232" type="curve" smooth="yes"/>
      <point x="654" y="1174"/>
      <point x="760" y="772"/>
      <point x="765" y="718" type="curve"/>
      <point x="838" y="718" type="line"/>
      <point x="844" y="772"/>
      <point x="950" y="1174"/>
    </contour>
    <contour>
      <point x="470" y="1232" type="curve" smooth="yes"/>
      <point x="470" y="1313"/>
      <point x="403" y="1378"/>
      <point x="322" y="1378" type="curve" smooth="yes"/>
      <point x="238" y="1378"/>
      <point x="173" y="1313"/>
      <point x="173" y="1232" type="curve" smooth="yes"/>
      <point x="173" y="1174"/>
      <point x="278" y="772"/>
      <point x="284" y="718" type="curve"/>
      <point x="357" y="718" type="line"/>
      <point x="361" y="772"/>
      <point x="470" y="1174"/>
    </contour>
  </outline>
</glyph>
<glyph name="numbersign" format="2">
  <advance width="1026"/>
  <unicode hex="0023"/>
  <outline>
    <contour>
      <point x="715" y="427" type="line"/>
      <point x="989" y="427" type="line"/>
      <point x="989" y="511" type="line"/>
      <point x="734" y="511" type="line"/>
      <point x="805" y="854" type="line"/>
      <point x="989" y="854" type="line"/>
      <point x="989" y="934" type="line"/>
      <point x="819" y="934" type="line"/>
      <point x="912" y="1389" type="line"/>
      <point x="830" y="1389" type="line"/>
      <point x="734" y="934" type="line"/>
      <point x="397" y="934" type="line"/>
      <point x="485" y="1389" type="line"/>
      <point x="404" y="1389" type="line"/>
      <point x="314" y="934" type="line"/>
      <point x="36" y="934" type="line"/>
      <point x="36" y="854" type="line"/>
      <point x="294" y="854" type="line"/>
      <point x="222" y="511" type="line"/>
      <point x="36" y="511" type="line"/>
      <point x="36" y="427" type="line"/>
      <point x="207" y="427" type="line"/>
      <point x="115" y="-30" type="line"/>
      <point x="199" y="-30" type="line"/>
      <point x="294" y="427" type="line"/>
      <point x="632" y="427" type="line"/>
      <point x="543" y="-30" type="line"/>
      <point x="623" y="-30" type="line"/>
    </contour>
    <contour>
      <point x="378" y="854" type="line"/>
      <point x="720" y="854" type="line"/>
      <point x="650" y="511" type="line"/>
      <point x="307" y="511" type="line"/>
    </contour>
  </outline>
</glyph>
<glyph name="dollar" format="2">
  <advance width="1038"/>
  <unicode hex="0024"/>
  <outline>
    <contour>
      <point x="463" y="-154" type="line"/>
      <point x="580" y="-154" type="line"/>
      <point x="580" y="-30" type="line"/>
      <point x="860" y="-10"/>
      <point x="982" y="96"/>
      <point x="982" y="361" type="curve" smooth="yes"/>
      <point x="982" y="635"/>
      <point x="738" y="739"/>
      <point x="580" y="852" type="curve"/>
      <point x="580" y="1279" type="line"/>
      <point x="715" y="1260"/>
      <point x="800" y="1115"/>
      <point x="817" y="935" type="curve"/>
      <point x="908" y="935" type="line" name="hr01"/>
      <point x="908" y="1284" type="line"/>
      <point x="797" y="1325"/>
      <point x="699" y="1367"/>
      <point x="580" y="1372" type="curve" name="hr02"/>
      <point x="580" y="1465" type="line"/>
      <point x="463" y="1465" type="line"/>
      <point x="463" y="1372" type="line"/>
      <point x="282" y="1372"/>
      <point x="85" y="1219"/>
      <point x="85" y="1023" type="curve" smooth="yes"/>
      <point x="85" y="786"/>
      <point x="291" y="673"/>
      <point x="463" y="563" type="curve"/>
      <point x="463" y="64" type="line"/>
      <point x="348" y="80"/>
      <point x="222" y="199"/>
      <point x="209" y="385" type="curve"/>
      <point x="112" y="385" type="line"/>
      <point x="112" y="51" type="line"/>
      <point x="223" y="2"/>
      <point x="344" y="-24"/>
      <point x="463" y="-30" type="curve"/>
    </contour>
    <contour>
      <point x="580" y="64" type="curve"/>
      <point x="580" y="520" type="line"/>
      <point x="686" y="448"/>
      <point x="737" y="360"/>
      <point x="737" y="286" type="curve" smooth="yes"/>
      <point x="737" y="167"/>
      <point x="674" y="72"/>
    </contour>
    <contour>
      <point x="463" y="896" type="line"/>
      <point x="371" y="952"/>
      <point x="319" y="1042"/>
      <point x="319" y="1111" type="curve" smooth="yes" name="hr03"/>
      <point x="319" y="1195"/>
      <point x="352" y="1262"/>
      <point x="463" y="1279" type="curve"/>
    </contour>
  </outline>
</glyph>
<glyph name="percent" format="2">
  <advance width="1723"/>
  <unicode hex="0025"/>
  <outline>
    <contour>
      <point x="364" y="-28" type="line" name="hr01"/>
      <point x="553" y="-28" type="line"/>
      <point x="1384" y="1384" type="line"/>
      <point x="1200" y="1384" type="line"/>
      <point x="1129" y="1295"/>
      <point x="1027" y="1251"/>
      <point x="913" y="1251" type="curve" smooth="yes"/>
      <point x="764" y="1251"/>
      <point x="759" y="1357"/>
      <point x="586" y="1357" type="curve" smooth="yes"/>
      <point x="327" y="1357"/>
      <point x="85" y="1122"/>
      <point x="85" y="850" type="curve" smooth="yes"/>
      <point x="85" y="666"/>
      <point x="192" y="556"/>
      <point x="368" y="556" type="curve" smooth="yes"/>
      <point x="635" y="556"/>
      <point x="827" y="849"/>
      <point x="827" y="1084" type="curve" smooth="yes"/>
      <point x="827" y="1127"/>
      <point x="823" y="1167"/>
      <point x="811" y="1200" type="curve"/>
      <point x="852" y="1186"/>
      <point x="888" y="1180"/>
      <point x="921" y="1180" type="curve" smooth="yes"/>
      <point x="981" y="1180"/>
      <point x="1034" y="1201"/>
      <point x="1111" y="1236" type="curve"/>
    </contour>
    <contour>
      <point x="435" y="640" type="curve" smooth="yes"/>
      <point x="347" y="640"/>
      <point x="290" y="706"/>
      <point x="290" y="781" type="curve" smooth="yes"/>
      <point x="290" y="938"/>
      <point x="370" y="1090"/>
      <point x="463" y="1183" type="curve" smooth="yes"/>
      <point x="521" y="1241"/>
      <point x="583" y="1278"/>
      <point x="633" y="1278" type="curve" smooth="yes"/>
      <point x="663" y="1278"/>
      <point x="680" y="1259"/>
      <point x="718" y="1228" type="curve"/>
      <point x="740" y="1193"/>
      <point x="754" y="1139"/>
      <point x="754" y="1062" type="curve" smooth="yes"/>
      <point x="754" y="911"/>
      <point x="578" y="640"/>
    </contour>
    <contour>
      <point x="1162" y="-31" type="curve" smooth="yes"/>
      <point x="1463" y="-31"/>
      <point x="1636" y="272"/>
      <point x="1636" y="496" type="curve" smooth="yes"/>
      <point x="1636" y="619"/>
      <point x="1595" y="767"/>
      <point x="1380" y="767" type="curve" smooth="yes"/>
      <point x="1120" y="767"/>
      <point x="893" y="484"/>
      <point x="893" y="262" type="curve" smooth="yes"/>
      <point x="893" y="57"/>
      <point x="996" y="-31"/>
    </contour>
    <contour>
      <point x="1240" y="50" type="curve" smooth="yes" name="hr02"/>
      <point x="1152" y="50"/>
      <point x="1097" y="101"/>
      <point x="1097" y="176" type="curve" smooth="yes"/>
      <point x="1097" y="434"/>
      <point x="1321" y="690"/>
      <point x="1431" y="690" type="curve" smooth="yes"/>
      <point x="1507" y="690"/>
      <point x="1559" y="631"/>
      <point x="1559" y="475" type="curve" smooth="yes"/>
      <point x="1559" y="298"/>
      <point x="1372" y="50"/>
    </contour>
  </outline>
</glyph>
<glyph name="ampersand" format="2">
  <advance width="1694"/>
  <unicode hex="0026"/>
  <outline>
    <contour>
      <point x="497" y="-28" type="curve" smooth="yes"/>
      <point x="688" y="-28"/>
      <point x="844" y="48"/>
      <point x="957" y="129" type="curve"/>
      <point x="1053" y="39"/>
      <point x="1137" y="-28"/>
      <point x="1276" y="-28" type="curve" smooth="yes"/>
      <point x="1427" y="-28"/>
      <point x="1543" y="68"/>
      <point x="1611" y="249" type="curve"/>
      <point x="1544" y="295" type="line"/>
      <point x="1504" y="206"/>
      <point x="1457" y="191"/>
      <point x="1412" y="191" type="curve" smooth="yes"/>
      <point x="1342" y="191"/>
      <point x="1262" y="239"/>
      <point x="1175" y="327" type="curve"/>
      <point x="1260" y="427"/>
      <point x="1320" y="508"/>
      <point x="1359" y="574" type="curve" smooth="yes"/>
      <point x="1406" y="652"/>
      <point x="1436" y="738"/>
      <point x="1480" y="770" type="curve" smooth="yes"/>
      <point x="1505" y="786"/>
      <point x="1562" y="797"/>
      <point x="1601" y="800" type="curve"/>
      <point x="1601" y="866" type="line"/>
      <point x="1134" y="866" type="line"/>
      <point x="1134" y="800" type="line"/>
      <point x="1218" y="789"/>
      <point x="1239" y="734"/>
      <point x="1239" y="679" type="curve" smooth="yes"/>
      <point x="1239" y="607"/>
      <point x="1155" y="490"/>
      <point x="1083" y="415" type="curve"/>
      <point x="951" y="556"/>
      <point x="913" y="605"/>
      <point x="816" y="771" type="curve"/>
      <point x="972" y="829"/>
      <point x="1148" y="957"/>
      <point x="1148" y="1146" type="curve" smooth="yes"/>
      <point x="1148" y="1273"/>
      <point x="1029" y="1378"/>
      <point x="839" y="1378" type="curve" smooth="yes"/>
      <point x="609" y="1378"/>
      <point x="447" y="1223"/>
      <point x="447" y="1014" type="curve" smooth="yes"/>
      <point x="447" y="878"/>
      <point x="506" y="784"/>
      <point x="513" y="772" type="curve"/>
      <point x="324" y="694"/>
      <point x="81" y="543"/>
      <point x="81" y="315" type="curve" smooth="yes"/>
      <point x="81" y="116"/>
      <point x="242" y="-28"/>
    </contour>
    <contour>
      <point x="600" y="121" type="curve" smooth="yes"/>
      <point x="482" y="121"/>
      <point x="369" y="224"/>
      <point x="369" y="385" type="curve" smooth="yes"/>
      <point x="369" y="512"/>
      <point x="463" y="632"/>
      <point x="561" y="672" type="curve"/>
      <point x="651" y="522"/>
      <point x="704" y="414"/>
      <point x="860" y="218" type="curve"/>
      <point x="832" y="191"/>
      <point x="740" y="121"/>
    </contour>
    <contour>
      <point x="765" y="865" type="curve"/>
      <point x="746" y="902"/>
      <point x="672" y="1058"/>
      <point x="672" y="1156" type="curve" smooth="yes"/>
      <point x="672" y="1236"/>
      <point x="712" y="1295"/>
      <point x="786" y="1295" type="curve" smooth="yes"/>
      <point x="883" y="1295"/>
      <point x="941" y="1240"/>
      <point x="941" y="1124" type="curve" smooth="yes" name="hr01"/>
      <point x="941" y="1005"/>
      <point x="823" y="891"/>
    </contour>
  </outline>
</glyph>
<glyph name="quotesingle" format="2">
  <advance width="463"/>
  <unicode hex="0027"/>
  <outline>
    <contour>
      <point x="380" y="1232" type="curve" smooth="yes"/>
      <point x="380" y="1313"/>
      <point x="314" y="1378"/>
      <point x="232" y="1378" type="curve" smooth="yes"/>
      <point x="149" y="1378"/>
      <point x="84" y="1313"/>
      <point x="84" y="1232" type="curve" smooth="yes"/>
      <point x="84" y="1212"/>
      <point x="97" y="1141"/>
      <point x="114" y="1060" type="curve" smooth="yes"/>
      <point x="189" y="718" type="line"/>
      <point x="272" y="718" type="line"/>
      <point x="350" y="1064" type="line" smooth="yes"/>
      <point x="369" y="1144"/>
      <point x="380" y="1212"/>
    </contour>
  </outline>
</glyph>
<glyph name="parenleft" format="2">
  <advance width="892"/>
  <unicode hex="0028"/>
  <outline>
    <contour>
      <point x="807" y="-540" type="curve"/>
      <point x="807" y="-482" type="line"/>
      <point x="480" y="-300"/>
      <point x="453" y="130"/>
      <point x="453" y="502" type="curve" smooth="yes"/>
      <point x="453" y="874"/>
      <point x="482" y="1313"/>
      <point x="807" y="1497" type="curve"/>
      <point x="807" y="1547" type="line"/>
      <point x="404" y="1408"/>
      <point x="137" y="952"/>
      <point x="137" y="502" type="curve" smooth="yes"/>
      <point x="137" y="37"/>
      <point x="410" y="-402"/>
    </contour>
  </outline>
</glyph>
<glyph name="parenright" format="2">
  <advance width="682"/>
  <unicode hex="0029"/>
  <outline>
    <contour>
      <point x="600" y="489" type="curve"/>
      <point x="600" y="894"/>
      <point x="398" y="1248"/>
      <point x="45" y="1424" type="curve"/>
      <point x="45" y="1385" type="line"/>
      <point x="396" y="1158"/>
      <point x="408" y="724"/>
      <point x="408" y="463" type="curve" smooth="yes"/>
      <point x="408" y="17"/>
      <point x="274" y="-281"/>
      <point x="45" y="-402" type="curve"/>
      <point x="45" y="-440" type="line"/>
      <point x="369" y="-297"/>
      <point x="600" y="80"/>
    </contour>
  </outline>
</glyph>
<glyph name="asterisk" format="2">
  <advance width="1026"/>
  <unicode hex="002A"/>
  <outline>
    <contour>
      <point x="881" y="1175" type="curve"/>
      <point x="881" y="1217"/>
      <point x="842" y="1248"/>
      <point x="804" y="1248" type="curve" smooth="yes"/>
      <point x="720" y="1248"/>
      <point x="615" y="1098"/>
      <point x="535" y="1043" type="curve"/>
      <point x="550" y="1133"/>
      <point x="596" y="1235"/>
      <point x="596" y="1320" type="curve" smooth="yes"/>
      <point x="596" y="1366"/>
      <point x="570" y="1424"/>
      <point x="520" y="1424" type="curve" smooth="yes"/>
      <point x="459" y="1424"/>
      <point x="432" y="1370"/>
      <point x="432" y="1318" type="curve" smooth="yes"/>
      <point x="432" y="1257"/>
      <point x="485" y="1126"/>
      <point x="496" y="1043" type="curve"/>
      <point x="425" y="1098"/>
      <point x="307" y="1250"/>
      <point x="220" y="1250" type="curve" smooth="yes"/>
      <point x="177" y="1250"/>
      <point x="146" y="1220"/>
      <point x="146" y="1178" type="curve" smooth="yes"/>
      <point x="146" y="1058"/>
      <point x="391" y="1053"/>
      <point x="474" y="1009" type="curve"/>
      <point x="389" y="981"/>
      <point x="146" y="946"/>
      <point x="146" y="835" type="curve" smooth="yes"/>
      <point x="146" y="795"/>
      <point x="189" y="766"/>
      <point x="227" y="766" type="curve" smooth="yes"/>
      <point x="305" y="766"/>
      <point x="422" y="920"/>
      <point x="497" y="974" type="curve"/>
      <point x="477" y="888"/>
      <point x="432" y="782"/>
      <point x="432" y="697" type="curve" smooth="yes"/>
      <point x="432" y="651"/>
      <point x="458" y="593"/>
      <point x="508" y="593" type="curve" smooth="yes"/>
      <point x="568" y="593"/>
      <point x="596" y="647"/>
      <point x="596" y="700" type="curve" smooth="yes"/>
      <point x="596" y="790"/>
      <point x="535" y="875"/>
      <point x="535" y="973" type="curve"/>
      <point x="605" y="919"/>
      <point x="718" y="767"/>
      <point x="805" y="767" type="curve" smooth="yes"/>
      <point x="846" y="767"/>
      <point x="880" y="797"/>
      <point x="880" y="839" type="curve" smooth="yes"/>
      <point x="880" y="949"/>
      <point x="647" y="971"/>
      <point x="558" y="1009" type="curve"/>
      <point x="642" y="1041"/>
      <point x="881" y="1061"/>
    </contour>
  </outline>
</glyph>
<glyph name="plus" format="2">
  <advance width="1281"/>
  <unicode hex="002B"/>
  <outline>
    <contour>
      <point x="1228" y="514" type="line"/>
      <point x="1228" y="649" type="line"/>
      <point x="707" y="649" type="line"/>
      <point x="707" y="1175" type="line"/>
      <point x="574" y="1175" type="line"/>
      <point x="574" y="649" type="line"/>
      <point x="52" y="649" type="line"/>
      <point x="52" y="514" type="line"/>
      <point x="574" y="514" type="line"/>
      <point x="574" y="0" type="line"/>
      <point x="707" y="0" type="line"/>
      <point x="707" y="514" type="line"/>
    </contour>
  </outline>
</glyph>
<glyph name="comma" format="2">
  <advance width="529"/>
  <unicode hex="002C"/>
  <outline>
    <contour>
      <point x="456" y="57" type="curve" smooth="yes"/>
      <point x="456" y="222"/>
      <point x="360" y="304"/>
      <point x="243" y="304" type="curve" smooth="yes"/>
      <point x="152" y="304"/>
      <point x="78" y="232"/>
      <point x="78" y="140" type="curve" smooth="yes"/>
      <point x="78" y="50"/>
      <point x="152" y="-13"/>
      <point x="243" y="-13" type="curve" smooth="yes"/>
      <point x="283" y="-13"/>
      <point x="298" y="8"/>
      <point x="314" y="8" type="curve" smooth="yes"/>
      <point x="331" y="8"/>
      <point x="335" y="-12"/>
      <point x="335" y="-26" type="curve" smooth="yes" name="hr01"/>
      <point x="335" y="-97"/>
      <point x="290" y="-243"/>
      <point x="116" y="-314" type="curve"/>
      <point x="116" y="-357" type="line"/>
      <point x="319" y="-298"/>
      <point x="456" y="-149"/>
    </contour>
  </outline>
</glyph>
<glyph name="hyphen" format="2">
  <advance width="698"/>
  <unicode hex="002D"/>
  <anchor x="343" y="1000" name="U"/>
  <outline>
    <contour>
      <point x="658" y="368" type="line"/>
      <point x="658" y="566" type="line"/>
      <point x="39" y="566" type="line"/>
      <point x="39" y="368" type="line"/>
    </contour>
  </outline>
</glyph>
<glyph name="hyphenminus" format="2">
  <advance width="682"/>
  <unicode hex="002D"/>
  <anchor x="343" y="1000" name="U"/>
  <outline>
    <contour>
      <point x="83" y="382" type="line"/>
      <point x="600" y="382" type="line"/>
      <point x="600" y="535" type="line"/>
      <point x="83" y="535" type="line"/>
    </contour>
  </outline>
</glyph>
<glyph name="period" format="2">
  <advance width="779"/>
  <unicode hex="002E"/>
  <outline>
    <contour>
      <point x="506" y="140" type="curve" smooth="yes"/>
      <point x="506" y="232"/>
      <point x="430" y="304"/>
      <point x="338" y="304" type="curve" smooth="yes"/>
      <point x="249" y="304"/>
      <point x="173" y="232"/>
      <point x="173" y="140" type="curve" smooth="yes"/>
      <point x="173" y="50"/>
      <point x="249" y="-24"/>
      <point x="338" y="-24" type="curve" smooth="yes"/>
      <point x="430" y="-24"/>
      <point x="506" y="50"/>
    </contour>
  </outline>
</glyph>
<glyph name="slash" format="2">
  <advance width="586"/>
  <unicode hex="002F"/>
  <guideline x="359" y="675" angle="72.4701"/>
  <outline>
    <contour>
      <point x="137" y="-28" type="line"/>
      <point x="581" y="1378" type="line"/>
      <point x="453" y="1378" type="line"/>
      <point x="7" y="-28" type="line"/>
    </contour>
  </outline>
</glyph>
<glyph name="zero" format="2">
  <advance width="1026"/>
  <unicode hex="0030"/>
  <anchor x="513" y="-100" name="L"/>
  <anchor x="513" y="1435" name="U"/>
  <outline>
    <contour>
      <point x="952" y="690" type="curve" smooth="yes"/>
      <point x="952" y="1120"/>
      <point x="747" y="1387"/>
      <point x="517" y="1387" type="curve" smooth="yes"/>
      <point x="283" y="1387"/>
      <point x="74" y="1104"/>
      <point x="74" y="670" type="curve" smooth="yes"/>
      <point x="74" y="320"/>
      <point x="240" y="-24"/>
      <point x="506" y="-24" type="curve" smooth="yes"/>
      <point x="796" y="-24"/>
      <point x="952" y="325"/>
    </contour>
    <contour>
      <point x="757" y="735" type="curve" smooth="yes"/>
      <point x="757" y="210"/>
      <point x="653" y="39"/>
      <point x="511" y="39" type="curve" smooth="yes"/>
      <point x="365" y="39"/>
      <point x="270" y="244"/>
      <point x="270" y="647" type="curve" smooth="yes"/>
      <point x="270" y="1192"/>
      <point x="403" y="1320"/>
      <point x="515" y="1320" type="curve" smooth="yes"/>
      <point x="673" y="1320"/>
      <point x="757" y="1099"/>
    </contour>
  </outline>
</glyph>
<glyph name="one" format="2">
  <advance width="1026"/>
  <unicode hex="0031"/>
  <anchor x="508" y="-100" name="L"/>
  <anchor x="508" y="1435" name="U"/>
  <outline>
    <contour>
      <point x="775" y="0" type="line"/>
      <point x="775" y="38" type="line"/>
      <point x="607" y="38"/>
      <point x="605" y="69"/>
      <point x="605" y="241" type="curve" smooth="yes"/>
      <point x="605" y="1387" type="line"/>
      <point x="570" y="1387" type="line"/>
      <point x="241" y="1225" type="line"/>
      <point x="254" y="1193" type="line"/>
      <point x="422" y="1270"/>
      <point x="440" y="1188"/>
      <point x="440" y="1058" type="curve" smooth="yes"/>
      <point x="440" y="973" type="line"/>
      <point x="440" y="241" type="line" smooth="yes"/>
      <point x="440" y="69"/>
      <point x="435" y="38"/>
      <point x="264" y="38" type="curve"/>
      <point x="264" y="0" type="line"/>
    </contour>
  </outline>
</glyph>
<glyph name="two" format="2">
  <advance width="1038"/>
  <unicode hex="0032"/>
  <anchor x="493" y="-100" name="L"/>
  <anchor x="493" y="1435" name="U"/>
  <outline>
    <contour>
      <point x="72" y="0" type="line"/>
      <point x="842" y="0" type="line"/>
      <point x="982" y="390" type="line"/>
      <point x="903" y="390" type="line"/>
      <point x="850" y="277"/>
      <point x="741" y="259"/>
      <point x="613" y="259" type="curve" smooth="yes"/>
      <point x="368" y="259" type="line"/>
      <point x="446" y="335"/>
      <point x="543" y="407"/>
      <point x="629" y="503" type="curve" smooth="yes"/>
      <point x="753" y="644"/>
      <point x="880" y="796"/>
      <point x="880" y="1024" type="curve" smooth="yes"/>
      <point x="880" y="1210"/>
      <point x="721" y="1378"/>
      <point x="488" y="1378" type="curve" smooth="yes"/>
      <point x="235" y="1378"/>
      <point x="111" y="1170"/>
      <point x="67" y="946" type="curve"/>
      <point x="147" y="946" type="line"/>
      <point x="191" y="1083"/>
      <point x="275" y="1142"/>
      <point x="393" y="1142" type="curve" smooth="yes"/>
      <point x="512" y="1142"/>
      <point x="607" y="1060"/>
      <point x="607" y="926" type="curve" smooth="yes"/>
      <point x="607" y="757"/>
      <point x="536" y="623"/>
      <point x="397" y="450" type="curve" smooth="yes"/>
      <point x="313" y="346"/>
      <point x="204" y="227"/>
      <point x="72" y="79" type="curve"/>
    </contour>
  </outline>
</glyph>
<glyph name="three" format="2">
  <advance width="1038"/>
  <unicode hex="0033"/>
  <anchor x="471" y="-100" name="L"/>
  <anchor x="471" y="1435" name="U"/>
  <outline>
    <contour>
      <point x="378" y="-28" type="curve" smooth="yes"/>
      <point x="695" y="-28"/>
      <point x="931" y="182"/>
      <point x="931" y="473" type="curve" smooth="yes"/>
      <point x="931" y="662"/>
      <point x="817" y="767"/>
      <point x="691" y="823" type="curve"/>
      <point x="787" y="883"/>
      <point x="865" y="972"/>
      <point x="865" y="1096" type="curve" smooth="yes" name="hr01"/>
      <point x="865" y="1272"/>
      <point x="694" y="1378"/>
      <point x="525" y="1378" type="curve" smooth="yes"/>
      <point x="288" y="1378"/>
      <point x="177" y="1201"/>
      <point x="100" y="1030" type="curve"/>
      <point x="162" y="1004" type="line"/>
      <point x="216" y="1100"/>
      <point x="302" y="1179"/>
      <point x="397" y="1179" type="curve" smooth="yes"/>
      <point x="510" y="1179"/>
      <point x="596" y="1090"/>
      <point x="596" y="976" type="curve" smooth="yes"/>
      <point x="596" y="825"/>
      <point x="446" y="751"/>
      <point x="278" y="738" type="curve"/>
      <point x="278" y="658" type="line"/>
      <point x="523" y="639"/>
      <point x="679" y="493"/>
      <point x="679" y="276" type="curve" smooth="yes" name="hr02"/>
      <point x="679" y="170"/>
      <point x="607" y="100"/>
      <point x="502" y="100" type="curve" smooth="yes"/>
      <point x="334" y="100"/>
      <point x="286" y="242"/>
      <point x="173" y="242" type="curve" smooth="yes" name="hr03"/>
      <point x="99" y="242"/>
      <point x="63" y="185"/>
      <point x="63" y="125" type="curve" smooth="yes"/>
      <point x="63" y="1"/>
      <point x="242" y="-28"/>
    </contour>
  </outline>
</glyph>
<glyph name="four" format="2">
  <advance width="1038"/>
  <unicode hex="0034"/>
  <anchor x="492" y="-100" name="L"/>
  <anchor x="492" y="1435" name="U"/>
  <outline>
    <contour>
      <point x="997" y="303" type="line"/>
      <point x="997" y="509" type="line"/>
      <point x="850" y="509" type="line"/>
      <point x="850" y="1378" type="line"/>
      <point x="640" y="1378" type="line"/>
      <point x="34" y="509" type="line"/>
      <point x="34" y="303" type="line"/>
      <point x="576" y="303" type="line"/>
      <point x="576" y="0" type="line"/>
      <point x="850" y="0" type="line"/>
      <point x="850" y="303" type="line"/>
    </contour>
    <contour>
      <point x="576" y="509" type="line"/>
      <point x="183" y="509" type="line"/>
      <point x="576" y="1067" type="line"/>
    </contour>
  </outline>
</glyph>
<glyph name="five" format="2">
  <advance width="1038"/>
  <unicode hex="0035"/>
  <anchor x="494" y="-100" name="L"/>
  <anchor x="494" y="1435" name="U"/>
  <outline>
    <contour>
      <point x="981" y="1348" type="line"/>
      <point x="375" y="1348" type="line"/>
      <point x="91" y="707" type="line"/>
      <point x="426" y="707"/>
      <point x="710" y="596"/>
      <point x="710" y="323" type="curve" smooth="yes"/>
      <point x="710" y="239"/>
      <point x="621" y="112"/>
      <point x="529" y="112" type="curve" smooth="yes"/>
      <point x="338" y="112"/>
      <point x="299" y="271"/>
      <point x="172" y="271" type="curve" smooth="yes" name="hr01"/>
      <point x="92" y="271"/>
      <point x="55" y="210"/>
      <point x="55" y="157" type="curve" smooth="yes"/>
      <point x="55" y="13"/>
      <point x="225" y="-28"/>
      <point x="361" y="-28" type="curve" smooth="yes"/>
      <point x="647" y="-28"/>
      <point x="924" y="209"/>
      <point x="924" y="514" type="curve" smooth="yes"/>
      <point x="924" y="809"/>
      <point x="673" y="954"/>
      <point x="348" y="958" type="curve"/>
      <point x="401" y="1093" type="line"/>
      <point x="878" y="1093" type="line"/>
    </contour>
  </outline>
</glyph>
<glyph name="six" format="2">
  <advance width="1038"/>
  <unicode hex="0036"/>
  <anchor x="519" y="-100" name="L"/>
  <anchor x="519" y="1435" name="U"/>
  <outline>
    <contour>
      <point x="964" y="1300" type="curve"/>
      <point x="964" y="1378" type="line"/>
      <point x="937" y="1378" type="line" smooth="yes"/>
      <point x="436" y="1378"/>
      <point x="78" y="995"/>
      <point x="78" y="520" type="curve" smooth="yes"/>
      <point x="78" y="259"/>
      <point x="242" y="-28"/>
      <point x="515" y="-28" type="curve" smooth="yes"/>
      <point x="798" y="-28"/>
      <point x="958" y="206"/>
      <point x="958" y="464" type="curve" smooth="yes"/>
      <point x="958" y="671"/>
      <point x="832" y="860"/>
      <point x="608" y="860" type="curve" smooth="yes"/>
      <point x="529" y="860"/>
      <point x="462" y="842"/>
      <point x="403" y="803" type="curve"/>
      <point x="455" y="1021"/>
      <point x="611" y="1273"/>
    </contour>
    <contour>
      <point x="677" y="341" type="curve" smooth="yes"/>
      <point x="677" y="130"/>
      <point x="618" y="63"/>
      <point x="562" y="63" type="curve" smooth="yes"/>
      <point x="467" y="63"/>
      <point x="385" y="185"/>
      <point x="385" y="507" type="curve" smooth="yes"/>
      <point x="385" y="555"/>
      <point x="391" y="665"/>
      <point x="391" y="695" type="curve"/>
      <point x="411" y="707"/>
      <point x="451" y="726"/>
      <point x="497" y="726" type="curve" smooth="yes"/>
      <point x="641" y="726"/>
      <point x="677" y="532"/>
    </contour>
  </outline>
</glyph>
<glyph name="seven" format="2">
  <advance width="1026"/>
  <unicode hex="0037"/>
  <anchor x="504" y="-100" name="L"/>
  <anchor x="504" y="1435" name="U"/>
  <outline>
    <contour>
      <point x="931" y="1320" type="line"/>
      <point x="931" y="1357" type="line"/>
      <point x="207" y="1357" type="line"/>
      <point x="75" y="1037" type="line"/>
      <point x="105" y="1027" type="line"/>
      <point x="143" y="1098"/>
      <point x="184" y="1193"/>
      <point x="402" y="1193" type="curve" smooth="yes"/>
      <point x="775" y="1193" type="line"/>
      <point x="369" y="-30" type="line"/>
      <point x="480" y="-30" type="line"/>
    </contour>
  </outline>
</glyph>
<glyph name="eight" format="2">
  <advance width="1026"/>
  <unicode hex="0038"/>
  <anchor x="515" y="-100" name="L"/>
  <anchor x="515" y="1435" name="U"/>
  <outline>
    <contour>
      <point x="907" y="321" type="curve" smooth="yes"/>
      <point x="906" y="524"/>
      <point x="717" y="663"/>
      <point x="598" y="753" type="curve"/>
      <point x="711" y="827"/>
      <point x="877" y="931"/>
      <point x="877" y="1092" type="curve" smooth="yes"/>
      <point x="877" y="1172"/>
      <point x="810" y="1387"/>
      <point x="512" y="1387" type="curve" smooth="yes"/>
      <point x="316" y="1387"/>
      <point x="140" y="1264"/>
      <point x="140" y="1063" type="curve" smooth="yes"/>
      <point x="140" y="882"/>
      <point x="288" y="772"/>
      <point x="396" y="682" type="curve"/>
      <point x="294" y="615"/>
      <point x="122" y="481"/>
      <point x="122" y="310" type="curve" smooth="yes"/>
      <point x="122" y="155"/>
      <point x="258" y="-24"/>
      <point x="512" y="-24" type="curve" smooth="yes"/>
      <point x="828" y="-24"/>
      <point x="907" y="200"/>
    </contour>
    <contour>
      <point x="734" y="1104" type="curve" smooth="yes"/>
      <point x="734" y="946"/>
      <point x="653" y="889"/>
      <point x="551" y="790" type="curve"/>
      <point x="384" y="930"/>
      <point x="286" y="991"/>
      <point x="286" y="1130" type="curve" smooth="yes"/>
      <point x="286" y="1256"/>
      <point x="391" y="1327"/>
      <point x="515" y="1327" type="curve" smooth="yes"/>
      <point x="625" y="1327"/>
      <point x="734" y="1276"/>
    </contour>
    <contour>
      <point x="766" y="241" type="curve" smooth="yes"/>
      <point x="766" y="108"/>
      <point x="655" y="32"/>
      <point x="527" y="32" type="curve" smooth="yes"/>
      <point x="386" y="32"/>
      <point x="276" y="133"/>
      <point x="276" y="314" type="curve" smooth="yes"/>
      <point x="276" y="496"/>
      <point x="387" y="601"/>
      <point x="443" y="647" type="curve"/>
      <point x="564" y="546"/>
      <point x="766" y="412"/>
    </contour>
  </outline>
</glyph>
<glyph name="nine" format="2">
  <advance width="1026"/>
  <unicode hex="0039"/>
  <anchor x="511" y="-100" name="L"/>
  <anchor x="511" y="1435" name="U"/>
  <outline>
    <contour>
      <point x="936" y="827" type="curve" smooth="yes"/>
      <point x="936" y="1086"/>
      <point x="782" y="1387"/>
      <point x="504" y="1387" type="curve" smooth="yes"/>
      <point x="282" y="1387"/>
      <point x="83" y="1185"/>
      <point x="83" y="899" type="curve" smooth="yes"/>
      <point x="83" y="695"/>
      <point x="204" y="496"/>
      <point x="427" y="496" type="curve" smooth="yes"/>
      <point x="515" y="496"/>
      <point x="609" y="527"/>
      <point x="712" y="598" type="curve"/>
      <point x="665" y="411"/>
      <point x="579" y="278"/>
      <point x="480" y="167" type="curve"/>
      <point x="349" y="31"/>
      <point x="179" y="11"/>
      <point x="109" y="8" type="curve"/>
      <point x="109" y="-30" type="line"/>
      <point x="166" y="-30" type="line" smooth="yes"/>
      <point x="452" y="-30"/>
      <point x="657" y="177"/>
      <point x="707" y="239" type="curve"/>
      <point x="860" y="407"/>
      <point x="936" y="603"/>
    </contour>
    <contour>
      <point x="747" y="877" type="curve" smooth="yes"/>
      <point x="747" y="826"/>
      <point x="739" y="757"/>
      <point x="728" y="670" type="curve"/>
      <point x="702" y="635"/>
      <point x="587" y="585"/>
      <point x="508" y="585" type="curve" smooth="yes"/>
      <point x="360" y="585"/>
      <point x="260" y="756"/>
      <point x="260" y="1004" type="curve" smooth="yes"/>
      <point x="260" y="1209"/>
      <point x="362" y="1317"/>
      <point x="481" y="1320" type="curve"/>
      <point x="601" y="1325"/>
      <point x="747" y="1171"/>
    </contour>
  </outline>
</glyph>
<glyph name="colon" format="2">
  <advance width="1117"/>
  <unicode hex="003A"/>
  <outline>
    <contour>
      <point x="759" y="957" type="curve" smooth="yes"/>
      <point x="759" y="1067"/>
      <point x="668" y="1156"/>
      <point x="558" y="1156" type="curve" smooth="yes"/>
      <point x="449" y="1156"/>
      <point x="358" y="1067"/>
      <point x="358" y="957" type="curve" smooth="yes"/>
      <point x="358" y="848"/>
      <point x="449" y="757"/>
      <point x="558" y="757" type="curve" smooth="yes"/>
      <point x="668" y="757"/>
      <point x="759" y="848"/>
    </contour>
    <contour>
      <point x="759" y="170" type="curve" smooth="yes"/>
      <point x="759" y="280"/>
      <point x="668" y="368"/>
      <point x="558" y="368" type="curve" smooth="yes"/>
      <point x="449" y="368"/>
      <point x="358" y="280"/>
      <point x="358" y="170" type="curve" smooth="yes"/>
      <point x="358" y="60"/>
      <point x="449" y="-28"/>
      <point x="558" y="-28" type="curve" smooth="yes"/>
      <point x="668" y="-28"/>
      <point x="759" y="60"/>
    </contour>
  </outline>
</glyph>
<glyph name="semicolon" format="2">
  <advance width="737"/>
  <unicode hex="003B"/>
  <outline>
    <contour>
      <point x="610" y="957" type="curve" smooth="yes"/>
      <point x="610" y="1067"/>
      <point x="521" y="1156"/>
      <point x="411" y="1156" type="curve" smooth="yes"/>
      <point x="301" y="1156"/>
      <point x="212" y="1067"/>
      <point x="212" y="957" type="curve" smooth="yes"/>
      <point x="212" y="848"/>
      <point x="301" y="757"/>
      <point x="411" y="757" type="curve" smooth="yes"/>
      <point x="521" y="757"/>
      <point x="610" y="848"/>
    </contour>
    <contour>
      <point x="641" y="68" type="curve" smooth="yes"/>
      <point x="641" y="268"/>
      <point x="524" y="368"/>
      <point x="382" y="368" type="curve" smooth="yes"/>
      <point x="273" y="368"/>
      <point x="183" y="280"/>
      <point x="183" y="170" type="curve" smooth="yes"/>
      <point x="183" y="60"/>
      <point x="273" y="-16"/>
      <point x="382" y="-16" type="curve" smooth="yes"/>
      <point x="432" y="-16"/>
      <point x="449" y="11"/>
      <point x="468" y="11" type="curve" smooth="yes"/>
      <point x="489" y="11"/>
      <point x="495" y="-14"/>
      <point x="495" y="-31" type="curve" smooth="yes" name="hr01"/>
      <point x="495" y="-117"/>
      <point x="440" y="-293"/>
      <point x="229" y="-379" type="curve"/>
      <point x="229" y="-432" type="line"/>
      <point x="475" y="-360"/>
      <point x="641" y="-180"/>
    </contour>
  </outline>
</glyph>
<glyph name="less" format="2">
  <advance width="1972"/>
  <unicode hex="003C"/>
  <outline>
    <contour>
      <point x="396" y="530" type="line"/>
      <point x="1577" y="77" type="line"/>
      <point x="1577" y="199" type="line"/>
      <point x="521" y="591" type="line"/>
      <point x="1577" y="984" type="line"/>
      <point x="1577" y="1106" type="line"/>
      <point x="396" y="653" type="line"/>
    </contour>
  </outline>
</glyph>
<glyph name="equal" format="2">
  <advance width="1235"/>
  <unicode hex="003D"/>
  <outline>
    <contour>
      <point x="66" y="706" type="line"/>
      <point x="1169" y="706" type="line"/>
      <point x="1169" y="840" type="line"/>
      <point x="66" y="840" type="line"/>
    </contour>
    <contour>
      <point x="66" y="336" type="line"/>
      <point x="1169" y="336" type="line"/>
      <point x="1169" y="470" type="line"/>
      <point x="66" y="470" type="line"/>
    </contour>
  </outline>
</glyph>
<glyph name="greater" format="2">
  <advance width="1960"/>
  <unicode hex="003E"/>
  <outline>
    <contour>
      <point x="391" y="77" type="line"/>
      <point x="1568" y="528" type="line"/>
      <point x="1568" y="649" type="line"/>
      <point x="391" y="1100" type="line"/>
      <point x="391" y="944" type="line"/>
      <point x="1360" y="587" type="line"/>
      <point x="391" y="231" type="line"/>
    </contour>
  </outline>
</glyph>
<glyph name="question" format="2">
  <advance width="950"/>
  <unicode hex="003F"/>
  <outline>
    <contour>
      <point x="870" y="1062" type="curve" smooth="yes"/>
      <point x="870" y="1280"/>
      <point x="699" y="1378"/>
      <point x="490" y="1378" type="curve" smooth="yes"/>
      <point x="193" y="1378"/>
      <point x="92" y="1196"/>
      <point x="92" y="1056" type="curve" smooth="yes"/>
      <point x="92" y="969"/>
      <point x="154" y="905"/>
      <point x="245" y="905" type="curve" smooth="yes"/>
      <point x="311" y="905"/>
      <point x="354" y="958"/>
      <point x="354" y="1018" type="curve" smooth="yes"/>
      <point x="354" y="1090"/>
      <point x="292" y="1170"/>
      <point x="292" y="1210" type="curve" smooth="yes"/>
      <point x="292" y="1255"/>
      <point x="356" y="1287"/>
      <point x="420" y="1287" type="curve" smooth="yes" name="hr01"/>
      <point x="529" y="1287"/>
      <point x="586" y="1207"/>
      <point x="586" y="1051" type="curve" smooth="yes"/>
      <point x="586" y="961"/>
      <point x="568" y="873"/>
      <point x="514" y="763" type="curve" smooth="yes"/>
      <point x="444" y="620"/>
      <point x="413" y="529"/>
      <point x="413" y="401" type="curve"/>
      <point x="492" y="401" type="line"/>
      <point x="492" y="640"/>
      <point x="870" y="825"/>
    </contour>
    <contour>
      <point x="602" y="121" type="curve" name="hr02"/>
      <point x="602" y="205"/>
      <point x="533" y="275"/>
      <point x="449" y="275" type="curve" smooth="yes"/>
      <point x="367" y="275"/>
      <point x="299" y="205"/>
      <point x="299" y="121" type="curve" smooth="yes"/>
      <point x="299" y="39"/>
      <point x="367" y="-28"/>
      <point x="449" y="-28" type="curve" smooth="yes"/>
      <point x="533" y="-28"/>
      <point x="602" y="39"/>
    </contour>
  </outline>
</glyph>
<glyph name="at" format="2">
  <advance width="1895"/>
  <unicode hex="0040"/>
  <outline>
    <contour>
      <point x="970" y="-441" type="curve" smooth="yes"/>
      <point x="1388" y="-441"/>
      <point x="1709" y="-202"/>
      <point x="1850" y="165" type="curve"/>
      <point x="1789" y="165" type="line"/>
      <point x="1672" y="-158"/>
      <point x="1360" y="-383"/>
      <point x="981" y="-383" type="curve" smooth="yes"/>
      <point x="550" y="-383"/>
      <point x="193" y="-85"/>
      <point x="193" y="385" type="curve" smooth="yes"/>
      <point x="193" y="884"/>
      <point x="536" y="1315"/>
      <point x="1082" y="1315" type="curve" smooth="yes"/>
      <point x="1460" y="1315"/>
      <point x="1713" y="1048"/>
      <point x="1713" y="701" type="curve" smooth="yes"/>
      <point x="1713" y="370"/>
      <point x="1481" y="81"/>
      <point x="1288" y="81" type="curve" smooth="yes"/>
      <point x="1233" y="81"/>
      <point x="1203" y="123"/>
      <point x="1203" y="161" type="curve" smooth="yes"/>
      <point x="1203" y="259"/>
      <point x="1249" y="374"/>
      <point x="1420" y="943" type="curve"/>
      <point x="1175" y="921" type="line"/>
      <point x="1139" y="807" type="line"/>
      <point x="1136" y="842"/>
      <point x="1120" y="958"/>
      <point x="1002" y="958" type="curve" smooth="yes"/>
      <point x="771" y="958"/>
      <point x="482" y="565"/>
      <point x="482" y="223" type="curve" smooth="yes"/>
      <point x="482" y="116"/>
      <point x="529" y="0"/>
      <point x="645" y="0" type="curve" smooth="yes"/>
      <point x="805" y="0"/>
      <point x="899" y="160"/>
      <point x="995" y="314" type="curve"/>
      <point x="943" y="122"/>
      <point x="974" y="0"/>
      <point x="1173" y="0" type="curve" smooth="yes"/>
      <point x="1524" y="0"/>
      <point x="1769" y="332"/>
      <point x="1769" y="699" type="curve" smooth="yes"/>
      <point x="1769" y="1099"/>
      <point x="1495" y="1378"/>
      <point x="1002" y="1378" type="curve" smooth="yes"/>
      <point x="450" y="1378"/>
      <point x="92" y="955"/>
      <point x="92" y="431" type="curve" smooth="yes"/>
      <point x="92" y="-119"/>
      <point x="486" y="-441"/>
    </contour>
    <contour>
      <point x="792" y="184" type="curve" smooth="yes" name="hr01"/>
      <point x="759" y="184"/>
      <point x="740" y="233"/>
      <point x="740" y="272" type="curve" smooth="yes"/>
      <point x="740" y="420"/>
      <point x="883" y="886"/>
      <point x="1025" y="886" type="curve" smooth="yes"/>
      <point x="1078" y="886"/>
      <point x="1094" y="810"/>
      <point x="1094" y="751" type="curve" smooth="yes"/>
      <point x="1094" y="512"/>
      <point x="899" y="184"/>
    </contour>
  </outline>
</glyph>
<glyph name="A" format="2">
  <advance width="1472"/>
  <unicode hex="0041"/>
  <anchor x="744" y="-112" name="L"/>
  <anchor x="735" y="1435" name="U"/>
  <outline>
    <contour>
      <point x="1460" y="0" type="line"/>
      <point x="1460" y="79" type="line"/>
      <point x="1391" y="81"/>
      <point x="1304" y="119"/>
      <point x="1252" y="238" type="curve" smooth="yes"/>
      <point x="752" y="1378" type="line"/>
      <point x="673" y="1378" type="line"/>
      <point x="223" y="283" type="line" smooth="yes"/>
      <point x="157" y="124"/>
      <point x="106" y="96"/>
      <point x="15" y="79" type="curve"/>
      <point x="15" y="0" type="line"/>
      <point x="517" y="0" type="line"/>
      <point x="517" y="79" type="line"/>
      <point x="393" y="86"/>
      <point x="337" y="118"/>
      <point x="337" y="185" type="curve" smooth="yes"/>
      <point x="337" y="213"/>
      <point x="405" y="379"/>
      <point x="416" y="410" type="curve"/>
      <point x="849" y="410" type="line"/>
      <point x="936" y="213"/>
      <point x="943" y="162"/>
      <point x="943" y="143" type="curve" smooth="yes"/>
      <point x="943" y="97"/>
      <point x="903" y="79"/>
      <point x="785" y="79" type="curve"/>
      <point x="785" y="0" type="line"/>
    </contour>
    <contour>
      <point x="459" y="526" type="line"/>
      <point x="619" y="924" type="line"/>
      <point x="797" y="526" type="line"/>
    </contour>
  </outline>
</glyph>
<glyph name="B" format="2">
  <advance width="1360"/>
  <unicode hex="0042"/>
  <anchor x="645" y="-100" name="L"/>
  <anchor x="645" y="1435" name="U"/>
  <outline>
    <contour>
      <point x="1288" y="368" type="curve" smooth="yes"/>
      <point x="1288" y="545"/>
      <point x="1175" y="662"/>
      <point x="904" y="717" type="curve"/>
      <point x="1188" y="786"/>
      <point x="1223" y="896"/>
      <point x="1223" y="1034" type="curve" smooth="yes" name="hr01"/>
      <point x="1223" y="1169"/>
      <point x="1100" y="1348"/>
      <point x="793" y="1348" type="curve" smooth="yes"/>
      <point x="40" y="1348" type="line"/>
      <point x="40" y="1269" type="line" name="hr02"/>
      <point x="203" y="1269"/>
      <point x="232" y="1221"/>
      <point x="232" y="1082" type="curve" smooth="yes"/>
      <point x="232" y="266" type="line" smooth="yes"/>
      <point x="232" y="127"/>
      <point x="203" y="79"/>
      <point x="40" y="79" type="curve"/>
      <point x="40" y="0" type="line"/>
      <point x="784" y="0" type="line" smooth="yes"/>
      <point x="1038" y="0"/>
      <point x="1288" y="125"/>
    </contour>
    <contour>
      <point x="654" y="117" type="curve" smooth="yes"/>
      <point x="580" y="117"/>
      <point x="545" y="139"/>
      <point x="545" y="235" type="curve" smooth="yes"/>
      <point x="545" y="645" type="line"/>
      <point x="557" y="647"/>
      <point x="579" y="649"/>
      <point x="609" y="649" type="curve" smooth="yes"/>
      <point x="816" y="649"/>
      <point x="937" y="562"/>
      <point x="937" y="358" type="curve" smooth="yes" name="hr04"/>
      <point x="937" y="156"/>
      <point x="779" y="117"/>
    </contour>
    <contour>
      <point x="609" y="757" type="curve" smooth="yes"/>
      <point x="579" y="757"/>
      <point x="554" y="760"/>
      <point x="545" y="760" type="curve"/>
      <point x="545" y="1223" type="line"/>
      <point x="561" y="1226"/>
      <point x="579" y="1229"/>
      <point x="609" y="1229" type="curve" smooth="yes"/>
      <point x="823" y="1229"/>
      <point x="891" y="1156"/>
      <point x="891" y="1008" type="curve" smooth="yes" name="hr03"/>
      <point x="891" y="855"/>
      <point x="799" y="757"/>
    </contour>
  </outline>
</glyph>
<glyph name="C" format="2">
  <advance width="1472"/>
  <unicode hex="0043"/>
  <anchor x="724" y="20" name="H"/>
  <anchor x="791" y="-100" name="L"/>
  <anchor x="791" y="1435" name="U"/>
  <outline>
    <contour>
      <point x="93" y="647" type="curve" smooth="yes"/>
      <point x="93" y="295"/>
      <point x="323" y="-28"/>
      <point x="806" y="-28" type="curve" smooth="yes"/>
      <point x="1146" y="-28"/>
      <point x="1311" y="185"/>
      <point x="1393" y="327" type="curve"/>
      <point x="1321" y="383" type="line"/>
      <point x="1229" y="243"/>
      <point x="1084" y="90"/>
      <point x="872" y="90" type="curve" smooth="yes"/>
      <point x="613" y="90"/>
      <point x="436" y="305"/>
      <point x="436" y="647" type="curve" smooth="yes"/>
      <point x="436" y="990"/>
      <point x="559" y="1265"/>
      <point x="836" y="1265" type="curve" smooth="yes"/>
      <point x="1016" y="1265"/>
      <point x="1212" y="1114"/>
      <point x="1269" y="860" type="curve"/>
      <point x="1348" y="860" type="line"/>
      <point x="1318" y="1380" type="line" name="hr01"/>
      <point x="1241" y="1380" type="line"/>
      <point x="1225" y="1326"/>
      <point x="1222" y="1280"/>
      <point x="1167" y="1280" type="curve" smooth="yes"/>
      <point x="1127" y="1280"/>
      <point x="994" y="1378"/>
      <point x="787" y="1378" type="curve" smooth="yes" name="hr02"/>
      <point x="328" y="1378"/>
      <point x="93" y="1001"/>
    </contour>
  </outline>
</glyph>
<glyph name="D" format="2">
  <advance width="1458"/>
  <unicode hex="0044"/>
  <anchor x="719" y="-100" name="L"/>
  <anchor x="719" y="1435" name="U"/>
  <outline>
    <contour>
      <point x="1375" y="674" type="curve" smooth="yes"/>
      <point x="1375" y="1045"/>
      <point x="1126" y="1348"/>
      <point x="701" y="1348" type="curve" smooth="yes"/>
      <point x="27" y="1348" type="line"/>
      <point x="27" y="1269" type="line" name="hr01"/>
      <point x="190" y="1269"/>
      <point x="217" y="1221"/>
      <point x="217" y="1082" type="curve" smooth="yes"/>
      <point x="217" y="266" type="line" smooth="yes"/>
      <point x="217" y="127"/>
      <point x="190" y="79"/>
      <point x="27" y="79" type="curve"/>
      <point x="27" y="0" type="line"/>
      <point x="701" y="0" type="line" smooth="yes"/>
      <point x="1126" y="0"/>
      <point x="1375" y="290"/>
    </contour>
    <contour>
      <point x="1016" y="674" type="curve" smooth="yes"/>
      <point x="1016" y="407"/>
      <point x="936" y="114"/>
      <point x="658" y="114" type="curve" smooth="yes" name="hr02"/>
      <point x="601" y="114"/>
      <point x="554" y="121"/>
      <point x="532" y="134" type="curve"/>
      <point x="532" y="1226" type="line"/>
      <point x="541" y="1227"/>
      <point x="563" y="1232"/>
      <point x="609" y="1232" type="curve" smooth="yes"/>
      <point x="928" y="1232"/>
      <point x="1016" y="931"/>
    </contour>
  </outline>
</glyph>
<glyph name="E" format="2">
  <advance width="1339"/>
  <unicode hex="0045"/>
  <anchor x="664" y="-100" name="L"/>
  <anchor x="664" y="1435" name="U"/>
  <outline>
    <contour>
      <point x="1246" y="390" type="line"/>
      <point x="1163" y="390" type="line"/>
      <point x="1056" y="199"/>
      <point x="1001" y="113"/>
      <point x="765" y="113" type="curve" smooth="yes"/>
      <point x="658" y="113" type="line" smooth="yes"/>
      <point x="547" y="113"/>
      <point x="545" y="173"/>
      <point x="545" y="278" type="curve" smooth="yes"/>
      <point x="545" y="629" type="line"/>
      <point x="666" y="629" type="line" smooth="yes"/>
      <point x="833" y="629"/>
      <point x="858" y="572"/>
      <point x="880" y="414" type="curve"/>
      <point x="959" y="414" type="line"/>
      <point x="959" y="977" type="line"/>
      <point x="880" y="977" type="line"/>
      <point x="858" y="820"/>
      <point x="831" y="744"/>
      <point x="666" y="744" type="curve" smooth="yes"/>
      <point x="545" y="744" type="line"/>
      <point x="545" y="1232" type="line"/>
      <point x="797" y="1232" type="line" smooth="yes"/>
      <point x="997" y="1232"/>
      <point x="1014" y="1159"/>
      <point x="1060" y="985" type="curve"/>
      <point x="1136" y="985" type="line"/>
      <point x="1120" y="1348" type="line"/>
      <point x="44" y="1348" type="line"/>
      <point x="44" y="1271" type="line" name="hr01"/>
      <point x="216" y="1271"/>
      <point x="235" y="1228"/>
      <point x="235" y="1061" type="curve" smooth="yes"/>
      <point x="235" y="291" type="line" smooth="yes"/>
      <point x="235" y="126"/>
      <point x="211" y="79"/>
      <point x="44" y="79" type="curve"/>
      <point x="44" y="0" type="line"/>
      <point x="1107" y="0" type="line"/>
    </contour>
  </outline>
</glyph>
<glyph name="F" format="2">
  <advance width="1239"/>
  <unicode hex="0046"/>
  <anchor x="545" y="-100" name="L"/>
  <anchor x="545" y="1435" name="U"/>
  <outline>
    <contour>
      <point x="1136" y="985" type="line"/>
      <point x="1122" y="1348" type="line"/>
      <point x="40" y="1348" type="line"/>
      <point x="40" y="1269" type="line" name="hr01"/>
      <point x="203" y="1269"/>
      <point x="232" y="1221"/>
      <point x="232" y="1082" type="curve" smooth="yes"/>
      <point x="232" y="266" type="line" smooth="yes"/>
      <point x="232" y="127"/>
      <point x="203" y="79"/>
      <point x="40" y="79" type="curve"/>
      <point x="40" y="0" type="line"/>
      <point x="738" y="0" type="line"/>
      <point x="738" y="79" type="line"/>
      <point x="565" y="79"/>
      <point x="545" y="136"/>
      <point x="545" y="266" type="curve" smooth="yes"/>
      <point x="545" y="629" type="line"/>
      <point x="668" y="629" type="line" smooth="yes"/>
      <point x="833" y="629"/>
      <point x="858" y="572"/>
      <point x="878" y="414" type="curve"/>
      <point x="959" y="414" type="line"/>
      <point x="959" y="977" type="line"/>
      <point x="880" y="977" type="line"/>
      <point x="858" y="820"/>
      <point x="831" y="744"/>
      <point x="668" y="744" type="curve" smooth="yes"/>
      <point x="545" y="744" type="line"/>
      <point x="545" y="1232" type="line" name="hr02"/>
      <point x="796" y="1232" type="line" smooth="yes"/>
      <point x="997" y="1232"/>
      <point x="1014" y="1159"/>
      <point x="1058" y="985" type="curve"/>
    </contour>
  </outline>
</glyph>
<glyph name="G" format="2">
  <advance width="1586"/>
  <unicode hex="0047"/>
  <anchor x="760" y="-100" name="L"/>
  <anchor x="760" y="1435" name="U"/>
  <outline>
    <contour>
      <point x="1558" y="658" type="curve"/>
      <point x="1558" y="738" type="line"/>
      <point x="913" y="738" type="line"/>
      <point x="913" y="658" type="line"/>
      <point x="1053" y="658"/>
      <point x="1086" y="609"/>
      <point x="1086" y="470" type="curve" smooth="yes"/>
      <point x="1086" y="133" type="line"/>
      <point x="1021" y="86"/>
      <point x="957" y="74"/>
      <point x="864" y="74" type="curve" smooth="yes"/>
      <point x="515" y="74"/>
      <point x="434" y="371"/>
      <point x="434" y="674" type="curve" smooth="yes"/>
      <point x="434" y="1016"/>
      <point x="568" y="1273"/>
      <point x="880" y="1273" type="curve" smooth="yes"/>
      <point x="1074" y="1273"/>
      <point x="1256" y="1134"/>
      <point x="1321" y="895" type="curve"/>
      <point x="1399" y="895" type="line"/>
      <point x="1359" y="1380" type="line" name="hr01"/>
      <point x="1282" y="1380" type="line"/>
      <point x="1276" y="1357"/>
      <point x="1276" y="1280"/>
      <point x="1236" y="1280" type="curve" smooth="yes"/>
      <point x="1174" y="1280"/>
      <point x="1036" y="1378"/>
      <point x="819" y="1378" type="curve" smooth="yes" name="hr02"/>
      <point x="354" y="1378"/>
      <point x="77" y="1027"/>
      <point x="77" y="674" type="curve" smooth="yes"/>
      <point x="77" y="322"/>
      <point x="311" y="-28"/>
      <point x="811" y="-28" type="curve" smooth="yes"/>
      <point x="1045" y="-28"/>
      <point x="1232" y="12"/>
      <point x="1399" y="112" type="curve"/>
      <point x="1399" y="470" type="line" smooth="yes"/>
      <point x="1399" y="609"/>
      <point x="1420" y="658"/>
    </contour>
  </outline>
</glyph>
<glyph name="H" format="2">
  <advance width="1584"/>
  <unicode hex="0048"/>
  <anchor x="737" y="-100" name="L"/>
  <anchor x="737" y="1435" name="U"/>
  <outline>
    <contour>
      <point x="1546" y="0" type="line"/>
      <point x="1546" y="79" type="line"/>
      <point x="1384" y="79"/>
      <point x="1357" y="127"/>
      <point x="1357" y="266" type="curve" smooth="yes"/>
      <point x="1357" y="1082" type="line" smooth="yes"/>
      <point x="1357" y="1221"/>
      <point x="1384" y="1269"/>
      <point x="1546" y="1269" type="curve"/>
      <point x="1546" y="1348" type="line"/>
      <point x="852" y="1348" type="line"/>
      <point x="852" y="1269" type="line"/>
      <point x="1016" y="1269"/>
      <point x="1043" y="1221"/>
      <point x="1043" y="1082" type="curve" smooth="yes"/>
      <point x="1043" y="734" type="line"/>
      <point x="542" y="734" type="line"/>
      <point x="542" y="1082" type="line" smooth="yes"/>
      <point x="542" y="1221"/>
      <point x="569" y="1269"/>
      <point x="733" y="1269" type="curve"/>
      <point x="733" y="1348" type="line"/>
      <point x="39" y="1348" type="line"/>
      <point x="39" y="1269" type="line"/>
      <point x="202" y="1269"/>
      <point x="229" y="1221"/>
      <point x="229" y="1082" type="curve" smooth="yes"/>
      <point x="229" y="266" type="line" smooth="yes"/>
      <point x="229" y="127"/>
      <point x="202" y="79"/>
      <point x="39" y="79" type="curve"/>
      <point x="39" y="0" type="line"/>
      <point x="733" y="0" type="line"/>
      <point x="733" y="79" type="line"/>
      <point x="569" y="79"/>
      <point x="542" y="127"/>
      <point x="542" y="266" type="curve" smooth="yes"/>
      <point x="542" y="609" type="line"/>
      <point x="1043" y="609" type="line"/>
      <point x="1043" y="266" type="line" smooth="yes"/>
      <point x="1043" y="127"/>
      <point x="1016" y="79"/>
      <point x="852" y="79" type="curve"/>
      <point x="852" y="0" type="line"/>
    </contour>
  </outline>
</glyph>
<glyph name="I" format="2">
  <advance width="776"/>
  <unicode hex="0049"/>
  <anchor x="392" y="-100" name="L"/>
  <anchor x="392" y="1435" name="U"/>
  <outline>
    <contour>
      <point x="734" y="0" type="line"/>
      <point x="734" y="79" type="line"/>
      <point x="573" y="79"/>
      <point x="545" y="114"/>
      <point x="545" y="253" type="curve" smooth="yes"/>
      <point x="545" y="1082" type="line" smooth="yes"/>
      <point x="545" y="1221"/>
      <point x="573" y="1269"/>
      <point x="734" y="1269" type="curve"/>
      <point x="734" y="1348" type="line"/>
      <point x="40" y="1348" type="line"/>
      <point x="40" y="1269" type="line"/>
      <point x="203" y="1269"/>
      <point x="232" y="1221"/>
      <point x="232" y="1082" type="curve" smooth="yes"/>
      <point x="232" y="253" type="line" smooth="yes"/>
      <point x="232" y="114"/>
      <point x="203" y="79"/>
      <point x="40" y="79" type="curve"/>
      <point x="40" y="0" type="line"/>
    </contour>
  </outline>
</glyph>
<glyph name="J" format="2">
  <advance width="1018"/>
  <unicode hex="004A"/>
  <anchor x="413" y="-100" name="L"/>
  <anchor x="496" y="1435" name="U"/>
  <outline>
    <contour>
      <point x="1008" y="1269" type="curve"/>
      <point x="1008" y="1348" type="line"/>
      <point x="299" y="1348" type="line"/>
      <point x="299" y="1269" type="line"/>
      <point x="462" y="1269"/>
      <point x="503" y="1221"/>
      <point x="503" y="1082" type="curve" smooth="yes"/>
      <point x="503" y="272" type="line" smooth="yes"/>
      <point x="503" y="154"/>
      <point x="469" y="74"/>
      <point x="411" y="74" type="curve" smooth="yes"/>
      <point x="279" y="74"/>
      <point x="375" y="337"/>
      <point x="169" y="337" type="curve" smooth="yes" name="hr01"/>
      <point x="103" y="337"/>
      <point x="48" y="283"/>
      <point x="48" y="196" type="curve" smooth="yes"/>
      <point x="48" y="70"/>
      <point x="165" y="-28"/>
      <point x="364" y="-28" type="curve" smooth="yes"/>
      <point x="566" y="-28"/>
      <point x="817" y="111"/>
      <point x="817" y="539" type="curve" smooth="yes"/>
      <point x="817" y="1082" type="line" smooth="yes"/>
      <point x="817" y="1221"/>
      <point x="844" y="1269"/>
    </contour>
  </outline>
</glyph>
<glyph name="K" format="2">
  <advance width="1582"/>
  <unicode hex="004B"/>
  <anchor x="766" y="-100" name="L"/>
  <anchor x="766" y="1435" name="U"/>
  <outline>
    <contour>
      <point x="1608" y="0" type="line"/>
      <point x="1608" y="79" type="line"/>
      <point x="1540" y="79"/>
      <point x="1434" y="116"/>
      <point x="1313" y="243" type="curve" smooth="yes"/>
      <point x="793" y="784" type="line"/>
      <point x="1183" y="1185" type="line" smooth="yes"/>
      <point x="1251" y="1256"/>
      <point x="1298" y="1269"/>
      <point x="1417" y="1269" type="curve"/>
      <point x="1417" y="1348" type="line"/>
      <point x="853" y="1348" type="line"/>
      <point x="853" y="1269" type="line"/>
      <point x="943" y="1269"/>
      <point x="983" y="1265"/>
      <point x="983" y="1212" type="curve" smooth="yes"/>
      <point x="983" y="1156"/>
      <point x="578" y="798"/>
      <point x="545" y="765" type="curve"/>
      <point x="545" y="1082" type="line" smooth="yes"/>
      <point x="545" y="1221"/>
      <point x="569" y="1269"/>
      <point x="701" y="1269" type="curve"/>
      <point x="701" y="1348" type="line"/>
      <point x="40" y="1348" type="line"/>
      <point x="40" y="1269" type="line"/>
      <point x="203" y="1269"/>
      <point x="232" y="1221"/>
      <point x="232" y="1082" type="curve" smooth="yes" name="hr01"/>
      <point x="232" y="266" type="line" smooth="yes"/>
      <point x="232" y="127"/>
      <point x="203" y="79"/>
      <point x="40" y="79" type="curve"/>
      <point x="40" y="0" type="line"/>
      <point x="708" y="0" type="line"/>
      <point x="708" y="79" type="line"/>
      <point x="573" y="79"/>
      <point x="545" y="127"/>
      <point x="545" y="266" type="curve" smooth="yes"/>
      <point x="545" y="568" type="line"/>
      <point x="580" y="599" type="line"/>
      <point x="939" y="218" type="line" smooth="yes"/>
      <point x="964" y="191"/>
      <point x="970" y="160"/>
      <point x="970" y="138" type="curve" smooth="yes"/>
      <point x="970" y="103"/>
      <point x="938" y="79"/>
      <point x="864" y="79" type="curve"/>
      <point x="864" y="0" type="line"/>
    </contour>
  </outline>
</glyph>
<glyph name="L" format="2">
  <advance width="1339"/>
  <unicode hex="004C"/>
  <anchor x="624" y="-100" name="L"/>
  <anchor x="624" y="1435" name="U"/>
  <outline>
    <contour>
      <point x="1311" y="473" type="line"/>
      <point x="1232" y="473" type="line"/>
      <point x="1122" y="191"/>
      <point x="1007" y="117"/>
      <point x="866" y="117" type="curve" smooth="yes"/>
      <point x="763" y="117" type="line" smooth="yes"/>
      <point x="561" y="117"/>
      <point x="542" y="147"/>
      <point x="542" y="266" type="curve" smooth="yes"/>
      <point x="542" y="1082" type="line" smooth="yes"/>
      <point x="542" y="1221"/>
      <point x="586" y="1269"/>
      <point x="748" y="1269" type="curve"/>
      <point x="748" y="1348" type="line"/>
      <point x="39" y="1348" type="line"/>
      <point x="39" y="1269" type="line"/>
      <point x="202" y="1269"/>
      <point x="229" y="1221"/>
      <point x="229" y="1082" type="curve" smooth="yes"/>
      <point x="229" y="266" type="line" smooth="yes"/>
      <point x="229" y="127"/>
      <point x="202" y="79"/>
      <point x="39" y="79" type="curve" name="hr01"/>
      <point x="39" y="0" type="line"/>
      <point x="1167" y="0" type="line"/>
    </contour>
  </outline>
</glyph>
<glyph name="M" format="2">
  <advance width="1915"/>
  <unicode hex="004D"/>
  <anchor x="927" y="-100" name="L"/>
  <anchor x="927" y="1435" name="U"/>
  <outline>
    <contour>
      <point x="1878" y="0" type="line"/>
      <point x="1878" y="79" type="line"/>
      <point x="1716" y="79"/>
      <point x="1685" y="101"/>
      <point x="1685" y="239" type="curve" smooth="yes"/>
      <point x="1685" y="1095" type="line" smooth="yes"/>
      <point x="1685" y="1234"/>
      <point x="1716" y="1269"/>
      <point x="1878" y="1269" type="curve"/>
      <point x="1878" y="1348" type="line"/>
      <point x="1350" y="1348" type="line"/>
      <point x="946" y="460" type="line"/>
      <point x="585" y="1348" type="line"/>
      <point x="40" y="1348" type="line"/>
      <point x="40" y="1269" type="line"/>
      <point x="203" y="1269"/>
      <point x="205" y="1234"/>
      <point x="205" y="1095" type="curve" smooth="yes"/>
      <point x="205" y="239" type="line" smooth="yes"/>
      <point x="205" y="92"/>
      <point x="139" y="79"/>
      <point x="14" y="79" type="curve"/>
      <point x="14" y="0" type="line"/>
      <point x="528" y="0" type="line"/>
      <point x="528" y="79" type="line"/>
      <point x="397" y="79"/>
      <point x="331" y="92"/>
      <point x="331" y="239" type="curve" smooth="yes"/>
      <point x="331" y="1141" type="line"/>
      <point x="818" y="0" type="line"/>
      <point x="882" y="0" type="line"/>
      <point x="1372" y="1107" type="line"/>
      <point x="1372" y="239" type="line" smooth="yes"/>
      <point x="1372" y="101"/>
      <point x="1318" y="79"/>
      <point x="1156" y="79" type="curve"/>
      <point x="1156" y="0" type="line"/>
    </contour>
  </outline>
</glyph>
<glyph name="N" format="2">
  <advance width="1425"/>
  <unicode hex="004E"/>
  <anchor x="731" y="-100" name="L"/>
  <anchor x="731" y="1435" name="U"/>
  <outline>
    <contour>
      <point x="1119" y="-20" type="line" name="hr01"/>
      <point x="1235" y="-20" type="line"/>
      <point x="1235" y="1124" type="line" smooth="yes"/>
      <point x="1235" y="1246"/>
      <point x="1262" y="1269"/>
      <point x="1388" y="1269" type="curve"/>
      <point x="1388" y="1348" type="line"/>
      <point x="942" y="1348" type="line"/>
      <point x="942" y="1269" type="line"/>
      <point x="1074" y="1269"/>
      <point x="1109" y="1246"/>
      <point x="1109" y="1124" type="curve" smooth="yes"/>
      <point x="1109" y="528" type="line"/>
      <point x="476" y="1348" type="line"/>
      <point x="33" y="1348" type="line"/>
      <point x="33" y="1271" type="line"/>
      <point x="119" y="1271"/>
      <point x="125" y="1261"/>
      <point x="205" y="1157" type="curve"/>
      <point x="205" y="224" type="line" smooth="yes"/>
      <point x="205" y="103"/>
      <point x="158" y="79"/>
      <point x="33" y="79" type="curve"/>
      <point x="33" y="0" type="line"/>
      <point x="512" y="0" type="line"/>
      <point x="512" y="79" type="line"/>
      <point x="380" y="79"/>
      <point x="331" y="103"/>
      <point x="331" y="224" type="curve" smooth="yes"/>
      <point x="331" y="997" type="line"/>
    </contour>
  </outline>
</glyph>
<glyph name="O" format="2">
  <advance width="1578"/>
  <unicode hex="004F"/>
  <anchor x="785" y="-100" name="L"/>
  <anchor x="785" y="1435" name="U"/>
  <outline>
    <contour>
      <point x="1505" y="674" type="curve" smooth="yes"/>
      <point x="1505" y="1057"/>
      <point x="1233" y="1378"/>
      <point x="787" y="1378" type="curve" smooth="yes"/>
      <point x="375" y="1378"/>
      <point x="72" y="1067"/>
      <point x="72" y="674" type="curve" smooth="yes"/>
      <point x="72" y="292"/>
      <point x="345" y="-31"/>
      <point x="790" y="-31" type="curve" smooth="yes"/>
      <point x="1235" y="-31"/>
      <point x="1505" y="297"/>
    </contour>
    <contour>
      <point x="1147" y="667" type="curve" smooth="yes"/>
      <point x="1147" y="414"/>
      <point x="1070" y="71"/>
      <point x="787" y="71" type="curve" smooth="yes"/>
      <point x="506" y="71"/>
      <point x="431" y="447"/>
      <point x="431" y="682" type="curve" smooth="yes"/>
      <point x="431" y="938"/>
      <point x="506" y="1278"/>
      <point x="787" y="1278" type="curve" smooth="yes"/>
      <point x="1070" y="1278"/>
      <point x="1147" y="937"/>
    </contour>
  </outline>
</glyph>
<glyph name="P" format="2">
  <advance width="1239"/>
  <unicode hex="0050"/>
  <anchor x="552" y="-100" name="L"/>
  <anchor x="552" y="1435" name="U"/>
  <outline>
    <contour>
      <point x="1179" y="982" type="curve" smooth="yes"/>
      <point x="1179" y="1203"/>
      <point x="997" y="1348"/>
      <point x="691" y="1348" type="curve" smooth="yes"/>
      <point x="47" y="1348" type="line"/>
      <point x="47" y="1269" type="line" name="hr01"/>
      <point x="210" y="1269"/>
      <point x="232" y="1249"/>
      <point x="232" y="1124" type="curve" smooth="yes"/>
      <point x="232" y="250" type="line" smooth="yes"/>
      <point x="232" y="112"/>
      <point x="210" y="79"/>
      <point x="47" y="79" type="curve"/>
      <point x="47" y="0" type="line"/>
      <point x="731" y="0" type="line"/>
      <point x="731" y="79" type="line"/>
      <point x="574" y="79"/>
      <point x="545" y="112"/>
      <point x="545" y="242" type="curve" smooth="yes"/>
      <point x="545" y="596" type="line"/>
      <point x="563" y="594"/>
      <point x="596" y="591"/>
      <point x="635" y="591" type="curve" smooth="yes"/>
      <point x="1025" y="591"/>
      <point x="1179" y="774"/>
    </contour>
    <contour>
      <point x="847" y="982" type="curve" smooth="yes"/>
      <point x="847" y="829"/>
      <point x="792" y="706"/>
      <point x="589" y="706" type="curve" smooth="yes"/>
      <point x="578" y="706"/>
      <point x="558" y="709"/>
      <point x="545" y="711" type="curve"/>
      <point x="545" y="1226" type="line"/>
      <point x="557" y="1229"/>
      <point x="578" y="1232"/>
      <point x="589" y="1232" type="curve" smooth="yes" name="hr02"/>
      <point x="793" y="1232"/>
      <point x="847" y="1130"/>
    </contour>
  </outline>
</glyph>
<glyph name="Q" format="2">
  <advance width="1578"/>
  <unicode hex="0051"/>
  <anchor x="786" y="-270" name="L"/>
  <anchor x="786" y="1435" name="U"/>
  <outline>
    <contour>
      <point x="1505" y="674" type="curve" smooth="yes"/>
      <point x="1505" y="1067"/>
      <point x="1225" y="1378"/>
      <point x="787" y="1378" type="curve" smooth="yes"/>
      <point x="360" y="1378"/>
      <point x="72" y="1067"/>
      <point x="72" y="674" type="curve" smooth="yes"/>
      <point x="72" y="331"/>
      <point x="292" y="78"/>
      <point x="574" y="-7" type="curve"/>
      <point x="760" y="-250"/>
      <point x="1091" y="-427"/>
      <point x="1500" y="-427" type="curve"/>
      <point x="1500" y="-348" type="line"/>
      <point x="1241" y="-321"/>
      <point x="1096" y="-178"/>
      <point x="994" y="-8" type="curve"/>
      <point x="1261" y="61"/>
      <point x="1505" y="358"/>
    </contour>
    <contour>
      <point x="1147" y="674" type="curve" smooth="yes"/>
      <point x="1147" y="391"/>
      <point x="1062" y="71"/>
      <point x="787" y="71" type="curve" smooth="yes"/>
      <point x="515" y="71"/>
      <point x="431" y="391"/>
      <point x="431" y="674" type="curve" smooth="yes"/>
      <point x="431" y="957"/>
      <point x="500" y="1278"/>
      <point x="787" y="1278" type="curve" smooth="yes"/>
      <point x="1093" y="1278"/>
      <point x="1147" y="957"/>
    </contour>
  </outline>
</glyph>
<glyph name="R" format="2">
  <advance width="1466"/>
  <unicode hex="0052"/>
  <anchor x="712" y="-100" name="L"/>
  <anchor x="612" y="1435" name="U"/>
  <outline>
    <contour>
      <point x="1563" y="0" type="line"/>
      <point x="1563" y="79" type="line"/>
      <point x="1441" y="83"/>
      <point x="1360" y="143"/>
      <point x="1233" y="294" type="curve" smooth="yes"/>
      <point x="941" y="640" type="line"/>
      <point x="1091" y="671"/>
      <point x="1207" y="787"/>
      <point x="1207" y="1002" type="curve" smooth="yes"/>
      <point x="1207" y="1315"/>
      <point x="904" y="1348"/>
      <point x="596" y="1348" type="curve" smooth="yes"/>
      <point x="37" y="1348" type="line"/>
      <point x="37" y="1269" type="line" name="hr01"/>
      <point x="200" y="1269"/>
      <point x="222" y="1236"/>
      <point x="222" y="1111" type="curve" smooth="yes"/>
      <point x="222" y="264" type="line" smooth="yes"/>
      <point x="222" y="125"/>
      <point x="200" y="79"/>
      <point x="37" y="79" type="curve"/>
      <point x="37" y="0" type="line"/>
      <point x="721" y="0" type="line"/>
      <point x="721" y="79" type="line"/>
      <point x="565" y="79"/>
      <point x="534" y="125"/>
      <point x="534" y="255" type="curve" smooth="yes"/>
      <point x="534" y="608" type="line"/>
      <point x="542" y="608"/>
      <point x="555" y="607"/>
      <point x="566" y="607" type="curve" smooth="yes"/>
      <point x="579" y="607"/>
      <point x="589" y="608"/>
      <point x="594" y="609" type="curve"/>
      <point x="1031" y="0" type="line"/>
    </contour>
    <contour>
      <point x="880" y="982" type="curve" smooth="yes"/>
      <point x="880" y="822"/>
      <point x="765" y="719"/>
      <point x="644" y="719" type="curve"/>
      <point x="534" y="726" type="line"/>
      <point x="534" y="1226" type="line"/>
      <point x="555" y="1226"/>
      <point x="587" y="1232"/>
      <point x="635" y="1232" type="curve" smooth="yes" name="hr02"/>
      <point x="861" y="1232"/>
      <point x="880" y="1104"/>
    </contour>
  </outline>
</glyph>
<glyph name="S" format="2">
  <advance width="1134"/>
  <unicode hex="0053"/>
  <anchor x="581" y="-100" name="L"/>
  <anchor x="581" y="1435" name="U"/>
  <outline>
    <contour>
      <point x="1053" y="381" type="curve" smooth="yes"/>
      <point x="1053" y="800"/>
      <point x="335" y="826"/>
      <point x="335" y="1103" type="curve" smooth="yes"/>
      <point x="335" y="1210"/>
      <point x="427" y="1281"/>
      <point x="534" y="1281" type="curve" smooth="yes"/>
      <point x="707" y="1281"/>
      <point x="878" y="1124"/>
      <point x="903" y="876" type="curve"/>
      <point x="985" y="876" type="line" name="hr01"/>
      <point x="985" y="1378" type="line"/>
      <point x="909" y="1378" type="line"/>
      <point x="902" y="1328"/>
      <point x="885" y="1288"/>
      <point x="850" y="1288" type="curve" smooth="yes"/>
      <point x="777" y="1288"/>
      <point x="704" y="1378"/>
      <point x="529" y="1378" type="curve" smooth="yes"/>
      <point x="281" y="1378"/>
      <point x="106" y="1219"/>
      <point x="106" y="995" type="curve" smooth="yes"/>
      <point x="106" y="579"/>
      <point x="810" y="566"/>
      <point x="810" y="250" type="curve" smooth="yes"/>
      <point x="810" y="133"/>
      <point x="704" y="63"/>
      <point x="586" y="63" type="curve" smooth="yes"/>
      <point x="327" y="63"/>
      <point x="191" y="291"/>
      <point x="171" y="479" type="curve"/>
      <point x="93" y="479" type="line"/>
      <point x="93" y="-28" type="line"/>
      <point x="167" y="-28" type="line"/>
      <point x="192" y="17"/>
      <point x="220" y="48"/>
      <point x="269" y="48" type="curve" smooth="yes"/>
      <point x="356" y="48"/>
      <point x="380" y="-28"/>
      <point x="580" y="-28" type="curve" smooth="yes"/>
      <point x="844" y="-28"/>
      <point x="1053" y="137"/>
    </contour>
  </outline>
</glyph>
<glyph name="T" format="2">
  <advance width="1358"/>
  <unicode hex="0054"/>
  <anchor x="624" y="-100" name="L"/>
  <anchor x="624" y="1435" name="U"/>
  <outline>
    <contour>
      <point x="1299" y="944" type="line"/>
      <point x="1285" y="1348" type="line"/>
      <point x="59" y="1348" type="line"/>
      <point x="46" y="944" type="line"/>
      <point x="126" y="944" type="line"/>
      <point x="144" y="1157"/>
      <point x="236" y="1232"/>
      <point x="422" y="1232" type="curve" smooth="yes"/>
      <point x="521" y="1232" type="line"/>
      <point x="521" y="253" type="line" smooth="yes"/>
      <point x="521" y="114"/>
      <point x="489" y="79"/>
      <point x="327" y="79" type="curve"/>
      <point x="327" y="0" type="line"/>
      <point x="1029" y="0" type="line"/>
      <point x="1029" y="79" type="line"/>
      <point x="865" y="79"/>
      <point x="833" y="114"/>
      <point x="833" y="253" type="curve" smooth="yes"/>
      <point x="833" y="1232" type="line"/>
      <point x="919" y="1232" type="line" smooth="yes"/>
      <point x="1108" y="1232"/>
      <point x="1200" y="1141"/>
      <point x="1219" y="944" type="curve"/>
    </contour>
  </outline>
</glyph>
<glyph name="U" format="2">
  <advance width="1472"/>
  <unicode hex="0055"/>
  <anchor x="744" y="-100" name="L"/>
  <anchor x="744" y="1435" name="U"/>
  <outline>
    <contour>
      <point x="730" y="-28" type="curve" smooth="yes"/>
      <point x="1117" y="-28"/>
      <point x="1251" y="217"/>
      <point x="1251" y="536" type="curve" smooth="yes"/>
      <point x="1251" y="1108" type="line" smooth="yes"/>
      <point x="1251" y="1226"/>
      <point x="1293" y="1269"/>
      <point x="1441" y="1269" type="curve"/>
      <point x="1441" y="1348" type="line"/>
      <point x="930" y="1348" type="line"/>
      <point x="930" y="1269" type="line"/>
      <point x="1091" y="1269"/>
      <point x="1126" y="1247"/>
      <point x="1126" y="1108" type="curve" smooth="yes"/>
      <point x="1126" y="575" type="line" smooth="yes"/>
      <point x="1126" y="293"/>
      <point x="1048" y="94"/>
      <point x="771" y="94" type="curve" smooth="yes"/>
      <point x="579" y="94"/>
      <point x="492" y="205"/>
      <point x="492" y="502" type="curve" smooth="yes"/>
      <point x="492" y="1095" type="line" smooth="yes"/>
      <point x="492" y="1234"/>
      <point x="525" y="1269"/>
      <point x="687" y="1269" type="curve"/>
      <point x="687" y="1348" type="line"/>
      <point x="-4" y="1348" type="line"/>
      <point x="-4" y="1269" type="line"/>
      <point x="158" y="1269"/>
      <point x="179" y="1234"/>
      <point x="179" y="1095" type="curve" smooth="yes"/>
      <point x="179" y="581" type="line" smooth="yes"/>
      <point x="179" y="195"/>
      <point x="257" y="-28"/>
    </contour>
  </outline>
</glyph>
<glyph name="V" format="2">
  <advance width="1472"/>
  <unicode hex="0056"/>
  <anchor x="735" y="-100" name="L"/>
  <anchor x="735" y="1435" name="U"/>
  <outline>
    <contour>
      <point x="1452" y="1269" type="curve"/>
      <point x="1452" y="1348" type="line"/>
      <point x="957" y="1348" type="line"/>
      <point x="957" y="1269" type="line"/>
      <point x="1021" y="1265"/>
      <point x="1120" y="1225"/>
      <point x="1120" y="1148" type="curve" smooth="yes"/>
      <point x="1120" y="1119"/>
      <point x="1107" y="1070"/>
      <point x="840" y="415" type="curve"/>
      <point x="539" y="1083" type="line" smooth="yes"/>
      <point x="523" y="1114"/>
      <point x="499" y="1186"/>
      <point x="499" y="1206" type="curve" smooth="yes"/>
      <point x="499" y="1249"/>
      <point x="539" y="1269"/>
      <point x="662" y="1269" type="curve"/>
      <point x="662" y="1348" type="line"/>
      <point x="-4" y="1348" type="line"/>
      <point x="-4" y="1269" type="line"/>
      <point x="114" y="1248"/>
      <point x="136" y="1226"/>
      <point x="185" y="1111" type="curve" smooth="yes"/>
      <point x="698" y="-28" type="line"/>
      <point x="797" y="-28" type="line"/>
      <point x="1254" y="1096" type="line" smooth="yes"/>
      <point x="1295" y="1200"/>
      <point x="1338" y="1243"/>
    </contour>
  </outline>
</glyph>
<glyph name="W" format="2">
  <advance width="2072"/>
  <unicode hex="0057"/>
  <anchor x="974" y="-100" name="L"/>
  <anchor x="974" y="1435" name="U"/>
  <outline>
    <contour>
      <point x="2051" y="1348" type="line"/>
      <point x="1663" y="1348" type="line"/>
      <point x="1663" y="1269" type="line"/>
      <point x="1734" y="1269"/>
      <point x="1777" y="1256"/>
      <point x="1777" y="1186" type="curve" smooth="yes"/>
      <point x="1777" y="1153"/>
      <point x="1744" y="1064"/>
      <point x="1723" y="1014" type="curve" smooth="yes"/>
      <point x="1493" y="477" type="line"/>
      <point x="1252" y="1098" type="line" smooth="yes"/>
      <point x="1227" y="1162"/>
      <point x="1221" y="1188"/>
      <point x="1221" y="1207" type="curve" smooth="yes"/>
      <point x="1221" y="1255"/>
      <point x="1302" y="1269"/>
      <point x="1404" y="1269" type="curve"/>
      <point x="1404" y="1348" type="line"/>
      <point x="737" y="1348" type="line"/>
      <point x="737" y="1269" type="line"/>
      <point x="858" y="1269"/>
      <point x="891" y="1183"/>
      <point x="979" y="944" type="curve"/>
      <point x="771" y="459" type="line"/>
      <point x="514" y="1130"/>
      <point x="521" y="1095"/>
      <point x="508" y="1130" type="curve" smooth="yes"/>
      <point x="465" y="1247"/>
      <point x="579" y="1269"/>
      <point x="662" y="1269" type="curve"/>
      <point x="662" y="1348" type="line"/>
      <point x="-4" y="1348" type="line"/>
      <point x="-4" y="1269" type="line"/>
      <point x="129" y="1269"/>
      <point x="148" y="1218"/>
      <point x="205" y="1068" type="curve" smooth="yes"/>
      <point x="624" y="-28" type="line"/>
      <point x="705" y="-28" type="line"/>
      <point x="1045" y="776" type="line"/>
      <point x="1364" y="-28" type="line"/>
      <point x="1444" y="-28" type="line"/>
      <point x="1874" y="1064" type="line" smooth="yes"/>
      <point x="1937" y="1225"/>
      <point x="1969" y="1269"/>
      <point x="2051" y="1269" type="curve"/>
    </contour>
  </outline>
</glyph>
<glyph name="X" format="2">
  <advance width="1472"/>
  <unicode hex="0058"/>
  <anchor x="734" y="-100" name="L"/>
  <anchor x="734" y="1435" name="U"/>
  <outline>
    <contour>
      <point x="1524" y="0" type="line"/>
      <point x="1524" y="79" type="line"/>
      <point x="1406" y="79"/>
      <point x="1331" y="147"/>
      <point x="1291" y="204" type="curve" smooth="yes"/>
      <point x="899" y="761" type="line"/>
      <point x="1177" y="1103" type="line" smooth="yes"/>
      <point x="1268" y="1215"/>
      <point x="1312" y="1269"/>
      <point x="1417" y="1269" type="curve"/>
      <point x="1417" y="1348" type="line"/>
      <point x="908" y="1348" type="line"/>
      <point x="908" y="1269" type="line"/>
      <point x="995" y="1269"/>
      <point x="1069" y="1241"/>
      <point x="1069" y="1194" type="curve" smooth="yes"/>
      <point x="1069" y="1168"/>
      <point x="1050" y="1140"/>
      <point x="817" y="855" type="curve"/>
      <point x="631" y="1137"/>
      <point x="602" y="1188"/>
      <point x="602" y="1212" type="curve" smooth="yes"/>
      <point x="602" y="1252"/>
      <point x="644" y="1269"/>
      <point x="739" y="1269" type="curve"/>
      <point x="739" y="1348" type="line"/>
      <point x="44" y="1348" type="line"/>
      <point x="44" y="1269" type="line"/>
      <point x="97" y="1269"/>
      <point x="161" y="1252"/>
      <point x="236" y="1144" type="curve" smooth="yes"/>
      <point x="595" y="622" type="line"/>
      <point x="298" y="242" type="line" smooth="yes"/>
      <point x="212" y="132"/>
      <point x="125" y="99"/>
      <point x="0" y="79" type="curve"/>
      <point x="0" y="0" type="line"/>
      <point x="585" y="0" type="line"/>
      <point x="585" y="79" type="line"/>
      <point x="467" y="79"/>
      <point x="435" y="125"/>
      <point x="435" y="160" type="curve" smooth="yes"/>
      <point x="435" y="206"/>
      <point x="451" y="237"/>
      <point x="521" y="319" type="curve" smooth="yes"/>
      <point x="677" y="499" type="line"/>
      <point x="798" y="338"/>
      <point x="885" y="198"/>
      <point x="885" y="152" type="curve" smooth="yes"/>
      <point x="885" y="111"/>
      <point x="844" y="79"/>
      <point x="759" y="79" type="curve"/>
      <point x="759" y="0" type="line"/>
    </contour>
  </outline>
</glyph>
<glyph name="Y" format="2">
  <advance width="1481"/>
  <unicode hex="0059"/>
  <anchor x="734" y="-100" name="L"/>
  <anchor x="734" y="1435" name="U"/>
  <outline>
    <contour>
      <point x="1450" y="1320" type="line"/>
      <point x="1450" y="1357" type="line"/>
      <point x="979" y="1357" type="line"/>
      <point x="979" y="1320" type="line"/>
      <point x="1054" y="1320"/>
      <point x="1083" y="1301"/>
      <point x="1098" y="1274" type="curve"/>
      <point x="1136" y="1225"/>
      <point x="1114" y="1175"/>
      <point x="1056" y="1082" type="curve"/>
      <point x="787" y="665" type="line"/>
      <point x="504" y="1101" type="line"/>
      <point x="464" y="1166"/>
      <point x="444" y="1210"/>
      <point x="444" y="1233" type="curve" smooth="yes"/>
      <point x="444" y="1306"/>
      <point x="534" y="1320"/>
      <point x="570" y="1320" type="curve" smooth="yes"/>
      <point x="600" y="1320" type="line"/>
      <point x="600" y="1357" type="line"/>
      <point x="17" y="1357" type="line"/>
      <point x="17" y="1320" type="line"/>
      <point x="70" y="1320"/>
      <point x="121" y="1293"/>
      <point x="156" y="1266" type="curve"/>
      <point x="193" y="1235"/>
      <point x="220" y="1190"/>
      <point x="264" y="1126" type="curve"/>
      <point x="635" y="558" type="line"/>
      <point x="635" y="237" type="line" smooth="yes"/>
      <point x="635" y="157"/>
      <point x="627" y="111"/>
      <point x="615" y="90" type="curve"/>
      <point x="588" y="53"/>
      <point x="550" y="38"/>
      <point x="493" y="38" type="curve" smooth="yes"/>
      <point x="446" y="38" type="line"/>
      <point x="446" y="0" type="line"/>
      <point x="1021" y="0" type="line"/>
      <point x="1021" y="38" type="line"/>
      <point x="979" y="38" type="line" smooth="yes"/>
      <point x="921" y="38"/>
      <point x="881" y="52"/>
      <point x="858" y="79" type="curve"/>
      <point x="838" y="99"/>
      <point x="828" y="152"/>
      <point x="828" y="237" type="curve" smooth="yes"/>
      <point x="828" y="576" type="line"/>
      <point x="1158" y="1090" type="line"/>
      <point x="1199" y="1157"/>
      <point x="1230" y="1202"/>
      <point x="1258" y="1233" type="curve" smooth="yes"/>
      <point x="1316" y="1296"/>
      <point x="1392" y="1320"/>
      <point x="1426" y="1320" type="curve" smooth="yes"/>
    </contour>
  </outline>
</glyph>
<glyph name="Z" format="2">
  <advance width="1360"/>
  <unicode hex="005A"/>
  <anchor x="672" y="-100" name="L"/>
  <anchor x="672" y="1435" name="U"/>
  <outline>
    <contour>
      <point x="1282" y="489" type="line"/>
      <point x="1205" y="502" type="line"/>
      <point x="1139" y="185"/>
      <point x="969" y="117"/>
      <point x="687" y="117" type="curve" smooth="yes"/>
      <point x="446" y="117" type="line"/>
      <point x="1268" y="1348" type="line"/>
      <point x="183" y="1348" type="line"/>
      <point x="151" y="915" type="line"/>
      <point x="231" y="915" type="line"/>
      <point x="270" y="1135"/>
      <point x="376" y="1232"/>
      <point x="554" y="1232" type="curve" smooth="yes"/>
      <point x="819" y="1232" type="line"/>
      <point x="46" y="79" type="line"/>
      <point x="46" y="0" type="line"/>
      <point x="1218" y="0" type="line"/>
    </contour>
  </outline>
</glyph>
<glyph name="bracketleft" format="2">
  <advance width="698"/>
  <unicode hex="005B"/>
  <outline>
    <contour>
      <point x="166" y="-406" type="line"/>
      <point x="566" y="-406" type="line"/>
      <point x="566" y="-309" type="line"/>
      <point x="387" y="-309" type="line"/>
      <point x="387" y="1292" type="line"/>
      <point x="566" y="1292" type="line"/>
      <point x="566" y="1389" type="line"/>
      <point x="166" y="1389" type="line"/>
    </contour>
  </outline>
</glyph>
<glyph name="backslash" format="2">
  <advance width="586"/>
  <unicode hex="005C"/>
  <outline>
    <contour>
      <point x="581" y="-28" type="line"/>
      <point x="138" y="1378" type="line"/>
      <point x="12" y="1378" type="line"/>
      <point x="455" y="-28" type="line"/>
    </contour>
  </outline>
</glyph>
<glyph name="bracketright" format="2">
  <advance width="698"/>
  <unicode hex="005D"/>
  <outline>
    <contour>
      <point x="142" y="-406" type="line"/>
      <point x="542" y="-406" type="line"/>
      <point x="542" y="1389" type="line"/>
      <point x="142" y="1389" type="line"/>
      <point x="142" y="1292" type="line"/>
      <point x="321" y="1292" type="line"/>
      <point x="321" y="-309" type="line"/>
      <point x="142" y="-309" type="line"/>
    </contour>
  </outline>
</glyph>
<glyph name="asciicircum" format="2">
  <advance width="643"/>
  <unicode hex="005E"/>
  <anchor x="321" y="1375" name="U"/>
  <outline>
    <contour>
      <point x="643" y="1043" type="line"/>
      <point x="386" y="1387" type="line"/>
      <point x="258" y="1387" type="line"/>
      <point x="0" y="1043" type="line"/>
      <point x="71" y="1043" type="line"/>
      <point x="321" y="1257" type="line"/>
      <point x="573" y="1043" type="line"/>
    </contour>
  </outline>
</glyph>
<glyph name="underscore" format="2">
  <advance width="1100"/>
  <unicode hex="005F"/>
  <outline>
    <contour>
      <point x="1100" y="-288" type="line"/>
      <point x="1100" y="-144" type="line"/>
      <point x="0" y="-144" type="line"/>
      <point x="0" y="-288" type="line"/>
    </contour>
  </outline>
</glyph>
<glyph name="grave" format="2">
  <advance width="703"/>
  <unicode hex="0060"/>
  <anchor x="233" y="1375" name="U"/>
  <outline>
    <contour>
      <point x="384" y="1043" type="line"/>
      <point x="467" y="1043" type="line"/>
      <point x="183" y="1328" type="line" smooth="yes"/>
      <point x="146" y="1366"/>
      <point x="98" y="1396"/>
      <point x="64" y="1396" type="curve" smooth="yes"/>
      <point x="24" y="1396"/>
      <point x="0" y="1366"/>
      <point x="0" y="1319" type="curve" smooth="yes"/>
      <point x="0" y="1283"/>
      <point x="55" y="1251"/>
      <point x="89" y="1230" type="curve" smooth="yes"/>
    </contour>
  </outline>
</glyph>
<glyph name="a" format="2">
  <advance width="1010"/>
  <unicode hex="0061"/>
  <anchor x="467" y="-100" name="L"/>
  <anchor x="467" y="1000" name="U"/>
  <outline>
    <contour>
      <point x="1010" y="228" type="line"/>
      <point x="992" y="209"/>
      <point x="931" y="160"/>
      <point x="903" y="160" type="curve" smooth="yes"/>
      <point x="873" y="160"/>
      <point x="863" y="184"/>
      <point x="859" y="210" type="curve" smooth="yes"/>
      <point x="853" y="244"/>
      <point x="853" y="304"/>
      <point x="853" y="356" type="curve" smooth="yes"/>
      <point x="853" y="627" type="line" smooth="yes"/>
      <point x="853" y="853"/>
      <point x="750" y="938"/>
      <point x="467" y="938" type="curve" smooth="yes"/>
      <point x="311" y="938"/>
      <point x="94" y="851"/>
      <point x="94" y="695" type="curve" smooth="yes"/>
      <point x="94" y="619"/>
      <point x="145" y="572"/>
      <point x="217" y="572" type="curve" smooth="yes"/>
      <point x="319" y="572"/>
      <point x="349" y="649"/>
      <point x="349" y="708" type="curve" smooth="yes"/>
      <point x="349" y="822"/>
      <point x="377" y="852"/>
      <point x="446" y="852" type="curve" smooth="yes" name="hr01"/>
      <point x="530" y="852"/>
      <point x="567" y="763"/>
      <point x="567" y="640" type="curve" smooth="yes"/>
      <point x="567" y="602" type="line"/>
      <point x="388" y="539"/>
      <point x="72" y="416"/>
      <point x="72" y="216" type="curve" smooth="yes"/>
      <point x="72" y="70"/>
      <point x="149" y="-18"/>
      <point x="283" y="-18" type="curve" smooth="yes"/>
      <point x="397" y="-18"/>
      <point x="480" y="44"/>
      <point x="567" y="118" type="curve"/>
      <point x="567" y="46"/>
      <point x="633" y="-18"/>
      <point x="719" y="-18" type="curve" smooth="yes"/>
      <point x="851" y="-18"/>
      <point x="975" y="91"/>
      <point x="1010" y="132" type="curve"/>
    </contour>
    <contour>
      <point x="567" y="237" type="line"/>
      <point x="526" y="193"/>
      <point x="477" y="157"/>
      <point x="434" y="157" type="curve" smooth="yes"/>
      <point x="381" y="157"/>
      <point x="352" y="205"/>
      <point x="352" y="262" type="curve" smooth="yes"/>
      <point x="352" y="352"/>
      <point x="398" y="433"/>
      <point x="567" y="508" type="curve"/>
    </contour>
  </outline>
</glyph>
<glyph name="b" format="2">
  <advance width="1026"/>
  <unicode hex="0062"/>
  <anchor x="540" y="-100" name="L"/>
  <anchor x="540" y="1435" name="U"/>
  <outline>
    <contour>
      <point x="954" y="496" type="curve" smooth="yes"/>
      <point x="954" y="773"/>
      <point x="790" y="943"/>
      <point x="604" y="943" type="curve" smooth="yes"/>
      <point x="500" y="943"/>
      <point x="404" y="881"/>
      <point x="316" y="758" type="curve"/>
      <point x="316" y="1424" type="line"/>
      <point x="269" y="1424" type="line"/>
      <point x="-8" y="1313" type="line"/>
      <point x="6" y="1278" type="line"/>
      <point x="69" y="1298"/>
      <point x="95" y="1299"/>
      <point x="116" y="1280" type="curve"/>
      <point x="140" y="1261"/>
      <point x="148" y="1242"/>
      <point x="148" y="1037" type="curve" smooth="yes"/>
      <point x="148" y="89" type="line"/>
      <point x="267" y="8"/>
      <point x="376" y="-30"/>
      <point x="481" y="-30" type="curve" smooth="yes"/>
      <point x="733" y="-30"/>
      <point x="954" y="192"/>
    </contour>
    <contour>
      <point x="781" y="438" type="curve" smooth="yes"/>
      <point x="781" y="177"/>
      <point x="652" y="45"/>
      <point x="532" y="45" type="curve" smooth="yes"/>
      <point x="455" y="45"/>
      <point x="381" y="81"/>
      <point x="316" y="146" type="curve"/>
      <point x="316" y="697" type="line"/>
      <point x="419" y="789"/>
      <point x="472" y="804"/>
      <point x="523" y="804" type="curve" smooth="yes"/>
      <point x="662" y="804"/>
      <point x="781" y="667"/>
    </contour>
  </outline>
</glyph>
<glyph name="c" format="2">
  <advance width="948"/>
  <unicode hex="0063"/>
  <anchor x="475" y="10" name="H"/>
  <anchor x="501" y="-90" name="L"/>
  <anchor x="501" y="1010" name="U"/>
  <outline>
    <contour>
      <point x="888" y="336" type="curve"/>
      <point x="830" y="361" type="line"/>
      <point x="766" y="205"/>
      <point x="682" y="182"/>
      <point x="618" y="182" type="curve" smooth="yes"/>
      <point x="441" y="182"/>
      <point x="316" y="370"/>
      <point x="316" y="612" type="curve" smooth="yes"/>
      <point x="316" y="760"/>
      <point x="374" y="840"/>
      <point x="469" y="840" type="curve" smooth="yes"/>
      <point x="561" y="840"/>
      <point x="586" y="786"/>
      <point x="603" y="727" type="curve" smooth="yes"/>
      <point x="625" y="654"/>
      <point x="635" y="573"/>
      <point x="746" y="573" type="curve" smooth="yes" name="hr01"/>
      <point x="827" y="573"/>
      <point x="866" y="624"/>
      <point x="866" y="697" type="curve" smooth="yes"/>
      <point x="866" y="789"/>
      <point x="767" y="938"/>
      <point x="512" y="938" type="curve" smooth="yes"/>
      <point x="294" y="938"/>
      <point x="90" y="734"/>
      <point x="90" y="420" type="curve" smooth="yes"/>
      <point x="90" y="169"/>
      <point x="250" y="-30"/>
      <point x="497" y="-30" type="curve" smooth="yes"/>
      <point x="731" y="-30"/>
      <point x="850" y="152"/>
    </contour>
  </outline>
</glyph>
<glyph name="d" format="2">
  <advance width="1123"/>
  <unicode hex="0064"/>
  <anchor x="590" y="-100" name="L"/>
  <anchor x="587" y="1435" name="U"/>
  <outline>
    <contour>
      <point x="1144" y="80" type="line"/>
      <point x="1120" y="154" type="line"/>
      <point x="1096" y="146"/>
      <point x="1056" y="139"/>
      <point x="1035" y="139" type="curve" smooth="yes"/>
      <point x="992" y="139"/>
      <point x="979" y="170"/>
      <point x="979" y="275" type="curve" smooth="yes"/>
      <point x="979" y="1413" type="line"/>
      <point x="899" y="1413" type="line"/>
      <point x="530" y="1302" type="line"/>
      <point x="554" y="1228" type="line"/>
      <point x="576" y="1236"/>
      <point x="616" y="1243"/>
      <point x="640" y="1243" type="curve" smooth="yes"/>
      <point x="682" y="1243"/>
      <point x="695" y="1214"/>
      <point x="695" y="1109" type="curve" smooth="yes"/>
      <point x="695" y="859" type="line"/>
      <point x="634" y="915"/>
      <point x="563" y="938"/>
      <point x="488" y="938" type="curve" smooth="yes"/>
      <point x="278" y="938"/>
      <point x="53" y="739"/>
      <point x="53" y="429" type="curve" smooth="yes"/>
      <point x="53" y="121"/>
      <point x="256" y="-30"/>
      <point x="430" y="-30" type="curve" smooth="yes"/>
      <point x="535" y="-30"/>
      <point x="613" y="7"/>
      <point x="695" y="90" type="curve"/>
      <point x="695" y="-30" type="line"/>
      <point x="774" y="-30" type="line"/>
    </contour>
    <contour>
      <point x="695" y="218" type="line"/>
      <point x="649" y="167"/>
      <point x="600" y="119"/>
      <point x="542" y="119" type="curve" smooth="yes"/>
      <point x="441" y="119"/>
      <point x="343" y="255"/>
      <point x="343" y="519" type="curve" smooth="yes"/>
      <point x="343" y="764"/>
      <point x="426" y="847"/>
      <point x="514" y="847" type="curve" smooth="yes"/>
      <point x="605" y="847"/>
      <point x="695" y="750"/>
      <point x="695" y="629" type="curve" smooth="yes"/>
    </contour>
  </outline>
</glyph>
<glyph name="e" format="2">
  <advance width="935"/>
  <unicode hex="0065"/>
  <anchor x="515" y="-100" name="L"/>
  <anchor x="515" y="1000" name="U"/>
  <outline>
    <contour>
      <point x="807" y="361" type="line"/>
      <point x="753" y="228"/>
      <point x="682" y="182"/>
      <point x="595" y="182" type="curve" smooth="yes"/>
      <point x="404" y="182"/>
      <point x="295" y="368"/>
      <point x="295" y="539" type="curve"/>
      <point x="865" y="539" type="line"/>
      <point x="866" y="829"/>
      <point x="700" y="939"/>
      <point x="510" y="939" type="curve" smooth="yes"/>
      <point x="294" y="939"/>
      <point x="67" y="753"/>
      <point x="67" y="456" type="curve" smooth="yes"/>
      <point x="67" y="166"/>
      <point x="216" y="-30"/>
      <point x="477" y="-30" type="curve" smooth="yes"/>
      <point x="708" y="-30"/>
      <point x="827" y="152"/>
      <point x="865" y="336" type="curve"/>
    </contour>
    <contour>
      <point x="294" y="624" type="line"/>
      <point x="292" y="754"/>
      <point x="365" y="840"/>
      <point x="436" y="840" type="curve" smooth="yes"/>
      <point x="561" y="840"/>
      <point x="599" y="706"/>
      <point x="599" y="624" type="curve"/>
    </contour>
  </outline>
</glyph>
<glyph name="f" format="2">
  <advance width="723"/>
  <unicode hex="0066"/>
  <anchor x="378" y="-100" name="L"/>
  <anchor x="610" y="1375" name="U"/>
  <outline>
    <contour>
      <point x="74" y="0" type="line"/>
      <point x="661" y="0" type="line"/>
      <point x="661" y="79" type="line"/>
      <point x="576" y="79"/>
      <point x="501" y="99"/>
      <point x="501" y="220" type="curve" smooth="yes"/>
      <point x="501" y="798" type="line"/>
      <point x="731" y="798" type="line"/>
      <point x="731" y="910" type="line"/>
      <point x="501" y="910" type="line"/>
      <point x="501" y="1056" type="line" smooth="yes"/>
      <point x="501" y="1174"/>
      <point x="501" y="1305"/>
      <point x="578" y="1305" type="curve" smooth="yes"/>
      <point x="687" y="1305"/>
      <point x="685" y="1122"/>
      <point x="829" y="1122" type="curve" smooth="yes" name="hr01"/>
      <point x="902" y="1122"/>
      <point x="951" y="1181"/>
      <point x="951" y="1239" type="curve" smooth="yes"/>
      <point x="951" y="1327"/>
      <point x="856" y="1413"/>
      <point x="667" y="1413" type="curve" smooth="yes"/>
      <point x="335" y="1413"/>
      <point x="217" y="1073"/>
      <point x="217" y="910" type="curve"/>
      <point x="35" y="910" type="line"/>
      <point x="35" y="798" type="line"/>
      <point x="217" y="798" type="line"/>
      <point x="217" y="220" type="line" smooth="yes"/>
      <point x="217" y="110"/>
      <point x="170" y="79"/>
      <point x="74" y="79" type="curve"/>
    </contour>
  </outline>
</glyph>
<glyph name="g" format="2">
  <advance width="1078"/>
  <unicode hex="0067"/>
  <anchor x="524" y="-500" name="L"/>
  <anchor x="511" y="1000" name="U"/>
  <outline>
    <contour>
      <point x="492" y="-441" type="curve" smooth="yes"/>
      <point x="695" y="-441"/>
      <point x="1029" y="-327"/>
      <point x="1029" y="-83" type="curve" smooth="yes"/>
      <point x="1029" y="172"/>
      <point x="733" y="168"/>
      <point x="525" y="169" type="curve" smooth="yes"/>
      <point x="411" y="169"/>
      <point x="327" y="173"/>
      <point x="327" y="216" type="curve" smooth="yes" name="hr02"/>
      <point x="327" y="248"/>
      <point x="364" y="279"/>
      <point x="398" y="308" type="curve"/>
      <point x="443" y="298"/>
      <point x="493" y="291"/>
      <point x="541" y="291" type="curve" smooth="yes"/>
      <point x="794" y="291"/>
      <point x="921" y="460"/>
      <point x="921" y="612" type="curve" smooth="yes"/>
      <point x="921" y="664"/>
      <point x="905" y="720"/>
      <point x="872" y="757" type="curve"/>
      <point x="897" y="756"/>
      <point x="962" y="752"/>
      <point x="996" y="752" type="curve" smooth="yes"/>
      <point x="1040" y="752"/>
      <point x="1053" y="774"/>
      <point x="1053" y="817" type="curve" smooth="yes"/>
      <point x="1053" y="860"/>
      <point x="1042" y="873"/>
      <point x="1008" y="873" type="curve" smooth="yes"/>
      <point x="972" y="873"/>
      <point x="897" y="866"/>
      <point x="863" y="866" type="curve" smooth="yes"/>
      <point x="737" y="866"/>
      <point x="673" y="938"/>
      <point x="517" y="938" type="curve" smooth="yes"/>
      <point x="298" y="938"/>
      <point x="127" y="812"/>
      <point x="127" y="608" type="curve" smooth="yes"/>
      <point x="127" y="479"/>
      <point x="220" y="371"/>
      <point x="301" y="336" type="curve"/>
      <point x="210" y="259"/>
      <point x="123" y="162"/>
      <point x="123" y="92" type="curve" smooth="yes"/>
      <point x="123" y="41"/>
      <point x="166" y="-12"/>
      <point x="236" y="-31" type="curve"/>
      <point x="99" y="-110"/>
      <point x="46" y="-178"/>
      <point x="46" y="-244" type="curve" smooth="yes" name="hr01"/>
      <point x="46" y="-361"/>
      <point x="244" y="-441"/>
    </contour>
    <contour>
      <point x="608" y="-266" type="curve" smooth="yes"/>
      <point x="495" y="-266"/>
      <point x="289" y="-244"/>
      <point x="289" y="-149" type="curve" smooth="yes"/>
      <point x="289" y="-124"/>
      <point x="299" y="-88"/>
      <point x="336" y="-45" type="curve"/>
      <point x="460" y="-52"/>
      <point x="717" y="-50"/>
      <point x="819" y="-74" type="curve" smooth="yes"/>
      <point x="865" y="-85"/>
      <point x="904" y="-106"/>
      <point x="904" y="-147" type="curve" smooth="yes" name="hr04"/>
      <point x="904" y="-238"/>
      <point x="727" y="-266"/>
    </contour>
    <contour>
      <point x="541" y="364" type="curve" smooth="yes"/>
      <point x="408" y="364"/>
      <point x="380" y="526"/>
      <point x="380" y="652" type="curve" smooth="yes" name="hr03"/>
      <point x="380" y="750"/>
      <point x="408" y="866"/>
      <point x="514" y="866" type="curve" smooth="yes"/>
      <point x="644" y="866"/>
      <point x="672" y="673"/>
      <point x="672" y="575" type="curve" smooth="yes"/>
      <point x="672" y="486"/>
      <point x="646" y="364"/>
    </contour>
  </outline>
</glyph>
<glyph name="h" format="2">
  <advance width="1148"/>
  <unicode hex="0068"/>
  <anchor x="602" y="-100" name="L"/>
  <anchor x="602" y="1435" name="U"/>
  <outline>
    <contour>
      <point x="58" y="0" type="line"/>
      <point x="563" y="0" type="line"/>
      <point x="563" y="79" type="line"/>
      <point x="479" y="79"/>
      <point x="455" y="99"/>
      <point x="455" y="220" type="curve" smooth="yes"/>
      <point x="455" y="635" type="line"/>
      <point x="514" y="700"/>
      <point x="586" y="763"/>
      <point x="641" y="763" type="curve" smooth="yes"/>
      <point x="724" y="763"/>
      <point x="754" y="710"/>
      <point x="754" y="578" type="curve" smooth="yes"/>
      <point x="754" y="218" type="line" smooth="yes"/>
      <point x="754" y="88"/>
      <point x="730" y="79"/>
      <point x="645" y="79" type="curve"/>
      <point x="645" y="0" type="line"/>
      <point x="1141" y="0" type="line"/>
      <point x="1141" y="79" type="line"/>
      <point x="1062" y="79"/>
      <point x="1038" y="103"/>
      <point x="1038" y="220" type="curve" smooth="yes"/>
      <point x="1038" y="595" type="line" smooth="yes"/>
      <point x="1038" y="759"/>
      <point x="988" y="938"/>
      <point x="794" y="938" type="curve" smooth="yes"/>
      <point x="641" y="938"/>
      <point x="572" y="853"/>
      <point x="455" y="748" type="curve"/>
      <point x="455" y="1413" type="line"/>
      <point x="376" y="1413" type="line"/>
      <point x="6" y="1295" type="line"/>
      <point x="40" y="1228" type="line"/>
      <point x="66" y="1238"/>
      <point x="86" y="1243"/>
      <point x="112" y="1243" type="curve" smooth="yes"/>
      <point x="151" y="1243"/>
      <point x="171" y="1213"/>
      <point x="171" y="1108" type="curve" smooth="yes"/>
      <point x="171" y="220" type="line" smooth="yes"/>
      <point x="171" y="110"/>
      <point x="152" y="79"/>
      <point x="58" y="79" type="curve"/>
    </contour>
  </outline>
</glyph>
<glyph name="i" format="2">
  <advance width="570"/>
  <unicode hex="0069"/>
  <anchor x="300" y="-100" name="L"/>
  <anchor x="294" y="1000" name="U"/>
  <outline>
    <contour>
      <point x="77" y="0" type="line"/>
      <point x="526" y="0" type="line"/>
      <point x="526" y="38" type="line"/>
      <point x="410" y="38"/>
      <point x="384" y="64"/>
      <point x="384" y="189" type="curve" smooth="yes"/>
      <point x="384" y="943" type="line"/>
      <point x="342" y="943" type="line"/>
      <point x="64" y="833" type="line"/>
      <point x="77" y="797" type="line"/>
      <point x="108" y="806"/>
      <point x="131" y="812"/>
      <point x="148" y="812" type="curve" smooth="yes"/>
      <point x="203" y="812"/>
      <point x="217" y="766"/>
      <point x="217" y="678" type="curve" smooth="yes"/>
      <point x="217" y="189" type="line" smooth="yes"/>
      <point x="217" y="64"/>
      <point x="193" y="38"/>
      <point x="77" y="38" type="curve"/>
    </contour>
    <contour>
      <point x="301" y="1126" type="curve" smooth="yes"/>
      <point x="360" y="1126"/>
      <point x="402" y="1172"/>
      <point x="402" y="1228" type="curve" smooth="yes"/>
      <point x="402" y="1285"/>
      <point x="357" y="1328"/>
      <point x="301" y="1328" type="curve" smooth="yes"/>
      <point x="246" y="1328"/>
      <point x="199" y="1288"/>
      <point x="199" y="1228" type="curve" smooth="yes"/>
      <point x="199" y="1168"/>
      <point x="244" y="1126"/>
    </contour>
  </outline>
</glyph>
<glyph name="j" format="2">
  <advance width="687"/>
  <unicode hex="006A"/>
  <anchor x="161" y="-500" name="L"/>
  <anchor x="340" y="1000" name="U"/>
  <outline>
    <contour>
      <point x="34" y="-441" type="curve" smooth="yes"/>
      <point x="331" y="-441"/>
      <point x="510" y="-203"/>
      <point x="510" y="111" type="curve" smooth="yes"/>
      <point x="510" y="938" type="line"/>
      <point x="431" y="938" type="line"/>
      <point x="61" y="827" type="line"/>
      <point x="85" y="753" type="line"/>
      <point x="107" y="761"/>
      <point x="149" y="767"/>
      <point x="171" y="767" type="curve" smooth="yes"/>
      <point x="213" y="767"/>
      <point x="226" y="739"/>
      <point x="226" y="633" type="curve" smooth="yes"/>
      <point x="226" y="-81" type="line" smooth="yes"/>
      <point x="226" y="-202"/>
      <point x="226" y="-332"/>
      <point x="150" y="-332" type="curve" smooth="yes"/>
      <point x="67" y="-332"/>
      <point x="83" y="-176"/>
      <point x="-60" y="-176" type="curve" smooth="yes" name="hr01"/>
      <point x="-133" y="-176"/>
      <point x="-183" y="-235"/>
      <point x="-183" y="-292" type="curve" smooth="yes"/>
      <point x="-183" y="-381"/>
      <point x="-101" y="-441"/>
    </contour>
    <contour>
      <point x="363" y="1106" type="curve" smooth="yes"/>
      <point x="455" y="1106"/>
      <point x="530" y="1181"/>
      <point x="530" y="1273" type="curve" smooth="yes"/>
      <point x="530" y="1360"/>
      <point x="451" y="1433"/>
      <point x="363" y="1433" type="curve" smooth="yes"/>
      <point x="276" y="1433"/>
      <point x="200" y="1360"/>
      <point x="200" y="1273" type="curve" smooth="yes"/>
      <point x="200" y="1175"/>
      <point x="270" y="1106"/>
    </contour>
  </outline>
</glyph>
<glyph name="k" format="2">
  <advance width="1159"/>
  <unicode hex="006B"/>
  <anchor x="594" y="-100" name="L"/>
  <anchor x="594" y="1435" name="U"/>
  <outline>
    <contour>
      <point x="55" y="0" type="line"/>
      <point x="561" y="0" type="line"/>
      <point x="561" y="79" type="line"/>
      <point x="476" y="79"/>
      <point x="453" y="92"/>
      <point x="453" y="220" type="curve" smooth="yes"/>
      <point x="453" y="463" type="line"/>
      <point x="665" y="180" type="line" smooth="yes"/>
      <point x="681" y="159"/>
      <point x="698" y="127"/>
      <point x="698" y="113" type="curve" smooth="yes"/>
      <point x="698" y="83"/>
      <point x="665" y="79"/>
      <point x="627" y="79" type="curve"/>
      <point x="627" y="0" type="line"/>
      <point x="1166" y="0" type="line"/>
      <point x="1166" y="79" type="line"/>
      <point x="1103" y="79"/>
      <point x="1065" y="83"/>
      <point x="983" y="195" type="curve" smooth="yes"/>
      <point x="705" y="573" type="line"/>
      <point x="860" y="723" type="line" smooth="yes"/>
      <point x="940" y="801"/>
      <point x="987" y="826"/>
      <point x="1101" y="831" type="curve"/>
      <point x="1101" y="910" type="line"/>
      <point x="640" y="910" type="line"/>
      <point x="640" y="831" type="line"/>
      <point x="671" y="829"/>
      <point x="711" y="814"/>
      <point x="711" y="779" type="curve" smooth="yes"/>
      <point x="711" y="756"/>
      <point x="690" y="732"/>
      <point x="668" y="713" type="curve" smooth="yes"/>
      <point x="453" y="523" type="line"/>
      <point x="453" y="1413" type="line"/>
      <point x="374" y="1413" type="line"/>
      <point x="4" y="1295" type="line"/>
      <point x="38" y="1228" type="line"/>
      <point x="59" y="1236"/>
      <point x="86" y="1243"/>
      <point x="110" y="1243" type="curve" smooth="yes"/>
      <point x="149" y="1243"/>
      <point x="169" y="1213"/>
      <point x="169" y="1108" type="curve" smooth="yes" name="hr01"/>
      <point x="169" y="220" type="line" smooth="yes"/>
      <point x="169" y="110"/>
      <point x="150" y="79"/>
      <point x="55" y="79" type="curve"/>
    </contour>
  </outline>
</glyph>
<glyph name="l" format="2">
  <advance width="698"/>
  <unicode hex="006C"/>
  <anchor x="372" y="-100" name="L"/>
  <anchor x="372" y="1475" name="U"/>
  <outline>
    <contour>
      <point x="625" y="0" type="line"/>
      <point x="625" y="79" type="line"/>
      <point x="542" y="79"/>
      <point x="517" y="99"/>
      <point x="517" y="220" type="curve" smooth="yes"/>
      <point x="517" y="1413" type="line"/>
      <point x="437" y="1413" type="line"/>
      <point x="72" y="1298" type="line"/>
      <point x="103" y="1228" type="line"/>
      <point x="125" y="1236"/>
      <point x="149" y="1243"/>
      <point x="173" y="1243" type="curve" smooth="yes"/>
      <point x="213" y="1243"/>
      <point x="233" y="1213"/>
      <point x="233" y="1108" type="curve" smooth="yes"/>
      <point x="233" y="220" type="line" smooth="yes"/>
      <point x="233" y="110"/>
      <point x="215" y="79"/>
      <point x="119" y="79" type="curve"/>
      <point x="119" y="0" type="line"/>
    </contour>
  </outline>
</glyph>
<glyph name="m" format="2">
  <advance width="1744"/>
  <unicode hex="006D"/>
  <anchor x="900" y="-100" name="L"/>
  <anchor x="900" y="1000" name="U"/>
  <outline>
    <contour>
      <point x="66" y="0" type="line"/>
      <point x="569" y="0" type="line"/>
      <point x="569" y="79" type="line"/>
      <point x="486" y="79"/>
      <point x="462" y="104"/>
      <point x="462" y="220" type="curve" smooth="yes"/>
      <point x="462" y="660" type="line"/>
      <point x="521" y="724"/>
      <point x="592" y="763"/>
      <point x="647" y="763" type="curve" smooth="yes"/>
      <point x="731" y="763"/>
      <point x="761" y="710"/>
      <point x="761" y="579" type="curve" smooth="yes"/>
      <point x="761" y="220" type="line" smooth="yes"/>
      <point x="761" y="88"/>
      <point x="737" y="79"/>
      <point x="652" y="79" type="curve"/>
      <point x="652" y="0" type="line"/>
      <point x="1148" y="0" type="line"/>
      <point x="1148" y="79" type="line"/>
      <point x="1068" y="79"/>
      <point x="1045" y="101"/>
      <point x="1045" y="218" type="curve" smooth="yes"/>
      <point x="1045" y="660" type="line"/>
      <point x="1104" y="724"/>
      <point x="1175" y="763"/>
      <point x="1232" y="763" type="curve" smooth="yes"/>
      <point x="1314" y="763"/>
      <point x="1345" y="710"/>
      <point x="1345" y="578" type="curve" smooth="yes"/>
      <point x="1345" y="220" type="line" smooth="yes"/>
      <point x="1345" y="88"/>
      <point x="1320" y="79"/>
      <point x="1235" y="79" type="curve"/>
      <point x="1235" y="0" type="line"/>
      <point x="1731" y="0" type="line"/>
      <point x="1731" y="79" type="line"/>
      <point x="1652" y="79"/>
      <point x="1630" y="103"/>
      <point x="1630" y="220" type="curve" smooth="yes"/>
      <point x="1630" y="595" type="line" smooth="yes"/>
      <point x="1630" y="760"/>
      <point x="1579" y="938"/>
      <point x="1383" y="938" type="curve" smooth="yes"/>
      <point x="1232" y="938"/>
      <point x="1109" y="856"/>
      <point x="1024" y="759" type="curve"/>
      <point x="991" y="863"/>
      <point x="929" y="938"/>
      <point x="799" y="938" type="curve" smooth="yes"/>
      <point x="647" y="938"/>
      <point x="576" y="851"/>
      <point x="462" y="772" type="curve"/>
      <point x="462" y="938" type="line"/>
      <point x="382" y="938" type="line"/>
      <point x="13" y="827" type="line"/>
      <point x="37" y="753" type="line"/>
      <point x="58" y="761"/>
      <point x="100" y="767"/>
      <point x="123" y="767" type="curve" smooth="yes"/>
      <point x="165" y="767"/>
      <point x="178" y="739"/>
      <point x="178" y="633" type="curve" smooth="yes"/>
      <point x="178" y="220" type="line" smooth="yes"/>
      <point x="178" y="104"/>
      <point x="158" y="79"/>
      <point x="66" y="79" type="curve"/>
    </contour>
  </outline>
</glyph>
<glyph name="n" format="2">
  <advance width="1148"/>
  <unicode hex="006E"/>
  <anchor x="598" y="-100" name="L"/>
  <anchor x="598" y="1000" name="U"/>
  <outline>
    <contour>
      <point x="59" y="0" type="line"/>
      <point x="563" y="0" type="line"/>
      <point x="563" y="79" type="line"/>
      <point x="479" y="79"/>
      <point x="455" y="104"/>
      <point x="455" y="218" type="curve" smooth="yes"/>
      <point x="455" y="660" type="line"/>
      <point x="514" y="724"/>
      <point x="586" y="763"/>
      <point x="641" y="763" type="curve" smooth="yes"/>
      <point x="724" y="763"/>
      <point x="754" y="710"/>
      <point x="754" y="578" type="curve" smooth="yes"/>
      <point x="754" y="218" type="line" smooth="yes"/>
      <point x="754" y="88"/>
      <point x="730" y="79"/>
      <point x="645" y="79" type="curve"/>
      <point x="645" y="0" type="line"/>
      <point x="1141" y="0" type="line"/>
      <point x="1141" y="79" type="line"/>
      <point x="1062" y="79"/>
      <point x="1038" y="103"/>
      <point x="1038" y="218" type="curve" smooth="yes"/>
      <point x="1038" y="595" type="line" smooth="yes"/>
      <point x="1038" y="759"/>
      <point x="990" y="938"/>
      <point x="793" y="938" type="curve" smooth="yes"/>
      <point x="641" y="938"/>
      <point x="569" y="851"/>
      <point x="455" y="772" type="curve"/>
      <point x="455" y="938" type="line"/>
      <point x="376" y="938" type="line"/>
      <point x="6" y="827" type="line"/>
      <point x="30" y="753" type="line"/>
      <point x="52" y="761"/>
      <point x="93" y="767"/>
      <point x="116" y="767" type="curve" smooth="yes"/>
      <point x="158" y="767"/>
      <point x="171" y="739"/>
      <point x="171" y="633" type="curve" smooth="yes"/>
      <point x="171" y="218" type="line" smooth="yes"/>
      <point x="171" y="103"/>
      <point x="152" y="79"/>
      <point x="59" y="79" type="curve"/>
    </contour>
  </outline>
</glyph>
<glyph name="o" format="2">
  <advance width="1026"/>
  <unicode hex="006F"/>
  <anchor x="512" y="-100" name="L"/>
  <anchor x="512" y="1000" name="U"/>
  <outline>
    <contour>
      <point x="503" y="-30" type="curve" smooth="yes"/>
      <point x="805" y="-30"/>
      <point x="954" y="239"/>
      <point x="954" y="475" type="curve" smooth="yes"/>
      <point x="954" y="738"/>
      <point x="777" y="943"/>
      <point x="512" y="943" type="curve" smooth="yes"/>
      <point x="237" y="943"/>
      <point x="69" y="697"/>
      <point x="69" y="450" type="curve" smooth="yes"/>
      <point x="69" y="195"/>
      <point x="245" y="-30"/>
    </contour>
    <contour>
      <point x="544" y="43" type="curve" smooth="yes"/>
      <point x="369" y="43"/>
      <point x="254" y="270"/>
      <point x="254" y="532" type="curve" smooth="yes"/>
      <point x="254" y="798"/>
      <point x="377" y="880"/>
      <point x="481" y="880" type="curve" smooth="yes"/>
      <point x="657" y="880"/>
      <point x="767" y="669"/>
      <point x="767" y="398" type="curve" smooth="yes"/>
      <point x="767" y="136"/>
      <point x="678" y="43"/>
    </contour>
  </outline>
</glyph>
<glyph name="p" format="2">
  <advance width="1026"/>
  <unicode hex="0070"/>
  <anchor x="473" y="-500" name="L"/>
  <anchor x="473" y="1000" name="U"/>
  <outline>
    <contour>
      <point x="-12" y="-440" type="line"/>
      <point x="474" y="-440" type="line"/>
      <point x="474" y="-402" type="line"/>
      <point x="326" y="-397"/>
      <point x="319" y="-369"/>
      <point x="319" y="-224" type="curve" smooth="yes"/>
      <point x="319" y="53" type="line"/>
      <point x="402" y="-25"/>
      <point x="480" y="-30"/>
      <point x="536" y="-30" type="curve" smooth="yes"/>
      <point x="785" y="-30"/>
      <point x="957" y="205"/>
      <point x="957" y="493" type="curve" smooth="yes"/>
      <point x="957" y="747"/>
      <point x="815" y="943"/>
      <point x="613" y="943" type="curve" smooth="yes"/>
      <point x="505" y="943"/>
      <point x="409" y="886"/>
      <point x="319" y="727" type="curve"/>
      <point x="319" y="941" type="line"/>
      <point x="281" y="941" type="line"/>
      <point x="-6" y="827" type="line"/>
      <point x="6" y="792" type="line"/>
      <point x="63" y="817"/>
      <point x="94" y="810"/>
      <point x="115" y="797" type="curve"/>
      <point x="147" y="771"/>
      <point x="148" y="750"/>
      <point x="148" y="647" type="curve" smooth="yes"/>
      <point x="148" y="-220" type="line" smooth="yes"/>
      <point x="148" y="-373"/>
      <point x="137" y="-397"/>
      <point x="-12" y="-402" type="curve"/>
    </contour>
    <contour>
      <point x="532" y="32" type="curve" smooth="yes"/>
      <point x="414" y="32"/>
      <point x="348" y="107"/>
      <point x="327" y="177" type="curve"/>
      <point x="322" y="203"/>
      <point x="319" y="252"/>
      <point x="319" y="323" type="curve" smooth="yes"/>
      <point x="319" y="666" type="line"/>
      <point x="401" y="756"/>
      <point x="452" y="820"/>
      <point x="532" y="820" type="curve" smooth="yes"/>
      <point x="675" y="820"/>
      <point x="797" y="695"/>
      <point x="797" y="398" type="curve" smooth="yes"/>
      <point x="797" y="171"/>
      <point x="690" y="32"/>
    </contour>
  </outline>
</glyph>
<glyph name="q" format="2">
  <advance width="1126"/>
  <unicode hex="0071"/>
  <anchor x="549" y="-500" name="L"/>
  <anchor x="549" y="1000" name="U"/>
  <outline>
    <contour>
      <point x="576" y="-437" type="line"/>
      <point x="1139" y="-437" type="line"/>
      <point x="1139" y="-358" type="line"/>
      <point x="1007" y="-358"/>
      <point x="990" y="-319"/>
      <point x="990" y="-235" type="curve" smooth="yes"/>
      <point x="990" y="938" type="line"/>
      <point x="929" y="938" type="line"/>
      <point x="888" y="919"/>
      <point x="836" y="865"/>
      <point x="794" y="847" type="curve"/>
      <point x="740" y="891"/>
      <point x="649" y="938"/>
      <point x="542" y="938" type="curve" smooth="yes"/>
      <point x="269" y="938"/>
      <point x="66" y="698"/>
      <point x="66" y="414" type="curve" smooth="yes"/>
      <point x="66" y="106"/>
      <point x="268" y="-30"/>
      <point x="442" y="-30" type="curve" smooth="yes"/>
      <point x="547" y="-30"/>
      <point x="625" y="7"/>
      <point x="711" y="97" type="curve"/>
      <point x="711" y="-235" type="line" smooth="yes"/>
      <point x="711" y="-322"/>
      <point x="708" y="-358"/>
      <point x="576" y="-358" type="curve"/>
    </contour>
    <contour>
      <point x="554" y="119" type="curve" smooth="yes"/>
      <point x="454" y="119"/>
      <point x="342" y="250"/>
      <point x="342" y="501" type="curve" smooth="yes"/>
      <point x="342" y="761"/>
      <point x="429" y="853"/>
      <point x="548" y="853" type="curve" smooth="yes"/>
      <point x="658" y="853"/>
      <point x="711" y="760"/>
      <point x="711" y="675" type="curve" smooth="yes"/>
      <point x="711" y="205" type="line"/>
      <point x="661" y="154"/>
      <point x="612" y="119"/>
    </contour>
  </outline>
</glyph>
<glyph name="r" format="2">
  <advance width="891"/>
  <unicode hex="0072"/>
  <anchor x="353" y="-100" name="L"/>
  <anchor x="353" y="1000" name="U"/>
  <outline>
    <contour>
      <point x="726" y="938" type="curve" smooth="yes"/>
      <point x="618" y="938"/>
      <point x="515" y="842"/>
      <point x="455" y="745" type="curve"/>
      <point x="455" y="938" type="line"/>
      <point x="376" y="938" type="line"/>
      <point x="6" y="827" type="line"/>
      <point x="30" y="753" type="line"/>
      <point x="50" y="761"/>
      <point x="94" y="767"/>
      <point x="116" y="767" type="curve" smooth="yes" name="hr01"/>
      <point x="158" y="767"/>
      <point x="171" y="739"/>
      <point x="171" y="633" type="curve" smooth="yes"/>
      <point x="171" y="218" type="line" smooth="yes"/>
      <point x="171" y="103"/>
      <point x="152" y="79"/>
      <point x="59" y="79" type="curve"/>
      <point x="59" y="0" type="line"/>
      <point x="563" y="0" type="line"/>
      <point x="563" y="79" type="line"/>
      <point x="479" y="79"/>
      <point x="455" y="104"/>
      <point x="455" y="218" type="curve" smooth="yes"/>
      <point x="455" y="594" type="line"/>
      <point x="497" y="678"/>
      <point x="548" y="756"/>
      <point x="587" y="756" type="curve" smooth="yes"/>
      <point x="638" y="756"/>
      <point x="661" y="668"/>
      <point x="766" y="668" type="curve" smooth="yes" name="hr02"/>
      <point x="847" y="668"/>
      <point x="884" y="731"/>
      <point x="884" y="799" type="curve" smooth="yes"/>
      <point x="884" y="885"/>
      <point x="811" y="938"/>
    </contour>
  </outline>
</glyph>
<glyph name="s" format="2">
  <advance width="798"/>
  <unicode hex="0073"/>
  <anchor x="413" y="-100" name="L"/>
  <anchor x="413" y="1000" name="U"/>
  <outline>
    <contour>
      <point x="420" y="-30" type="curve" smooth="yes"/>
      <point x="582" y="-30"/>
      <point x="727" y="91"/>
      <point x="727" y="231" type="curve" smooth="yes"/>
      <point x="727" y="348"/>
      <point x="655" y="441"/>
      <point x="515" y="504" type="curve"/>
      <point x="367" y="574" type="line"/>
      <point x="241" y="636"/>
      <point x="214" y="690"/>
      <point x="217" y="766" type="curve"/>
      <point x="218" y="837"/>
      <point x="273" y="885"/>
      <point x="396" y="885" type="curve" smooth="yes"/>
      <point x="507" y="885"/>
      <point x="598" y="828"/>
      <point x="643" y="630" type="curve"/>
      <point x="676" y="630" type="line"/>
      <point x="676" y="943" type="line"/>
      <point x="643" y="943" type="line"/>
      <point x="627" y="911"/>
      <point x="617" y="907"/>
      <point x="598" y="907" type="curve" smooth="yes"/>
      <point x="566" y="907"/>
      <point x="480" y="943"/>
      <point x="398" y="943" type="curve" smooth="yes"/>
      <point x="207" y="943"/>
      <point x="100" y="834"/>
      <point x="100" y="698" type="curve" smooth="yes"/>
      <point x="100" y="584"/>
      <point x="152" y="514"/>
      <point x="345" y="412" type="curve"/>
      <point x="544" y="311"/>
      <point x="580" y="258"/>
      <point x="577" y="167" type="curve"/>
      <point x="577" y="95"/>
      <point x="518" y="32"/>
      <point x="420" y="32" type="curve" smooth="yes"/>
      <point x="290" y="32"/>
      <point x="172" y="128"/>
      <point x="138" y="314" type="curve"/>
      <point x="105" y="314" type="line"/>
      <point x="105" y="-13" type="line"/>
      <point x="138" y="-13" type="line"/>
      <point x="146" y="4"/>
      <point x="158" y="32"/>
      <point x="174" y="32" type="curve"/>
      <point x="234" y="24"/>
      <point x="321" y="-30"/>
    </contour>
  </outline>
</glyph>
<glyph name="t" format="2">
  <advance width="570"/>
  <unicode hex="0074"/>
  <anchor x="293" y="-100" name="L"/>
  <anchor x="285" y="1298" name="U"/>
  <outline>
    <contour>
      <point x="343" y="-30" type="curve" smooth="yes"/>
      <point x="422" y="-30"/>
      <point x="531" y="33"/>
      <point x="573" y="167" type="curve"/>
      <point x="532" y="167" type="line"/>
      <point x="508" y="115"/>
      <point x="471" y="82"/>
      <point x="420" y="85" type="curve" smooth="yes"/>
      <point x="369" y="88"/>
      <point x="329" y="118"/>
      <point x="329" y="237" type="curve" smooth="yes"/>
      <point x="329" y="849" type="line"/>
      <point x="544" y="849" type="line"/>
      <point x="544" y="917" type="line"/>
      <point x="329" y="917" type="line"/>
      <point x="329" y="1219" type="line"/>
      <point x="299" y="1219" type="line"/>
      <point x="242" y="1086"/>
      <point x="222" y="1062"/>
      <point x="186" y="1015" type="curve"/>
      <point x="134" y="954"/>
      <point x="70" y="900"/>
      <point x="15" y="880" type="curve"/>
      <point x="15" y="849" type="line"/>
      <point x="162" y="849" type="line"/>
      <point x="162" y="213" type="line" smooth="yes"/>
      <point x="162" y="8"/>
      <point x="256" y="-30"/>
    </contour>
  </outline>
</glyph>
<glyph name="u" format="2">
  <advance width="1148"/>
  <unicode hex="0075"/>
  <anchor x="573" y="-100" name="L"/>
  <anchor x="573" y="1000" name="U"/>
  <outline>
    <contour>
      <point x="1148" y="80" type="line"/>
      <point x="1124" y="154" type="line"/>
      <point x="1102" y="146"/>
      <point x="1061" y="139"/>
      <point x="1038" y="139" type="curve" smooth="yes"/>
      <point x="996" y="139"/>
      <point x="983" y="169"/>
      <point x="983" y="275" type="curve" smooth="yes"/>
      <point x="983" y="910" type="line"/>
      <point x="565" y="910" type="line"/>
      <point x="565" y="829" type="line"/>
      <point x="675" y="829"/>
      <point x="699" y="805"/>
      <point x="699" y="688" type="curve" smooth="yes"/>
      <point x="699" y="261" type="line"/>
      <point x="640" y="192"/>
      <point x="568" y="145"/>
      <point x="513" y="145" type="curve" smooth="yes"/>
      <point x="430" y="145"/>
      <point x="400" y="198"/>
      <point x="400" y="330" type="curve" smooth="yes"/>
      <point x="400" y="910" type="line"/>
      <point x="-13" y="910" type="line"/>
      <point x="-13" y="829" type="line"/>
      <point x="92" y="829"/>
      <point x="116" y="805"/>
      <point x="116" y="688" type="curve" smooth="yes"/>
      <point x="116" y="312" type="line" smooth="yes"/>
      <point x="116" y="126"/>
      <point x="165" y="-30"/>
      <point x="361" y="-30" type="curve" smooth="yes"/>
      <point x="513" y="-30"/>
      <point x="632" y="74"/>
      <point x="699" y="149" type="curve"/>
      <point x="699" y="-30" type="line"/>
      <point x="778" y="-30" type="line"/>
    </contour>
  </outline>
</glyph>
<glyph name="v" format="2">
  <advance width="1036"/>
  <unicode hex="0076"/>
  <anchor x="552" y="-100" name="L"/>
  <anchor x="552" y="1000" name="U"/>
  <outline>
    <contour>
      <point x="484" y="-30" type="line"/>
      <point x="563" y="-30" type="line"/>
      <point x="882" y="711" type="line" smooth="yes"/>
      <point x="914" y="785"/>
      <point x="949" y="827"/>
      <point x="1034" y="831" type="curve"/>
      <point x="1034" y="910" type="line"/>
      <point x="668" y="910" type="line"/>
      <point x="668" y="831" type="line"/>
      <point x="744" y="831"/>
      <point x="777" y="806"/>
      <point x="777" y="763" type="curve" smooth="yes"/>
      <point x="777" y="745"/>
      <point x="771" y="724"/>
      <point x="761" y="700" type="curve" smooth="yes"/>
      <point x="611" y="345" type="line"/>
      <point x="467" y="675" type="line" smooth="yes"/>
      <point x="430" y="761"/>
      <point x="431" y="831"/>
      <point x="548" y="831" type="curve"/>
      <point x="548" y="910" type="line"/>
      <point x="-2" y="910" type="line"/>
      <point x="-2" y="831" type="line"/>
      <point x="86" y="817"/>
      <point x="119" y="805"/>
      <point x="165" y="700" type="curve" smooth="yes"/>
    </contour>
  </outline>
</glyph>
<glyph name="w" format="2">
  <advance width="1511"/>
  <unicode hex="0077"/>
  <anchor x="737" y="-100" name="L"/>
  <anchor x="737" y="1000" name="U"/>
  <outline>
    <contour>
      <point x="451" y="-30" type="line"/>
      <point x="528" y="-30" type="line"/>
      <point x="773" y="473" type="line"/>
      <point x="981" y="-30" type="line"/>
      <point x="1058" y="-30" type="line"/>
      <point x="1361" y="717" type="line" smooth="yes"/>
      <point x="1399" y="810"/>
      <point x="1444" y="822"/>
      <point x="1509" y="831" type="curve"/>
      <point x="1509" y="910" type="line"/>
      <point x="1156" y="910" type="line"/>
      <point x="1156" y="831" type="line"/>
      <point x="1226" y="831"/>
      <point x="1269" y="805"/>
      <point x="1247" y="741" type="curve"/>
      <point x="1104" y="365" type="line"/>
      <point x="968" y="721" type="line" smooth="yes"/>
      <point x="935" y="809"/>
      <point x="983" y="831"/>
      <point x="1054" y="831" type="curve"/>
      <point x="1054" y="910" type="line"/>
      <point x="553" y="910" type="line"/>
      <point x="553" y="831" type="line"/>
      <point x="651" y="829"/>
      <point x="661" y="764"/>
      <point x="721" y="607" type="curve"/>
      <point x="586" y="328" type="line"/>
      <point x="430" y="695" type="line" smooth="yes"/>
      <point x="420" y="718"/>
      <point x="409" y="751"/>
      <point x="409" y="771" type="curve" smooth="yes"/>
      <point x="409" y="812"/>
      <point x="429" y="831"/>
      <point x="486" y="831" type="curve"/>
      <point x="486" y="910" type="line"/>
      <point x="-2" y="910" type="line"/>
      <point x="-2" y="831" type="line"/>
      <point x="77" y="818"/>
      <point x="109" y="783"/>
      <point x="146" y="695" type="curve" smooth="yes"/>
    </contour>
  </outline>
</glyph>
<glyph name="x" format="2">
  <advance width="1058"/>
  <unicode hex="0078"/>
  <anchor x="534" y="-100" name="L"/>
  <anchor x="534" y="1000" name="U"/>
  <outline>
    <contour>
      <point x="35" y="0" type="line"/>
      <point x="411" y="0" type="line"/>
      <point x="411" y="79" type="line"/>
      <point x="374" y="79"/>
      <point x="344" y="99"/>
      <point x="344" y="123" type="curve" smooth="yes"/>
      <point x="344" y="156"/>
      <point x="396" y="235"/>
      <point x="474" y="328" type="curve"/>
      <point x="501" y="286"/>
      <point x="599" y="143"/>
      <point x="599" y="126" type="curve" smooth="yes"/>
      <point x="599" y="91"/>
      <point x="565" y="79"/>
      <point x="512" y="79" type="curve"/>
      <point x="512" y="0" type="line"/>
      <point x="1048" y="0" type="line"/>
      <point x="1048" y="79" type="line"/>
      <point x="977" y="79"/>
      <point x="961" y="104"/>
      <point x="895" y="200" type="curve" smooth="yes"/>
      <point x="653" y="553" type="line"/>
      <point x="757" y="679"/>
      <point x="839" y="827"/>
      <point x="976" y="831" type="curve"/>
      <point x="976" y="910" type="line"/>
      <point x="641" y="910" type="line"/>
      <point x="641" y="831" type="line"/>
      <point x="667" y="831"/>
      <point x="697" y="817"/>
      <point x="697" y="796" type="curve" smooth="yes"/>
      <point x="697" y="776"/>
      <point x="607" y="665"/>
      <point x="589" y="644" type="curve"/>
      <point x="577" y="662"/>
      <point x="490" y="773"/>
      <point x="490" y="787" type="curve" smooth="yes"/>
      <point x="490" y="812"/>
      <point x="502" y="831"/>
      <point x="548" y="831" type="curve"/>
      <point x="548" y="910" type="line"/>
      <point x="13" y="910" type="line"/>
      <point x="13" y="831" type="line"/>
      <point x="77" y="831"/>
      <point x="116" y="820"/>
      <point x="183" y="730" type="curve" smooth="yes"/>
      <point x="409" y="424" type="line"/>
      <point x="246" y="209" type="line" smooth="yes"/>
      <point x="171" y="110"/>
      <point x="110" y="79"/>
      <point x="35" y="79" type="curve"/>
    </contour>
  </outline>
</glyph>
<glyph name="y" format="2">
  <advance width="1057"/>
  <unicode hex="0079"/>
  <anchor x="493" y="-500" name="L"/>
  <anchor x="530" y="1000" name="U"/>
  <outline>
    <contour>
      <point x="193" y="-441" type="curve" smooth="yes"/>
      <point x="321" y="-441"/>
      <point x="455" y="-352"/>
      <point x="547" y="-134" type="curve" smooth="yes"/>
      <point x="903" y="711" type="line" smooth="yes"/>
      <point x="935" y="786"/>
      <point x="970" y="827"/>
      <point x="1054" y="831" type="curve"/>
      <point x="1054" y="910" type="line"/>
      <point x="690" y="910" type="line"/>
      <point x="690" y="831" type="line"/>
      <point x="765" y="831"/>
      <point x="798" y="806"/>
      <point x="798" y="763" type="curve" smooth="yes"/>
      <point x="798" y="739"/>
      <point x="793" y="724"/>
      <point x="783" y="700" type="curve" smooth="yes"/>
      <point x="633" y="343" type="line"/>
      <point x="488" y="675" type="line" smooth="yes"/>
      <point x="474" y="708"/>
      <point x="467" y="738"/>
      <point x="467" y="761" type="curve" smooth="yes"/>
      <point x="467" y="807"/>
      <point x="495" y="831"/>
      <point x="569" y="831" type="curve"/>
      <point x="569" y="910" type="line"/>
      <point x="18" y="910" type="line"/>
      <point x="18" y="831" type="line"/>
      <point x="107" y="817"/>
      <point x="139" y="805"/>
      <point x="185" y="700" type="curve" smooth="yes"/>
      <point x="489" y="6" type="line"/>
      <point x="454" y="-84"/>
      <point x="389" y="-255"/>
      <point x="323" y="-255" type="curve" smooth="yes"/>
      <point x="248" y="-255"/>
      <point x="235" y="-152"/>
      <point x="123" y="-152" type="curve" smooth="yes" name="hr01"/>
      <point x="63" y="-152"/>
      <point x="-2" y="-189"/>
      <point x="-2" y="-286" type="curve" smooth="yes"/>
      <point x="-2" y="-390"/>
      <point x="104" y="-441"/>
    </contour>
  </outline>
</glyph>
<glyph name="z" format="2">
  <advance width="996"/>
  <unicode hex="007A"/>
  <anchor x="529" y="-100" name="L"/>
  <anchor x="529" y="1000" name="U"/>
  <outline>
    <contour>
      <point x="105" y="0" type="line"/>
      <point x="935" y="0" type="line"/>
      <point x="948" y="371" type="line"/>
      <point x="873" y="371" type="line"/>
      <point x="851" y="170"/>
      <point x="793" y="107"/>
      <point x="646" y="107" type="curve" smooth="yes"/>
      <point x="469" y="107" type="line"/>
      <point x="964" y="831" type="line"/>
      <point x="964" y="910" type="line"/>
      <point x="172" y="910" type="line"/>
      <point x="167" y="565" type="line"/>
      <point x="244" y="565" type="line"/>
      <point x="261" y="720"/>
      <point x="298" y="800"/>
      <point x="449" y="800" type="curve" smooth="yes"/>
      <point x="599" y="800" type="line"/>
      <point x="105" y="79" type="line"/>
    </contour>
  </outline>
</glyph>
<glyph name="braceleft" format="2">
  <advance width="869"/>
  <unicode hex="007B"/>
  <outline>
    <contour>
      <point x="717" y="-409" type="curve"/>
      <point x="717" y="-363" type="line"/>
      <point x="629" y="-363"/>
      <point x="523" y="-278"/>
      <point x="523" y="-176" type="curve" smooth="yes"/>
      <point x="523" y="-44"/>
      <point x="573" y="33"/>
      <point x="573" y="158" type="curve" smooth="yes" name="hr01"/>
      <point x="573" y="332"/>
      <point x="424" y="451"/>
      <point x="270" y="482" type="curve"/>
      <point x="424" y="514"/>
      <point x="573" y="635"/>
      <point x="573" y="810" type="curve" smooth="yes"/>
      <point x="573" y="936"/>
      <point x="523" y="1012"/>
      <point x="523" y="1146" type="curve" smooth="yes" name="hr02"/>
      <point x="523" y="1247"/>
      <point x="629" y="1332"/>
      <point x="717" y="1332" type="curve"/>
      <point x="717" y="1378" type="line"/>
      <point x="583" y="1378"/>
      <point x="304" y="1332"/>
      <point x="304" y="1067" type="curve" smooth="yes"/>
      <point x="304" y="932"/>
      <point x="358" y="863"/>
      <point x="358" y="727" type="curve" smooth="yes" name="hr03"/>
      <point x="358" y="619"/>
      <point x="270" y="514"/>
      <point x="165" y="514" type="curve"/>
      <point x="165" y="451" type="line"/>
      <point x="270" y="451"/>
      <point x="358" y="349"/>
      <point x="358" y="242" type="curve" smooth="yes"/>
      <point x="358" y="106"/>
      <point x="304" y="35"/>
      <point x="304" y="-97" type="curve" smooth="yes" name="hr04"/>
      <point x="304" y="-358"/>
      <point x="583" y="-409"/>
    </contour>
  </outline>
</glyph>
<glyph name="bar" format="2">
  <advance width="448"/>
  <unicode hex="007C"/>
  <outline>
    <contour>
      <point x="158" y="-504" type="line"/>
      <point x="290" y="-504" type="line"/>
      <point x="290" y="1570" type="line"/>
      <point x="158" y="1570" type="line"/>
    </contour>
  </outline>
</glyph>
<glyph name="braceright" format="2">
  <advance width="869"/>
  <unicode hex="007D"/>
  <outline>
    <contour>
      <point x="704" y="451" type="curve"/>
      <point x="704" y="514" type="line"/>
      <point x="598" y="514"/>
      <point x="509" y="619"/>
      <point x="509" y="727" type="curve" smooth="yes"/>
      <point x="509" y="863"/>
      <point x="562" y="932"/>
      <point x="562" y="1067" type="curve" smooth="yes" name="hr01"/>
      <point x="562" y="1332"/>
      <point x="283" y="1378"/>
      <point x="151" y="1378" type="curve"/>
      <point x="151" y="1332" type="line"/>
      <point x="238" y="1332"/>
      <point x="344" y="1247"/>
      <point x="344" y="1146" type="curve" smooth="yes"/>
      <point x="344" y="1012"/>
      <point x="295" y="936"/>
      <point x="295" y="810" type="curve" smooth="yes" name="hr02"/>
      <point x="295" y="635"/>
      <point x="442" y="514"/>
      <point x="598" y="482" type="curve"/>
      <point x="442" y="451"/>
      <point x="295" y="332"/>
      <point x="295" y="158" type="curve" smooth="yes"/>
      <point x="295" y="33"/>
      <point x="344" y="-44"/>
      <point x="344" y="-176" type="curve" smooth="yes" name="hr03"/>
      <point x="344" y="-278"/>
      <point x="238" y="-363"/>
      <point x="151" y="-363" type="curve"/>
      <point x="151" y="-409" type="line"/>
      <point x="283" y="-409"/>
      <point x="562" y="-358"/>
      <point x="562" y="-97" type="curve" smooth="yes"/>
      <point x="562" y="35"/>
      <point x="509" y="106"/>
      <point x="509" y="242" type="curve" smooth="yes" name="hr04"/>
      <point x="509" y="349"/>
      <point x="598" y="451"/>
    </contour>
  </outline>
</glyph>
<glyph name="asciitilde" format="2">
  <advance width="1119"/>
  <unicode hex="007E"/>
  <outline>
    <contour>
      <point x="1089" y="657" type="curve"/>
      <point x="1014" y="741" type="line"/>
      <point x="970" y="655"/>
      <point x="903" y="563"/>
      <point x="799" y="563" type="curve" smooth="yes" name="hr01"/>
      <point x="671" y="563"/>
      <point x="497" y="741"/>
      <point x="322" y="741" type="curve" smooth="yes" name="hr02"/>
      <point x="176" y="741"/>
      <point x="83" y="572"/>
      <point x="24" y="457" type="curve"/>
      <point x="94" y="368" type="line"/>
      <point x="144" y="451"/>
      <point x="203" y="556"/>
      <point x="311" y="556" type="curve" smooth="yes"/>
      <point x="473" y="556"/>
      <point x="624" y="383"/>
      <point x="789" y="383" type="curve" smooth="yes" name="hr03"/>
      <point x="924" y="383"/>
      <point x="1040" y="530"/>
    </contour>
  </outline>
</glyph>
<glyph name="exclamdown" format="2">
  <advance width="678"/>
  <unicode hex="00A1"/>
  <outline>
    <contour>
      <point x="480" y="806" type="curve" smooth="yes"/>
      <point x="480" y="884"/>
      <point x="418" y="949"/>
      <point x="338" y="949" type="curve" smooth="yes"/>
      <point x="259" y="949"/>
      <point x="195" y="884"/>
      <point x="195" y="806" type="curve" smooth="yes"/>
      <point x="195" y="728"/>
      <point x="259" y="665"/>
      <point x="338" y="665" type="curve" smooth="yes"/>
      <point x="418" y="665"/>
      <point x="480" y="728"/>
    </contour>
    <contour>
      <point x="492" y="-251" type="curve" smooth="yes"/>
      <point x="492" y="-216"/>
      <point x="487" y="-183"/>
      <point x="479" y="-136" type="curve"/>
      <point x="378" y="583" type="line"/>
      <point x="299" y="583" type="line"/>
      <point x="198" y="-136" type="line"/>
      <point x="193" y="-163"/>
      <point x="185" y="-226"/>
      <point x="185" y="-243" type="curve" smooth="yes"/>
      <point x="185" y="-352"/>
      <point x="248" y="-440"/>
      <point x="336" y="-440" type="curve" smooth="yes"/>
      <point x="442" y="-440"/>
      <point x="492" y="-342"/>
    </contour>
  </outline>
</glyph>
<glyph name="cent" format="2">
  <advance width="1038"/>
  <unicode hex="00A2"/>
  <outline>
    <contour>
      <point x="860" y="361" type="line"/>
      <point x="797" y="205"/>
      <point x="712" y="182"/>
      <point x="647" y="182" type="curve" smooth="yes"/>
      <point x="576" y="182"/>
      <point x="514" y="212"/>
      <point x="464" y="264" type="curve"/>
      <point x="633" y="727" type="line"/>
      <point x="635" y="716"/>
      <point x="637" y="706"/>
      <point x="640" y="695" type="curve" smooth="yes"/>
      <point x="654" y="632"/>
      <point x="681" y="573"/>
      <point x="777" y="573" type="curve" smooth="yes"/>
      <point x="858" y="573"/>
      <point x="897" y="624"/>
      <point x="897" y="697" type="curve" smooth="yes"/>
      <point x="897" y="766"/>
      <point x="840" y="870"/>
      <point x="700" y="915" type="curve"/>
      <point x="849" y="1318" type="line"/>
      <point x="752" y="1318" type="line"/>
      <point x="612" y="935" type="line"/>
      <point x="589" y="937"/>
      <point x="567" y="938"/>
      <point x="542" y="938" type="curve" smooth="yes"/>
      <point x="324" y="938"/>
      <point x="119" y="734"/>
      <point x="119" y="420" type="curve" smooth="yes"/>
      <point x="119" y="262"/>
      <point x="182" y="126"/>
      <point x="289" y="46" type="curve"/>
      <point x="136" y="-376" type="line"/>
      <point x="232" y="-376" type="line"/>
      <point x="369" y="0" type="line"/>
      <point x="416" y="-18"/>
      <point x="469" y="-30"/>
      <point x="528" y="-30" type="curve" smooth="yes"/>
      <point x="761" y="-30"/>
      <point x="880" y="152"/>
      <point x="918" y="336" type="curve"/>
    </contour>
    <contour>
      <point x="401" y="355" type="line"/>
      <point x="367" y="426"/>
      <point x="347" y="514"/>
      <point x="347" y="612" type="curve" smooth="yes"/>
      <point x="347" y="760"/>
      <point x="403" y="840"/>
      <point x="500" y="840" type="curve" smooth="yes" name="hr01"/>
      <point x="530" y="840"/>
      <point x="554" y="833"/>
      <point x="572" y="823" type="curve"/>
    </contour>
  </outline>
</glyph>
<glyph name="sterling" format="2">
  <advance width="1038"/>
  <unicode hex="00A3"/>
  <outline>
    <contour>
      <point x="1027" y="447" type="curve"/>
      <point x="963" y="462" type="line"/>
      <point x="922" y="304"/>
      <point x="816" y="253"/>
      <point x="699" y="253" type="curve" smooth="yes"/>
      <point x="639" y="253"/>
      <point x="576" y="273"/>
      <point x="481" y="304" type="curve"/>
      <point x="508" y="414"/>
      <point x="515" y="530"/>
      <point x="515" y="618" type="curve"/>
      <point x="746" y="618" type="line"/>
      <point x="746" y="751" type="line"/>
      <point x="515" y="751" type="line"/>
      <point x="505" y="845"/>
      <point x="495" y="946"/>
      <point x="495" y="1043" type="curve" smooth="yes"/>
      <point x="495" y="1166"/>
      <point x="497" y="1292"/>
      <point x="583" y="1292" type="curve" smooth="yes"/>
      <point x="654" y="1292"/>
      <point x="666" y="1235"/>
      <point x="673" y="1173" type="curve" smooth="yes"/>
      <point x="682" y="1097"/>
      <point x="690" y="1012"/>
      <point x="797" y="1012" type="curve" smooth="yes" name="hr01"/>
      <point x="897" y="1012"/>
      <point x="925" y="1089"/>
      <point x="925" y="1147" type="curve" smooth="yes"/>
      <point x="925" y="1287"/>
      <point x="785" y="1378"/>
      <point x="607" y="1378" type="curve" smooth="yes"/>
      <point x="309" y="1378"/>
      <point x="211" y="1168"/>
      <point x="211" y="949" type="curve" smooth="yes"/>
      <point x="211" y="882"/>
      <point x="220" y="818"/>
      <point x="224" y="751" type="curve"/>
      <point x="33" y="751" type="line"/>
      <point x="33" y="618" type="line"/>
      <point x="238" y="618" type="line"/>
      <point x="250" y="528"/>
      <point x="257" y="439"/>
      <point x="259" y="349" type="curve"/>
      <point x="245" y="350"/>
      <point x="226" y="355"/>
      <point x="186" y="354" type="curve" smooth="yes"/>
      <point x="92" y="352"/>
      <point x="11" y="285"/>
      <point x="11" y="156" type="curve" smooth="yes"/>
      <point x="11" y="64"/>
      <point x="60" y="-24"/>
      <point x="178" y="-24" type="curve" smooth="yes"/>
      <point x="279" y="-24"/>
      <point x="352" y="30"/>
      <point x="403" y="110" type="curve"/>
      <point x="469" y="44"/>
      <point x="540" y="-24"/>
      <point x="671" y="-24" type="curve" smooth="yes"/>
      <point x="891" y="-24"/>
      <point x="991" y="212"/>
    </contour>
    <contour>
      <point x="256" y="224" type="curve"/>
      <point x="249" y="151"/>
      <point x="229" y="74"/>
      <point x="171" y="74" type="curve" smooth="yes"/>
      <point x="127" y="74"/>
      <point x="112" y="113"/>
      <point x="112" y="152" type="curve" smooth="yes"/>
      <point x="112" y="195"/>
      <point x="132" y="237"/>
      <point x="199" y="237" type="curve" smooth="yes"/>
      <point x="218" y="237"/>
      <point x="237" y="232"/>
    </contour>
  </outline>
</glyph>
<glyph name="currency" format="2">
  <advance width="1175"/>
  <unicode hex="00A4"/>
  <outline>
    <contour>
      <point x="1028" y="295" type="line"/>
      <point x="1134" y="401" type="line"/>
      <point x="931" y="606" type="line"/>
      <point x="977" y="667"/>
      <point x="1003" y="752"/>
      <point x="1003" y="838" type="curve" smooth="yes"/>
      <point x="1003" y="922"/>
      <point x="979" y="1008"/>
      <point x="926" y="1075" type="curve"/>
      <point x="1134" y="1282" type="line"/>
      <point x="1028" y="1391" type="line"/>
      <point x="818" y="1181" type="line"/>
      <point x="760" y="1227"/>
      <point x="673" y="1251"/>
      <point x="586" y="1251" type="curve" smooth="yes"/>
      <point x="501" y="1251"/>
      <point x="416" y="1228"/>
      <point x="356" y="1181" type="curve"/>
      <point x="146" y="1391" type="line"/>
      <point x="40" y="1282" type="line"/>
      <point x="249" y="1073" type="line"/>
      <point x="199" y="1004"/>
      <point x="176" y="918"/>
      <point x="176" y="833" type="curve" smooth="yes"/>
      <point x="176" y="750"/>
      <point x="199" y="667"/>
      <point x="245" y="608" type="curve"/>
      <point x="39" y="402" type="line"/>
      <point x="146" y="295" type="line"/>
      <point x="352" y="500" type="line"/>
      <point x="422" y="451"/>
      <point x="506" y="424"/>
      <point x="589" y="424" type="curve" smooth="yes"/>
      <point x="672" y="424"/>
      <point x="754" y="448"/>
      <point x="825" y="497" type="curve"/>
    </contour>
    <contour>
      <point x="839" y="839" type="curve" smooth="yes"/>
      <point x="839" y="701"/>
      <point x="730" y="585"/>
      <point x="591" y="585" type="curve" smooth="yes"/>
      <point x="449" y="585"/>
      <point x="336" y="697"/>
      <point x="336" y="837" type="curve" smooth="yes"/>
      <point x="336" y="979"/>
      <point x="448" y="1090"/>
      <point x="591" y="1090" type="curve" smooth="yes"/>
      <point x="728" y="1090"/>
      <point x="839" y="974"/>
    </contour>
  </outline>
</glyph>
<glyph name="yen" format="2">
  <advance width="1038"/>
  <unicode hex="00A5"/>
  <outline>
    <contour>
      <point x="664" y="315" type="line"/>
      <point x="1023" y="315" type="line"/>
      <point x="1023" y="424" type="line"/>
      <point x="664" y="424" type="line"/>
      <point x="664" y="543" type="line"/>
      <point x="671" y="563" type="line"/>
      <point x="1023" y="563" type="line"/>
      <point x="1023" y="668" type="line"/>
      <point x="710" y="668" type="line"/>
      <point x="863" y="1114" type="line" smooth="yes"/>
      <point x="902" y="1192"/>
      <point x="938" y="1269"/>
      <point x="1038" y="1269" type="curve"/>
      <point x="1038" y="1348" type="line"/>
      <point x="686" y="1348" type="line"/>
      <point x="686" y="1269" type="line"/>
      <point x="730" y="1267"/>
      <point x="771" y="1261"/>
      <point x="771" y="1207" type="curve" smooth="yes"/>
      <point x="771" y="1181"/>
      <point x="764" y="1155"/>
      <point x="752" y="1133" type="curve" smooth="yes"/>
      <point x="607" y="711" type="line"/>
      <point x="448" y="1169" type="line" smooth="yes"/>
      <point x="430" y="1221"/>
      <point x="442" y="1234"/>
      <point x="452" y="1243" type="curve" smooth="yes"/>
      <point x="473" y="1261"/>
      <point x="509" y="1268"/>
      <point x="533" y="1269" type="curve"/>
      <point x="533" y="1348" type="line"/>
      <point x="0" y="1348" type="line"/>
      <point x="0" y="1269" type="line"/>
      <point x="100" y="1259"/>
      <point x="130" y="1207"/>
      <point x="162" y="1124" type="curve" smooth="yes"/>
      <point x="331" y="668" type="line"/>
      <point x="15" y="668" type="line"/>
      <point x="15" y="563" type="line"/>
      <point x="369" y="563" type="line"/>
      <point x="385" y="528" type="line"/>
      <point x="385" y="424" type="line"/>
      <point x="15" y="424" type="line"/>
      <point x="15" y="315" type="line"/>
      <point x="385" y="315" type="line"/>
      <point x="385" y="243" type="line" smooth="yes"/>
      <point x="385" y="136"/>
      <point x="385" y="79"/>
      <point x="211" y="79" type="curve"/>
      <point x="211" y="0" type="line"/>
      <point x="833" y="0" type="line"/>
      <point x="833" y="79" type="line"/>
      <point x="666" y="79"/>
      <point x="664" y="129"/>
      <point x="664" y="243" type="curve" smooth="yes"/>
    </contour>
  </outline>
</glyph>
<glyph name="brokenbar" format="2">
  <advance width="681"/>
  <unicode hex="00A6"/>
  <outline>
    <contour>
      <point x="290" y="662" type="line"/>
      <point x="390" y="662" type="line"/>
      <point x="390" y="1450" type="line"/>
      <point x="290" y="1450" type="line"/>
    </contour>
    <contour>
      <point x="290" y="-391" type="line"/>
      <point x="390" y="-391" type="line"/>
      <point x="390" y="398" type="line"/>
      <point x="290" y="398" type="line"/>
    </contour>
  </outline>
</glyph>
<glyph name="section" format="2">
  <advance width="1017"/>
  <unicode hex="00A7"/>
  <outline>
    <contour>
      <point x="928" y="451" type="curve" smooth="yes"/>
      <point x="928" y="810"/>
      <point x="343" y="931"/>
      <point x="343" y="1152" type="curve" smooth="yes"/>
      <point x="343" y="1251"/>
      <point x="427" y="1320"/>
      <point x="514" y="1320" type="curve" smooth="yes"/>
      <point x="581" y="1320"/>
      <point x="641" y="1272"/>
      <point x="641" y="1215" type="curve" smooth="yes" name="hr01"/>
      <point x="641" y="1182"/>
      <point x="627" y="1155"/>
      <point x="627" y="1120" type="curve" smooth="yes"/>
      <point x="627" y="1062"/>
      <point x="677" y="1018"/>
      <point x="734" y="1018" type="curve" smooth="yes"/>
      <point x="809" y="1018"/>
      <point x="852" y="1068"/>
      <point x="852" y="1134" type="curve" smooth="yes"/>
      <point x="852" y="1281"/>
      <point x="682" y="1384"/>
      <point x="520" y="1384" type="curve" smooth="yes"/>
      <point x="332" y="1384"/>
      <point x="156" y="1262"/>
      <point x="156" y="1075" type="curve" smooth="yes"/>
      <point x="156" y="944"/>
      <point x="233" y="873"/>
      <point x="301" y="803" type="curve"/>
      <point x="206" y="731"/>
      <point x="92" y="618"/>
      <point x="92" y="460" type="curve" smooth="yes" name="hr02"/>
      <point x="92" y="140"/>
      <point x="685" y="-1"/>
      <point x="685" y="-206" type="curve" smooth="yes"/>
      <point x="685" y="-309"/>
      <point x="609" y="-370"/>
      <point x="501" y="-370" type="curve" smooth="yes"/>
      <point x="415" y="-370"/>
      <point x="376" y="-336"/>
      <point x="376" y="-298" type="curve" smooth="yes" name="hr03"/>
      <point x="376" y="-256"/>
      <point x="402" y="-222"/>
      <point x="402" y="-182" type="curve" smooth="yes"/>
      <point x="402" y="-124"/>
      <point x="354" y="-78"/>
      <point x="286" y="-78" type="curve" smooth="yes"/>
      <point x="223" y="-78"/>
      <point x="172" y="-130"/>
      <point x="172" y="-193" type="curve" smooth="yes"/>
      <point x="172" y="-354"/>
      <point x="319" y="-441"/>
      <point x="496" y="-441" type="curve" smooth="yes"/>
      <point x="711" y="-441"/>
      <point x="864" y="-317"/>
      <point x="864" y="-149" type="curve" smooth="yes"/>
      <point x="864" y="-7"/>
      <point x="786" y="58"/>
      <point x="712" y="138" type="curve"/>
      <point x="819" y="210"/>
      <point x="928" y="304"/>
    </contour>
    <contour>
      <point x="759" y="349" type="curve" smooth="yes"/>
      <point x="759" y="277"/>
      <point x="717" y="228"/>
      <point x="662" y="179" type="curve"/>
      <point x="358" y="407"/>
      <point x="264" y="460"/>
      <point x="264" y="578" type="curve" smooth="yes" name="hr04"/>
      <point x="264" y="657"/>
      <point x="299" y="707"/>
      <point x="358" y="759" type="curve"/>
      <point x="641" y="553"/>
      <point x="759" y="489"/>
    </contour>
  </outline>
</glyph>
<glyph name="copyright" format="2">
  <advance width="1522"/>
  <unicode hex="00A9"/>
  <outline>
    <contour>
      <point x="1480" y="673" type="curve" smooth="yes"/>
      <point x="1480" y="1073"/>
      <point x="1173" y="1378"/>
      <point x="773" y="1378" type="curve" smooth="yes"/>
      <point x="376" y="1378"/>
      <point x="67" y="1073"/>
      <point x="67" y="673" type="curve" smooth="yes"/>
      <point x="67" y="276"/>
      <point x="376" y="-33"/>
      <point x="773" y="-33" type="curve" smooth="yes"/>
      <point x="1170" y="-33"/>
      <point x="1480" y="278"/>
    </contour>
    <contour>
      <point x="1384" y="673" type="curve" smooth="yes"/>
      <point x="1384" y="334"/>
      <point x="1115" y="67"/>
      <point x="773" y="67" type="curve" smooth="yes"/>
      <point x="433" y="67"/>
      <point x="166" y="334"/>
      <point x="166" y="673" type="curve" smooth="yes"/>
      <point x="166" y="1014"/>
      <point x="433" y="1282"/>
      <point x="773" y="1282" type="curve" smooth="yes"/>
      <point x="1115" y="1282"/>
      <point x="1384" y="1015"/>
    </contour>
    <contour>
      <point x="1148" y="460" type="curve"/>
      <point x="1106" y="493" type="line"/>
      <point x="1050" y="409"/>
      <point x="963" y="316"/>
      <point x="837" y="316" type="curve" smooth="yes"/>
      <point x="680" y="316"/>
      <point x="575" y="447"/>
      <point x="575" y="652" type="curve" smooth="yes"/>
      <point x="575" y="859"/>
      <point x="649" y="1023"/>
      <point x="814" y="1023" type="curve" smooth="yes"/>
      <point x="922" y="1023"/>
      <point x="1040" y="932"/>
      <point x="1074" y="779" type="curve"/>
      <point x="1123" y="779" type="line"/>
      <point x="1103" y="1093" type="line"/>
      <point x="1058" y="1093" type="line"/>
      <point x="1048" y="1060"/>
      <point x="1047" y="1034"/>
      <point x="1012" y="1034" type="curve"/>
      <point x="988" y="1034"/>
      <point x="909" y="1091"/>
      <point x="785" y="1091" type="curve" smooth="yes"/>
      <point x="509" y="1091"/>
      <point x="368" y="864"/>
      <point x="368" y="652" type="curve" smooth="yes"/>
      <point x="368" y="441"/>
      <point x="507" y="245"/>
      <point x="797" y="245" type="curve" smooth="yes"/>
      <point x="1001" y="245"/>
      <point x="1100" y="376"/>
    </contour>
  </outline>
</glyph>
<glyph name="ordfeminine" format="2">
  <advance width="653"/>
  <unicode hex="00AA"/>
  <outline>
    <contour>
      <point x="651" y="885" type="curve"/>
      <point x="651" y="920" type="line"/>
      <point x="600" y="875"/>
      <point x="589" y="872"/>
      <point x="574" y="872" type="curve" smooth="yes"/>
      <point x="553" y="872"/>
      <point x="544" y="880"/>
      <point x="543" y="902" type="curve"/>
      <point x="538" y="912"/>
      <point x="538" y="946"/>
      <point x="538" y="997" type="curve" smooth="yes"/>
      <point x="538" y="1186" type="line" smooth="yes"/>
      <point x="538" y="1299"/>
      <point x="508" y="1372"/>
      <point x="319" y="1372" type="curve" smooth="yes"/>
      <point x="192" y="1372"/>
      <point x="77" y="1320"/>
      <point x="77" y="1235" type="curve" smooth="yes"/>
      <point x="77" y="1198"/>
      <point x="98" y="1178"/>
      <point x="138" y="1178" type="curve" smooth="yes"/>
      <point x="174" y="1178"/>
      <point x="199" y="1198"/>
      <point x="197" y="1235" type="curve" smooth="yes"/>
      <point x="195" y="1270" type="line"/>
      <point x="199" y="1308"/>
      <point x="235" y="1337"/>
      <point x="294" y="1337" type="curve" smooth="yes"/>
      <point x="378" y="1337"/>
      <point x="419" y="1299"/>
      <point x="419" y="1193" type="curve" smooth="yes"/>
      <point x="419" y="1172" type="line"/>
      <point x="105" y="1081"/>
      <point x="51" y="1018"/>
      <point x="51" y="936" type="curve" smooth="yes"/>
      <point x="51" y="852"/>
      <point x="115" y="797"/>
      <point x="209" y="797" type="curve" smooth="yes"/>
      <point x="278" y="797"/>
      <point x="301" y="811"/>
      <point x="419" y="885" type="curve"/>
      <point x="419" y="816"/>
      <point x="453" y="797"/>
      <point x="496" y="797" type="curve" smooth="yes"/>
      <point x="546" y="797"/>
      <point x="598" y="827"/>
    </contour>
    <contour>
      <point x="59" y="654" type="line"/>
      <point x="639" y="654" type="line"/>
      <point x="639" y="698" type="line"/>
      <point x="59" y="698" type="line"/>
    </contour>
    <contour>
      <point x="419" y="1136" type="curve"/>
      <point x="419" y="926" type="line"/>
      <point x="359" y="885"/>
      <point x="310" y="861"/>
      <point x="274" y="864" type="curve" smooth="yes"/>
      <point x="218" y="866"/>
      <point x="174" y="910"/>
      <point x="174" y="964" type="curve" smooth="yes"/>
      <point x="174" y="1018"/>
      <point x="195" y="1063"/>
    </contour>
  </outline>
</glyph>
<glyph name="logicalnot" format="2">
  <advance width="1927"/>
  <unicode hex="00AC"/>
  <outline>
    <contour>
      <point x="1412" y="293" type="line"/>
      <point x="1535" y="293" type="line"/>
      <point x="1535" y="823" type="line"/>
      <point x="391" y="823" type="line"/>
      <point x="391" y="700" type="line"/>
      <point x="1412" y="700" type="line"/>
    </contour>
  </outline>
</glyph>
<glyph name="sfthyphen" format="2">
  <advance width="682"/>
  <unicode hex="00AD"/>
  <anchor x="343" y="1000" name="U"/>
  <outline>
    <contour>
      <point x="83" y="362" type="line"/>
      <point x="600" y="362" type="line"/>
      <point x="600" y="547" type="line"/>
      <point x="83" y="547" type="line"/>
    </contour>
  </outline>
</glyph>
<glyph name="registered" format="2">
  <advance width="1522"/>
  <unicode hex="00AE"/>
  <outline>
    <contour>
      <point x="1480" y="673" type="curve" smooth="yes"/>
      <point x="1480" y="1073"/>
      <point x="1173" y="1378"/>
      <point x="773" y="1378" type="curve" smooth="yes"/>
      <point x="376" y="1378"/>
      <point x="67" y="1073"/>
      <point x="67" y="673" type="curve" smooth="yes"/>
      <point x="67" y="276"/>
      <point x="376" y="-33"/>
      <point x="773" y="-33" type="curve" smooth="yes"/>
      <point x="1170" y="-33"/>
      <point x="1480" y="278"/>
    </contour>
    <contour>
      <point x="1384" y="673" type="curve" smooth="yes"/>
      <point x="1384" y="334"/>
      <point x="1115" y="67"/>
      <point x="773" y="67" type="curve" smooth="yes"/>
      <point x="433" y="67"/>
      <point x="166" y="334"/>
      <point x="166" y="673" type="curve" smooth="yes"/>
      <point x="166" y="1014"/>
      <point x="433" y="1282"/>
      <point x="773" y="1282" type="curve" smooth="yes"/>
      <point x="1115" y="1282"/>
      <point x="1384" y="1015"/>
    </contour>
    <contour>
      <point x="924" y="278" type="line"/>
      <point x="1201" y="278" type="line"/>
      <point x="1201" y="325" type="line" name="hr01"/>
      <point x="1128" y="327"/>
      <point x="1046" y="412"/>
      <point x="1017" y="454" type="curve" smooth="yes"/>
      <point x="877" y="653" type="line"/>
      <point x="965" y="672"/>
      <point x="1069" y="741"/>
      <point x="1069" y="870" type="curve" smooth="yes"/>
      <point x="1069" y="1056"/>
      <point x="862" y="1075"/>
      <point x="678" y="1075" type="curve" smooth="yes"/>
      <point x="358" y="1075" type="line"/>
      <point x="358" y="1028" type="line"/>
      <point x="430" y="1028"/>
      <point x="455" y="1008"/>
      <point x="455" y="935" type="curve" smooth="yes"/>
      <point x="455" y="434" type="line" smooth="yes"/>
      <point x="455" y="352"/>
      <point x="430" y="325"/>
      <point x="358" y="325" type="curve"/>
      <point x="358" y="278" type="line"/>
      <point x="740" y="278" type="line"/>
      <point x="740" y="325" type="line"/>
      <point x="673" y="325"/>
      <point x="641" y="352"/>
      <point x="641" y="429" type="curve" smooth="yes"/>
      <point x="641" y="634" type="line"/>
      <point x="664" y="634" type="line"/>
    </contour>
    <contour>
      <point x="873" y="858" type="curve" smooth="yes"/>
      <point x="873" y="731"/>
      <point x="757" y="705"/>
      <point x="641" y="705" type="curve"/>
      <point x="641" y="1003" type="line"/>
      <point x="653" y="1006"/>
      <point x="668" y="1009"/>
      <point x="699" y="1009" type="curve" smooth="yes"/>
      <point x="818" y="1009"/>
      <point x="873" y="930"/>
    </contour>
  </outline>
</glyph>
<glyph name="macron" format="2">
  <advance width="642"/>
  <unicode hex="00AF"/>
  <outline>
    <contour>
      <point x="642" y="1119" type="line"/>
      <point x="642" y="1295" type="line"/>
      <point x="0" y="1295" type="line"/>
      <point x="0" y="1119" type="line"/>
    </contour>
  </outline>
</glyph>
<glyph name="overscore" format="2">
  <advance width="643"/>
  <unicode hex="00AF"/>
  <outline>
    <contour>
      <point x="0" y="1126" type="line"/>
      <point x="643" y="1126" type="line"/>
      <point x="643" y="1236" type="line"/>
      <point x="0" y="1236" type="line"/>
    </contour>
  </outline>
</glyph>
<glyph name="degree" format="2">
  <advance width="627"/>
  <unicode hex="00B0"/>
  <outline>
    <contour>
      <point x="539" y="1195" type="curve" smooth="yes"/>
      <point x="539" y="1321"/>
      <point x="440" y="1421"/>
      <point x="314" y="1421" type="curve" smooth="yes"/>
      <point x="189" y="1421"/>
      <point x="88" y="1321"/>
      <point x="88" y="1195" type="curve" smooth="yes"/>
      <point x="88" y="1070"/>
      <point x="189" y="971"/>
      <point x="314" y="971" type="curve" smooth="yes"/>
      <point x="440" y="971"/>
      <point x="539" y="1070"/>
    </contour>
    <contour>
      <point x="440" y="1195" type="curve" smooth="yes"/>
      <point x="440" y="1126"/>
      <point x="383" y="1070"/>
      <point x="314" y="1070" type="curve" smooth="yes"/>
      <point x="244" y="1070"/>
      <point x="187" y="1126"/>
      <point x="187" y="1195" type="curve" smooth="yes"/>
      <point x="187" y="1266"/>
      <point x="244" y="1321"/>
      <point x="314" y="1321" type="curve" smooth="yes"/>
      <point x="383" y="1321"/>
      <point x="440" y="1266"/>
    </contour>
  </outline>
</glyph>
<glyph name="plusminus" format="2">
  <advance width="1960"/>
  <unicode hex="00B1"/>
  <outline>
    <contour>
      <point x="1040" y="701" type="line"/>
      <point x="1568" y="701" type="line"/>
      <point x="1568" y="823" type="line"/>
      <point x="1040" y="823" type="line"/>
      <point x="1040" y="1175" type="line"/>
      <point x="919" y="1175" type="line"/>
      <point x="919" y="823" type="line"/>
      <point x="391" y="823" type="line"/>
      <point x="391" y="701" type="line"/>
      <point x="919" y="701" type="line"/>
      <point x="919" y="349" type="line"/>
      <point x="1040" y="349" type="line"/>
    </contour>
    <contour>
      <point x="391" y="0" type="line"/>
      <point x="1568" y="0" type="line"/>
      <point x="1568" y="121" type="line"/>
      <point x="391" y="121" type="line"/>
    </contour>
  </outline>
</glyph>
<glyph name="twosuperior" format="2">
  <advance width="737"/>
  <unicode hex="00B2"/>
  <anchor x="354" y="750" name="L"/>
  <anchor x="354" y="1626" name="U"/>
  <outline>
    <contour>
      <point x="607" y="806" type="line"/>
      <point x="676" y="961" type="line"/>
      <point x="651" y="961" type="line"/>
      <point x="605" y="910"/>
      <point x="589" y="897"/>
      <point x="443" y="897" type="curve" smooth="yes"/>
      <point x="186" y="897" type="line"/>
      <point x="215" y="920"/>
      <point x="290" y="986"/>
      <point x="408" y="1095" type="curve" smooth="yes"/>
      <point x="489" y="1166"/>
      <point x="618" y="1296"/>
      <point x="618" y="1424" type="curve" smooth="yes"/>
      <point x="618" y="1558"/>
      <point x="477" y="1639"/>
      <point x="337" y="1639" type="curve" smooth="yes"/>
      <point x="122" y="1639"/>
      <point x="74" y="1482"/>
      <point x="61" y="1408" type="curve"/>
      <point x="87" y="1408" type="line"/>
      <point x="105" y="1452"/>
      <point x="164" y="1547"/>
      <point x="299" y="1547" type="curve" smooth="yes"/>
      <point x="361" y="1547"/>
      <point x="493" y="1509"/>
      <point x="493" y="1368" type="curve" smooth="yes"/>
      <point x="493" y="1302"/>
      <point x="458" y="1227"/>
      <point x="391" y="1145" type="curve" smooth="yes"/>
      <point x="321" y="1063"/>
      <point x="199" y="958"/>
      <point x="32" y="828" type="curve"/>
      <point x="32" y="806" type="line"/>
    </contour>
  </outline>
</glyph>
<glyph name="threesuperior" format="2">
  <advance width="691"/>
  <unicode hex="00B3"/>
  <anchor x="338" y="450" name="L"/>
  <anchor x="338" y="1326" name="U"/>
  <outline>
    <contour>
      <point x="631" y="787" type="curve" smooth="yes"/>
      <point x="631" y="903"/>
      <point x="550" y="965"/>
      <point x="458" y="998" type="curve"/>
      <point x="526" y="1043"/>
      <point x="584" y="1117"/>
      <point x="584" y="1179" type="curve" smooth="yes" name="hr01"/>
      <point x="584" y="1284"/>
      <point x="491" y="1344"/>
      <point x="345" y="1344" type="curve" smooth="yes"/>
      <point x="173" y="1344"/>
      <point x="101" y="1232"/>
      <point x="47" y="1128" type="curve"/>
      <point x="91" y="1113" type="line"/>
      <point x="141" y="1186"/>
      <point x="205" y="1227"/>
      <point x="273" y="1227" type="curve" smooth="yes"/>
      <point x="342" y="1227"/>
      <point x="390" y="1188"/>
      <point x="390" y="1133" type="curve" smooth="yes"/>
      <point x="390" y="1041"/>
      <point x="281" y="959"/>
      <point x="161" y="951" type="curve"/>
      <point x="161" y="904" type="line" name="hr02"/>
      <point x="338" y="892"/>
      <point x="451" y="825"/>
      <point x="451" y="710" type="curve" smooth="yes"/>
      <point x="451" y="646"/>
      <point x="398" y="581"/>
      <point x="322" y="581" type="curve" smooth="yes"/>
      <point x="238" y="581"/>
      <point x="187" y="666"/>
      <point x="126" y="666" type="curve" smooth="yes" name="hr03"/>
      <point x="71" y="666"/>
      <point x="47" y="633"/>
      <point x="47" y="596" type="curve" smooth="yes"/>
      <point x="47" y="522"/>
      <point x="135" y="503"/>
      <point x="234" y="503" type="curve" smooth="yes"/>
      <point x="460" y="503"/>
      <point x="631" y="613"/>
    </contour>
  </outline>
</glyph>
<glyph name="acute" format="2">
  <advance width="703"/>
  <unicode hex="00B4"/>
  <anchor x="471" y="1375" name="U"/>
  <outline>
    <contour>
      <point x="703" y="1331" type="curve"/>
      <point x="703" y="1358"/>
      <point x="670" y="1396"/>
      <point x="650" y="1396" type="curve" smooth="yes"/>
      <point x="605" y="1396"/>
      <point x="560" y="1365"/>
      <point x="526" y="1328" type="curve" smooth="yes"/>
      <point x="241" y="1043" type="line"/>
      <point x="323" y="1043" type="line"/>
      <point x="620" y="1230" type="line" smooth="yes"/>
      <point x="662" y="1258"/>
      <point x="703" y="1291"/>
    </contour>
  </outline>
</glyph>
<glyph name="micro" format="2">
  <advance width="1161"/>
  <unicode hex="00B5"/>
  <outline>
    <contour>
      <point x="1144" y="227" type="curve"/>
      <point x="1104" y="227" type="line"/>
      <point x="1086" y="132"/>
      <point x="1064" y="103"/>
      <point x="1021" y="103" type="curve" smooth="yes"/>
      <point x="986" y="103"/>
      <point x="956" y="134"/>
      <point x="956" y="264" type="curve" smooth="yes"/>
      <point x="956" y="914" type="line"/>
      <point x="678" y="914" type="line"/>
      <point x="678" y="249" type="line"/>
      <point x="600" y="160"/>
      <point x="558" y="124"/>
      <point x="513" y="124" type="curve" smooth="yes"/>
      <point x="462" y="124"/>
      <point x="432" y="166"/>
      <point x="425" y="202" type="curve" smooth="yes"/>
      <point x="415" y="250"/>
      <point x="411" y="294"/>
      <point x="411" y="392" type="curve" smooth="yes"/>
      <point x="411" y="914" type="line"/>
      <point x="133" y="914" type="line"/>
      <point x="133" y="192" type="line" smooth="yes"/>
      <point x="133" y="-109"/>
      <point x="68" y="-182"/>
      <point x="68" y="-305" type="curve" smooth="yes"/>
      <point x="68" y="-398"/>
      <point x="130" y="-444"/>
      <point x="196" y="-444" type="curve" smooth="yes"/>
      <point x="264" y="-444"/>
      <point x="325" y="-387"/>
      <point x="325" y="-301" type="curve" smooth="yes"/>
      <point x="325" y="-221"/>
      <point x="268" y="-117"/>
      <point x="268" y="10" type="curve" smooth="yes"/>
      <point x="268" y="57" type="line"/>
      <point x="317" y="-26"/>
      <point x="384" y="-30"/>
      <point x="414" y="-30" type="curve" smooth="yes"/>
      <point x="520" y="-30"/>
      <point x="565" y="32"/>
      <point x="678" y="162" type="curve"/>
      <point x="697" y="13"/>
      <point x="806" y="-30"/>
      <point x="885" y="-30" type="curve" smooth="yes"/>
      <point x="998" y="-30"/>
      <point x="1133" y="58"/>
    </contour>
  </outline>
</glyph>
<glyph name="paragraph" format="2">
  <advance width="1067"/>
  <unicode hex="00B6"/>
  <outline>
    <contour>
      <point x="883" y="1269" type="line"/>
      <point x="1071" y="1269" type="line"/>
      <point x="1071" y="1348" type="line"/>
      <point x="503" y="1348" type="line" smooth="yes"/>
      <point x="163" y="1348"/>
      <point x="-13" y="1123"/>
      <point x="-13" y="897" type="curve" smooth="yes"/>
      <point x="-13" y="661"/>
      <point x="163" y="480"/>
      <point x="503" y="480" type="curve"/>
      <point x="503" y="-436" type="line"/>
      <point x="602" y="-436" type="line"/>
      <point x="602" y="1266" type="line"/>
      <point x="785" y="1266" type="line"/>
      <point x="785" y="-436" type="line"/>
      <point x="883" y="-436" type="line"/>
    </contour>
  </outline>
</glyph>
<glyph name="periodcentered" format="2">
  <advance width="568"/>
  <unicode hex="00B7"/>
  <outline>
    <contour>
      <point x="453" y="677" type="curve" smooth="yes"/>
      <point x="453" y="767"/>
      <point x="376" y="844"/>
      <point x="283" y="844" type="curve" smooth="yes"/>
      <point x="192" y="844"/>
      <point x="116" y="767"/>
      <point x="116" y="677" type="curve" smooth="yes"/>
      <point x="116" y="583"/>
      <point x="192" y="507"/>
      <point x="283" y="507" type="curve" smooth="yes"/>
      <point x="376" y="507"/>
      <point x="453" y="583"/>
    </contour>
  </outline>
</glyph>
<glyph name="cedilla" format="2">
  <advance width="429"/>
  <unicode hex="00B8"/>
  <anchor x="214" y="-500" name="L"/>
  <outline>
    <contour>
      <point x="429" y="-270" type="curve" smooth="yes"/>
      <point x="429" y="-171"/>
      <point x="346" y="-128"/>
      <point x="258" y="-128" type="curve" smooth="yes"/>
      <point x="237" y="-128"/>
      <point x="217" y="-130"/>
      <point x="199" y="-135" type="curve"/>
      <point x="262" y="25" type="line"/>
      <point x="189" y="25" type="line"/>
      <point x="92" y="-204" type="line"/>
      <point x="109" y="-215" type="line"/>
      <point x="136" y="-207"/>
      <point x="169" y="-202"/>
      <point x="201" y="-205" type="curve" smooth="yes"/>
      <point x="246" y="-209"/>
      <point x="276" y="-237"/>
      <point x="276" y="-284" type="curve" smooth="yes"/>
      <point x="276" y="-342"/>
      <point x="232" y="-371"/>
      <point x="156" y="-371" type="curve" smooth="yes"/>
      <point x="122" y="-371"/>
      <point x="66" y="-359"/>
      <point x="30" y="-345" type="curve"/>
      <point x="0" y="-411" type="line"/>
      <point x="51" y="-427"/>
      <point x="110" y="-443"/>
      <point x="166" y="-443" type="curve" smooth="yes"/>
      <point x="296" y="-443"/>
      <point x="429" y="-379"/>
    </contour>
  </outline>
</glyph>
<glyph name="onesuperior" format="2">
  <advance width="691"/>
  <unicode hex="00B9"/>
  <anchor x="366" y="450" name="L"/>
  <anchor x="366" y="1326" name="U"/>
  <outline>
    <contour>
      <point x="101" y="510" type="line"/>
      <point x="611" y="510" type="line"/>
      <point x="611" y="557" type="line"/>
      <point x="495" y="557"/>
      <point x="469" y="578"/>
      <point x="469" y="662" type="curve" smooth="yes"/>
      <point x="469" y="1337" type="line"/>
      <point x="412" y="1337" type="line"/>
      <point x="79" y="1201" type="line"/>
      <point x="101" y="1157" type="line"/>
      <point x="138" y="1171"/>
      <point x="167" y="1177"/>
      <point x="188" y="1177" type="curve" smooth="yes"/>
      <point x="259" y="1177"/>
      <point x="259" y="1133"/>
      <point x="259" y="1080" type="curve" smooth="yes"/>
      <point x="259" y="662" type="line" smooth="yes"/>
      <point x="259" y="578"/>
      <point x="218" y="557"/>
      <point x="101" y="557" type="curve"/>
    </contour>
  </outline>
</glyph>
<glyph name="ordmasculine" format="2">
  <advance width="765"/>
  <unicode hex="00BA"/>
  <outline>
    <contour>
      <point x="717" y="1084" type="curve" smooth="yes"/>
      <point x="717" y="1238"/>
      <point x="580" y="1361"/>
      <point x="381" y="1361" type="curve" smooth="yes"/>
      <point x="177" y="1361"/>
      <point x="51" y="1221"/>
      <point x="51" y="1069" type="curve" smooth="yes"/>
      <point x="51" y="921"/>
      <point x="178" y="784"/>
      <point x="389" y="784" type="curve" smooth="yes"/>
      <point x="592" y="784"/>
      <point x="717" y="925"/>
    </contour>
    <contour>
      <point x="508" y="1038" type="curve" smooth="yes"/>
      <point x="508" y="898"/>
      <point x="479" y="844"/>
      <point x="422" y="844" type="curve" smooth="yes"/>
      <point x="342" y="844"/>
      <point x="259" y="970"/>
      <point x="259" y="1117" type="curve" smooth="yes"/>
      <point x="259" y="1260"/>
      <point x="309" y="1304"/>
      <point x="352" y="1304" type="curve" smooth="yes"/>
      <point x="454" y="1304"/>
      <point x="508" y="1167"/>
    </contour>
    <contour>
      <point x="711" y="614" type="line"/>
      <point x="711" y="694" type="line"/>
      <point x="63" y="694" type="line"/>
      <point x="63" y="614" type="line"/>
    </contour>
  </outline>
</glyph>
<glyph name="onequarter" format="2">
  <advance width="1731"/>
  <unicode hex="00BC"/>
  <outline>
    <contour>
      <point x="1454" y="173" type="line"/>
      <point x="1559" y="173" type="line"/>
      <point x="1559" y="298" type="line"/>
      <point x="1454" y="298" type="line"/>
      <point x="1454" y="819" type="line"/>
      <point x="1302" y="819" type="line"/>
      <point x="866" y="298" type="line"/>
      <point x="866" y="173" type="line"/>
      <point x="1258" y="173" type="line"/>
      <point x="1258" y="-7" type="line"/>
      <point x="1454" y="-7" type="line"/>
    </contour>
    <contour>
      <point x="1474" y="1372" type="line"/>
      <point x="1346" y="1372" type="line"/>
      <point x="376" y="-15" type="line" name="hr01"/>
      <point x="503" y="-15" type="line"/>
    </contour>
    <contour>
      <point x="193" y="521" type="line"/>
      <point x="705" y="521" type="line"/>
      <point x="705" y="568" type="line"/>
      <point x="587" y="568"/>
      <point x="562" y="589"/>
      <point x="562" y="673" type="curve" smooth="yes"/>
      <point x="562" y="1357" type="line" name="hr02"/>
      <point x="506" y="1357" type="line"/>
      <point x="171" y="1221" type="line"/>
      <point x="193" y="1175" type="line"/>
      <point x="231" y="1190"/>
      <point x="259" y="1195"/>
      <point x="281" y="1195" type="curve" smooth="yes"/>
      <point x="352" y="1195"/>
      <point x="352" y="1144"/>
      <point x="352" y="1091" type="curve" smooth="yes"/>
      <point x="352" y="673" type="line" smooth="yes"/>
      <point x="352" y="589"/>
      <point x="311" y="568"/>
      <point x="193" y="568" type="curve"/>
    </contour>
    <contour>
      <point x="1258" y="633" type="line"/>
      <point x="1258" y="298" type="line"/>
      <point x="974" y="298" type="line"/>
    </contour>
  </outline>
</glyph>
<glyph name="onehalf" format="2">
  <advance width="1731"/>
  <unicode hex="00BD"/>
  <outline>
    <contour>
      <point x="1525" y="-7" type="line"/>
      <point x="1628" y="226" type="line"/>
      <point x="1569" y="226" type="line"/>
      <point x="1532" y="158"/>
      <point x="1454" y="147"/>
      <point x="1361" y="147" type="curve" smooth="yes"/>
      <point x="1185" y="147" type="line"/>
      <point x="1325" y="266"/>
      <point x="1553" y="389"/>
      <point x="1553" y="607" type="curve" smooth="yes"/>
      <point x="1553" y="719"/>
      <point x="1439" y="827"/>
      <point x="1271" y="827" type="curve" smooth="yes"/>
      <point x="1115" y="827"/>
      <point x="1025" y="704"/>
      <point x="995" y="568" type="curve"/>
      <point x="1053" y="568" type="line"/>
      <point x="1083" y="651"/>
      <point x="1144" y="686"/>
      <point x="1203" y="686" type="curve" smooth="yes"/>
      <point x="1288" y="686"/>
      <point x="1357" y="641"/>
      <point x="1357" y="556" type="curve" smooth="yes"/>
      <point x="1357" y="363"/>
      <point x="1095" y="155"/>
      <point x="972" y="39" type="curve"/>
      <point x="972" y="-7" type="line"/>
    </contour>
    <contour>
      <point x="1408" y="1372" type="line"/>
      <point x="1280" y="1372" type="line"/>
      <point x="310" y="-15" type="line" name="hr01"/>
      <point x="437" y="-15" type="line"/>
    </contour>
    <contour>
      <point x="125" y="521" type="line"/>
      <point x="637" y="521" type="line"/>
      <point x="637" y="568" type="line"/>
      <point x="519" y="568"/>
      <point x="494" y="589"/>
      <point x="494" y="673" type="curve" smooth="yes"/>
      <point x="494" y="1357" type="line" name="hr02"/>
      <point x="438" y="1357" type="line"/>
      <point x="103" y="1221" type="line"/>
      <point x="125" y="1175" type="line"/>
      <point x="163" y="1190"/>
      <point x="191" y="1195"/>
      <point x="213" y="1195" type="curve" smooth="yes"/>
      <point x="284" y="1195"/>
      <point x="284" y="1144"/>
      <point x="284" y="1091" type="curve" smooth="yes"/>
      <point x="284" y="673" type="line" smooth="yes"/>
      <point x="284" y="589"/>
      <point x="243" y="568"/>
      <point x="125" y="568" type="curve"/>
    </contour>
  </outline>
</glyph>
<glyph name="threequarters" format="2">
  <advance width="1731"/>
  <unicode hex="00BE"/>
  <outline>
    <contour>
      <point x="1454" y="173" type="line"/>
      <point x="1559" y="173" type="line"/>
      <point x="1559" y="298" type="line"/>
      <point x="1454" y="298" type="line"/>
      <point x="1454" y="819" type="line"/>
      <point x="1302" y="819" type="line"/>
      <point x="866" y="298" type="line"/>
      <point x="866" y="173" type="line"/>
      <point x="1258" y="173" type="line"/>
      <point x="1258" y="-7" type="line"/>
      <point x="1454" y="-7" type="line"/>
    </contour>
    <contour>
      <point x="503" y="-15" type="line"/>
      <point x="1474" y="1372" type="line"/>
      <point x="1346" y="1372" type="line"/>
      <point x="376" y="-15" type="line" name="hr01"/>
    </contour>
    <contour>
      <point x="750" y="806" type="curve" smooth="yes"/>
      <point x="750" y="921"/>
      <point x="667" y="984"/>
      <point x="576" y="1017" type="curve"/>
      <point x="632" y="1045"/>
      <point x="701" y="1128"/>
      <point x="701" y="1189" type="curve" smooth="yes" name="hr02"/>
      <point x="701" y="1294"/>
      <point x="605" y="1357"/>
      <point x="457" y="1357" type="curve" smooth="yes"/>
      <point x="286" y="1357"/>
      <point x="218" y="1245"/>
      <point x="165" y="1141" type="curve"/>
      <point x="210" y="1126" type="line"/>
      <point x="259" y="1200"/>
      <point x="323" y="1240"/>
      <point x="391" y="1240" type="curve" smooth="yes"/>
      <point x="460" y="1240"/>
      <point x="508" y="1200"/>
      <point x="508" y="1130" type="curve" smooth="yes"/>
      <point x="508" y="1040"/>
      <point x="400" y="974"/>
      <point x="279" y="965" type="curve"/>
      <point x="279" y="918" type="line" name="hr03"/>
      <point x="456" y="906"/>
      <point x="568" y="819"/>
      <point x="568" y="705" type="curve" smooth="yes"/>
      <point x="568" y="641"/>
      <point x="515" y="583"/>
      <point x="441" y="583" type="curve" smooth="yes"/>
      <point x="356" y="583"/>
      <point x="304" y="667"/>
      <point x="244" y="667" type="curve" smooth="yes" name="hr04"/>
      <point x="190" y="667"/>
      <point x="165" y="634"/>
      <point x="165" y="598" type="curve" smooth="yes"/>
      <point x="165" y="523"/>
      <point x="253" y="506"/>
      <point x="352" y="506" type="curve" smooth="yes"/>
      <point x="579" y="506"/>
      <point x="750" y="632"/>
    </contour>
    <contour>
      <point x="1258" y="633" type="line"/>
      <point x="1258" y="298" type="line"/>
      <point x="974" y="298" type="line"/>
    </contour>
  </outline>
</glyph>
<glyph name="questiondown" format="2">
  <advance width="996"/>
  <unicode hex="00BF"/>
  <outline>
    <contour>
      <point x="376" y="819" type="curve" smooth="yes"/>
      <point x="376" y="734"/>
      <point x="446" y="666"/>
      <point x="529" y="666" type="curve" smooth="yes"/>
      <point x="612" y="666"/>
      <point x="679" y="734"/>
      <point x="679" y="819" type="curve" smooth="yes"/>
      <point x="679" y="902"/>
      <point x="612" y="970"/>
      <point x="529" y="970" type="curve" smooth="yes"/>
      <point x="446" y="970"/>
      <point x="376" y="902"/>
    </contour>
    <contour>
      <point x="886" y="-114" type="curve" smooth="yes"/>
      <point x="886" y="-27"/>
      <point x="825" y="35"/>
      <point x="733" y="35" type="curve" smooth="yes"/>
      <point x="667" y="35"/>
      <point x="625" y="-17"/>
      <point x="625" y="-78" type="curve" smooth="yes"/>
      <point x="625" y="-149"/>
      <point x="686" y="-229"/>
      <point x="686" y="-269" type="curve" smooth="yes" name="hr02"/>
      <point x="686" y="-314"/>
      <point x="622" y="-345"/>
      <point x="559" y="-345" type="curve" smooth="yes"/>
      <point x="449" y="-345"/>
      <point x="393" y="-266"/>
      <point x="393" y="-111" type="curve" smooth="yes"/>
      <point x="393" y="-19"/>
      <point x="410" y="67"/>
      <point x="464" y="178" type="curve" smooth="yes"/>
      <point x="534" y="321"/>
      <point x="566" y="411"/>
      <point x="566" y="540" type="curve"/>
      <point x="487" y="540" type="line"/>
      <point x="487" y="420"/>
      <point x="390" y="312"/>
      <point x="295" y="205" type="curve" smooth="yes"/>
      <point x="202" y="101"/>
      <point x="110" y="-4"/>
      <point x="110" y="-121" type="curve" smooth="yes" name="hr01"/>
      <point x="110" y="-338"/>
      <point x="279" y="-436"/>
      <point x="488" y="-436" type="curve" smooth="yes"/>
      <point x="785" y="-436"/>
      <point x="886" y="-256"/>
    </contour>
  </outline>
</glyph>
<glyph name="AE" format="2">
  <advance width="2043"/>
  <unicode hex="00C6"/>
  <anchor x="1041" y="-100" name="L"/>
  <anchor x="1041" y="1435" name="U"/>
  <outline>
    <contour>
      <point x="1822" y="0" type="line"/>
      <point x="1960" y="390" type="line"/>
      <point x="1878" y="390" type="line"/>
      <point x="1769" y="199"/>
      <point x="1714" y="113"/>
      <point x="1479" y="113" type="curve" smooth="yes"/>
      <point x="1373" y="113" type="line" smooth="yes"/>
      <point x="1298" y="113"/>
      <point x="1285" y="140"/>
      <point x="1273" y="158" type="curve" smooth="yes"/>
      <point x="1266" y="170"/>
      <point x="1259" y="211"/>
      <point x="1259" y="264" type="curve" smooth="yes"/>
      <point x="1259" y="629" type="line"/>
      <point x="1380" y="629" type="line" smooth="yes"/>
      <point x="1548" y="629"/>
      <point x="1571" y="572"/>
      <point x="1595" y="414" type="curve"/>
      <point x="1674" y="414" type="line"/>
      <point x="1674" y="977" type="line"/>
      <point x="1595" y="977" type="line"/>
      <point x="1571" y="820"/>
      <point x="1545" y="744"/>
      <point x="1380" y="744" type="curve" smooth="yes"/>
      <point x="1259" y="744" type="line"/>
      <point x="1259" y="1232" type="line"/>
      <point x="1511" y="1232" type="line" smooth="yes"/>
      <point x="1711" y="1232"/>
      <point x="1728" y="1159"/>
      <point x="1774" y="985" type="curve"/>
      <point x="1850" y="985" type="line"/>
      <point x="1834" y="1348" type="line"/>
      <point x="645" y="1348" type="line"/>
      <point x="645" y="1269" type="line"/>
      <point x="766" y="1261"/>
      <point x="784" y="1233"/>
      <point x="784" y="1188" type="curve" smooth="yes"/>
      <point x="784" y="1156"/>
      <point x="764" y="1115"/>
      <point x="724" y="1038" type="curve" smooth="yes"/>
      <point x="328" y="272" type="line" smooth="yes"/>
      <point x="282" y="182"/>
      <point x="209" y="118"/>
      <point x="155" y="91" type="curve" smooth="yes"/>
      <point x="128" y="77"/>
      <point x="103" y="79"/>
      <point x="93" y="79" type="curve"/>
      <point x="93" y="0" type="line" name="hr01"/>
      <point x="566" y="0" type="line"/>
      <point x="566" y="79" type="line"/>
      <point x="474" y="88"/>
      <point x="409" y="105"/>
      <point x="409" y="159" type="curve" smooth="yes"/>
      <point x="409" y="179"/>
      <point x="418" y="204"/>
      <point x="464" y="290" type="curve" smooth="yes"/>
      <point x="566" y="481" type="line"/>
      <point x="949" y="481" type="line"/>
      <point x="949" y="281" type="line" smooth="yes"/>
      <point x="949" y="199"/>
      <point x="936" y="149"/>
      <point x="919" y="127" type="curve" smooth="yes"/>
      <point x="892" y="94"/>
      <point x="851" y="79"/>
      <point x="757" y="79" type="curve"/>
      <point x="757" y="0" type="line"/>
    </contour>
    <contour>
      <point x="949" y="1233" type="line"/>
      <point x="949" y="596" type="line"/>
      <point x="625" y="596" type="line"/>
    </contour>
  </outline>
</glyph>
<glyph name="Eth" format="2">
  <advance width="1458"/>
  <unicode hex="00D0"/>
  <anchor x="718" y="-100" name="L"/>
  <anchor x="718" y="1435" name="U"/>
  <outline>
    <contour>
      <point x="1375" y="674" type="curve" smooth="yes"/>
      <point x="1375" y="1063"/>
      <point x="1110" y="1348"/>
      <point x="701" y="1348" type="curve" smooth="yes"/>
      <point x="27" y="1348" type="line"/>
      <point x="27" y="1269" type="line"/>
      <point x="194" y="1269"/>
      <point x="217" y="1237"/>
      <point x="217" y="1082" type="curve" smooth="yes"/>
      <point x="217" y="266" type="line" smooth="yes"/>
      <point x="217" y="145"/>
      <point x="200" y="79"/>
      <point x="27" y="79" type="curve"/>
      <point x="27" y="0" type="line"/>
      <point x="701" y="0" type="line" smooth="yes"/>
      <point x="1126" y="0"/>
      <point x="1375" y="290"/>
    </contour>
    <contour>
      <point x="1016" y="674" type="curve" smooth="yes"/>
      <point x="1016" y="407"/>
      <point x="936" y="114"/>
      <point x="658" y="114" type="curve" smooth="yes" name="hr01"/>
      <point x="601" y="114"/>
      <point x="554" y="121"/>
      <point x="532" y="134" type="curve"/>
      <point x="532" y="1226" type="line"/>
      <point x="552" y="1230"/>
      <point x="573" y="1232"/>
      <point x="609" y="1232" type="curve" smooth="yes"/>
      <point x="928" y="1232"/>
      <point x="1016" y="931"/>
    </contour>
    <contour>
      <point x="27" y="644" type="line"/>
      <point x="838" y="644" type="line"/>
      <point x="838" y="782" type="line"/>
      <point x="27" y="782" type="line"/>
    </contour>
  </outline>
</glyph>
<glyph name="multiply" format="2">
  <advance width="1401"/>
  <unicode hex="00D7"/>
  <outline>
    <contour>
      <point x="1126" y="58" type="line"/>
      <point x="1226" y="158" type="line"/>
      <point x="798" y="587" type="line"/>
      <point x="1226" y="1015" type="line"/>
      <point x="1126" y="1115" type="line"/>
      <point x="697" y="685" type="line"/>
      <point x="269" y="1114" type="line"/>
      <point x="169" y="1014" type="line"/>
      <point x="594" y="587" type="line"/>
      <point x="167" y="158" type="line"/>
      <point x="268" y="58" type="line"/>
      <point x="697" y="492" type="line"/>
    </contour>
  </outline>
</glyph>
<glyph name="Oslash" format="2">
  <advance width="1586"/>
  <unicode hex="00D8"/>
  <anchor x="790" y="-100" name="L"/>
  <anchor x="790" y="1435" name="U"/>
  <outline>
    <contour>
      <point x="792" y="1378" type="curve" smooth="yes" name="hr01"/>
      <point x="400" y="1378"/>
      <point x="77" y="1067"/>
      <point x="77" y="674" type="curve" smooth="yes"/>
      <point x="77" y="475"/>
      <point x="160" y="295"/>
      <point x="295" y="169" type="curve"/>
      <point x="171" y="22" type="line"/>
      <point x="249" y="-47" type="line"/>
      <point x="376" y="101" type="line"/>
      <point x="493" y="19"/>
      <point x="638" y="-28"/>
      <point x="792" y="-28" type="curve" smooth="yes" name="hr02"/>
      <point x="1183" y="-28"/>
      <point x="1510" y="282"/>
      <point x="1510" y="674" type="curve" smooth="yes"/>
      <point x="1510" y="869"/>
      <point x="1431" y="1043"/>
      <point x="1301" y="1170" type="curve"/>
      <point x="1433" y="1321" type="line"/>
      <point x="1354" y="1392" type="line"/>
      <point x="1222" y="1239" type="line"/>
      <point x="1102" y="1326"/>
      <point x="950" y="1378"/>
    </contour>
    <contour>
      <point x="792" y="1304" type="curve" smooth="yes"/>
      <point x="939" y="1304"/>
      <point x="1030" y="1210"/>
      <point x="1084" y="1080" type="curve"/>
      <point x="468" y="368" type="line"/>
      <point x="443" y="466"/>
      <point x="435" y="574"/>
      <point x="435" y="674" type="curve" smooth="yes"/>
      <point x="435" y="957"/>
      <point x="509" y="1304"/>
    </contour>
    <contour>
      <point x="792" y="45" type="curve" smooth="yes"/>
      <point x="651" y="45"/>
      <point x="562" y="130"/>
      <point x="507" y="251" type="curve"/>
      <point x="1120" y="961" type="line"/>
      <point x="1142" y="869"/>
      <point x="1150" y="767"/>
      <point x="1150" y="674" type="curve" smooth="yes"/>
      <point x="1150" y="391"/>
      <point x="1074" y="45"/>
    </contour>
  </outline>
</glyph>
<glyph name="Thorn" format="2">
  <advance width="1216"/>
  <unicode hex="00DE"/>
  <anchor x="600" y="-100" name="L"/>
  <anchor x="600" y="1435" name="U"/>
  <outline>
    <contour>
      <point x="1140" y="677" type="curve" smooth="yes"/>
      <point x="1140" y="913"/>
      <point x="961" y="1043"/>
      <point x="690" y="1043" type="curve" smooth="yes"/>
      <point x="482" y="1043" type="line"/>
      <point x="482" y="1109" type="line" smooth="yes"/>
      <point x="482" y="1202"/>
      <point x="510" y="1269"/>
      <point x="678" y="1269" type="curve"/>
      <point x="678" y="1348" type="line"/>
      <point x="37" y="1348" type="line"/>
      <point x="37" y="1269" type="line"/>
      <point x="169" y="1269"/>
      <point x="199" y="1202"/>
      <point x="199" y="1109" type="curve" smooth="yes"/>
      <point x="199" y="238" type="line" smooth="yes"/>
      <point x="199" y="132"/>
      <point x="166" y="79"/>
      <point x="37" y="79" type="curve"/>
      <point x="37" y="0" type="line"/>
      <point x="678" y="0" type="line"/>
      <point x="678" y="79" type="line"/>
      <point x="497" y="79"/>
      <point x="482" y="149"/>
      <point x="482" y="243" type="curve" smooth="yes"/>
      <point x="482" y="303" type="line"/>
      <point x="686" y="303" type="line" smooth="yes"/>
      <point x="963" y="303"/>
      <point x="1140" y="434"/>
    </contour>
    <contour>
      <point x="838" y="674" type="curve" smooth="yes"/>
      <point x="838" y="530"/>
      <point x="753" y="409"/>
      <point x="541" y="409" type="curve" smooth="yes"/>
      <point x="482" y="409" type="line"/>
      <point x="482" y="938" type="line"/>
      <point x="583" y="938" type="line" smooth="yes"/>
      <point x="732" y="938"/>
      <point x="838" y="822"/>
    </contour>
  </outline>
</glyph>
